<svg width="13" height="16" viewBox="0 0 13 16" fill="none" xmlns="http://www.w3.org/2000/svg">
<path d="M6.4 7.8C6.78667 7.8 7.11667 7.66333 7.39 7.39C7.66333 7.11667 7.8 6.78667 7.8 6.4C7.8 6.01333 7.66333 5.68333 7.39 5.41C7.11667 5.13667 6.78667 5 6.4 5C6.01333 5 5.68333 5.13667 5.41 5.41C5.13667 5.68333 5 6.01333 5 6.4C5 6.78667 5.13667 7.11667 5.41 7.39C5.68333 7.66333 6.01333 7.8 6.4 7.8ZM6.4 16C4.25333 14.1733 2.65 12.4767 1.59 10.91C0.53 9.34333 0 7.89333 0 6.56C0 4.56 0.643333 2.96667 1.93 1.78C3.21667 0.593333 4.70667 0 6.4 0C8.09333 0 9.58333 0.593333 10.87 1.78C12.1567 2.96667 12.8 4.56 12.8 6.56C12.8 7.89333 12.27 9.34333 11.21 10.91C10.15 12.4767 8.54667 14.1733 6.4 16Z" fill="#303030"/>
</svg>
