<svg width="29" height="35" viewBox="0 0 29 35" fill="none" xmlns="http://www.w3.org/2000/svg">
<path d="M14.5 17.0625C15.3458 17.0625 16.0677 16.7635 16.6656 16.1656C17.2635 15.5677 17.5625 14.8458 17.5625 14C17.5625 13.1542 17.2635 12.4323 16.6656 11.8344C16.0677 11.2365 15.3458 10.9375 14.5 10.9375C13.6542 10.9375 12.9323 11.2365 12.3344 11.8344C11.7365 12.4323 11.4375 13.1542 11.4375 14C11.4375 14.8458 11.7365 15.5677 12.3344 16.1656C12.9323 16.7635 13.6542 17.0625 14.5 17.0625ZM14.5 35C9.80417 31.0042 6.29688 27.2927 3.97813 23.8656C1.65938 20.4385 0.5 17.2667 0.5 14.35C0.5 9.975 1.90729 6.48958 4.72187 3.89375C7.53646 1.29792 10.7958 0 14.5 0C18.2042 0 21.4635 1.29792 24.2781 3.89375C27.0927 6.48958 28.5 9.975 28.5 14.35C28.5 17.2667 27.3406 20.4385 25.0219 23.8656C22.7031 27.2927 19.1958 31.0042 14.5 35Z" fill="#53284f"/>
</svg>
