<svg xmlns="http://www.w3.org/2000/svg" xmlns:xlink="http://www.w3.org/1999/xlink" viewBox="0 0 869.74 925.59"><defs><style>.cls-1{fill:url(#Degradado_sin_nombre_120);}.cls-2{fill:url(#Degradado_sin_nombre_128);}.cls-3{font-size:114.88px;fill:#f7ac00;}.cls-3,.cls-5{font-family:Ruina;}.cls-4{letter-spacing:-0.04em;}.cls-5{font-size:209.11px;fill:#fff;}.cls-6{fill:url(#Degradado_sin_nombre_47);}</style><linearGradient id="Degradado_sin_nombre_120" x1="57.97" y1="333.44" x2="869.74" y2="333.44" gradientUnits="userSpaceOnUse"><stop offset="0.07" stop-color="#391d57"/><stop offset="0.23" stop-color="#582f75"/><stop offset="0.43" stop-color="#54376c"/><stop offset="0.84" stop-color="#52346e"/></linearGradient><linearGradient id="Degradado_sin_nombre_128" x1="463.85" y1="661.27" x2="463.85" y2="6.81" gradientUnits="userSpaceOnUse"><stop offset="0.07" stop-color="#341853"/><stop offset="0.15" stop-color="#3a1e58" stop-opacity="0.81"/><stop offset="0.33" stop-color="#452861" stop-opacity="0.45"/><stop offset="0.5" stop-color="#4d3068" stop-opacity="0.2"/><stop offset="0.67" stop-color="#51346c" stop-opacity="0.05"/><stop offset="0.84" stop-color="#53366d" stop-opacity="0"/></linearGradient><linearGradient id="Degradado_sin_nombre_47" y1="462.79" x2="57.97" y2="462.79" gradientUnits="userSpaceOnUse"><stop offset="0" stop-color="#6a6a6b"/><stop offset="0.56" stop-color="#cbccca"/><stop offset="1" stop-color="#6a6a6b"/></linearGradient></defs><g id="Capa_2" data-name="Capa 2"><g id="_Layer_" data-name="&lt;Layer&gt;"><path class="cls-1" d="M58,614.49c306.14-187.24,505.63,179,811.77-8.23-50.13-15.58-85.15-64.77-109.66-121.69a94.5,94.5,0,0,1-4.53-13.08c-24.2-90.81-24.61-125,28.05-213.06,18.69-31.26,41.12-71,78-127.51-126.66,17.37-155.82,4.47-218.21-9.27C463.13,82,383.44-5.41,232.21,6.75,154.52,13,93.89,42.62,58,63.81Z"/><path class="cls-2" d="M58,614.49c306.14-187.24,505.63,179,811.77-8.23-44.91-14-76.73-54-101.44-103.17a266.33,266.33,0,0,1-23.95-71.87c-9.81-54-8.61-94.14,33.48-163.23,19.92-32.69,43-74.6,83.75-137.07-16.23,2.34-40.89,5.38-71,7-51.6,2.75-111.66,8.31-244-44C512,80.28,492.39,68.7,430.44,45.78c-38.37-14.19-70.5-24.43-92.19-31C298,6.72,225.76-1.59,143.7,24.33A378.43,378.43,0,0,0,58,63.81Z"/><text class="cls-3" transform="translate(162.96 260.33)">suc. <tspan class="cls-4" x="224.7" y="0">a</tspan><tspan x="287.08" y="0">v.</tspan></text><text class="cls-5" transform="translate(150.28 455.23)">PIRAI</text><rect class="cls-6" width="57.97" height="925.59"/></g></g></svg>