<svg xmlns="http://www.w3.org/2000/svg" xmlns:xlink="http://www.w3.org/1999/xlink" viewBox="0 0 937.07 925.59"><defs><style>.cls-1{fill:url(#Degradado_sin_nombre_120);}.cls-2{fill:url(#Degradado_sin_nombre_128);}.cls-3{fill:#f7ac00;}.cls-4{fill:#fff;}.cls-5{fill:url(#Degradado_sin_nombre_47);}</style><linearGradient id="Degradado_sin_nombre_120" x1="57.97" y1="333.44" x2="937.07" y2="333.44" gradientUnits="userSpaceOnUse"><stop offset="0.07" stop-color="#391d57"/><stop offset="0.23" stop-color="#582f75"/><stop offset="0.43" stop-color="#54376c"/><stop offset="0.84" stop-color="#52346e"/></linearGradient><linearGradient id="Degradado_sin_nombre_128" x1="497.52" y1="661.27" x2="497.52" y2="6.81" gradientUnits="userSpaceOnUse"><stop offset="0.07" stop-color="#341853"/><stop offset="0.15" stop-color="#3a1e58" stop-opacity="0.81"/><stop offset="0.33" stop-color="#452861" stop-opacity="0.45"/><stop offset="0.5" stop-color="#4d3068" stop-opacity="0.2"/><stop offset="0.67" stop-color="#51346c" stop-opacity="0.05"/><stop offset="0.84" stop-color="#53366d" stop-opacity="0"/></linearGradient><linearGradient id="Degradado_sin_nombre_47" y1="462.79" x2="57.97" y2="462.79" gradientUnits="userSpaceOnUse"><stop offset="0" stop-color="#6a6a6b"/><stop offset="0.56" stop-color="#cbccca"/><stop offset="1" stop-color="#6a6a6b"/></linearGradient></defs><g id="Capa_2" data-name="Capa 2"><g id="_Layer_" data-name="&lt;Layer&gt;"><path class="cls-1" d="M58,614.49c306.14-187.24,573,179,879.1-8.23-50.13-15.58-85.15-64.77-109.66-121.69a95.84,95.84,0,0,1-4.53-13.08c-24.2-90.81-24.61-125,28-213.06,18.69-31.26,41.12-71,78-127.51-126.65,17.37-223.15,4.47-285.54-9.27C463.13,82,383.44-5.41,232.21,6.75,154.52,13,93.89,42.62,58,63.81Z"/><path class="cls-2" d="M58,614.49c306.14-187.24,573,179,879.1-8.23-44.91-14-76.73-54-101.43-103.17a266.35,266.35,0,0,1-24-71.87c-9.81-54-8.61-94.14,33.49-163.23,19.91-32.69,43-74.6,83.74-137.07-16.23,2.34-40.89,5.38-71,7-51.61,2.75-179,8.31-311.3-44C512,80.28,492.39,68.7,430.44,45.78c-38.37-14.19-70.5-24.43-92.19-31C298,6.72,225.76-1.59,143.7,24.33A378.43,378.43,0,0,0,58,63.81Z"/><path class="cls-3" d="M174.23,249.24l8.16-.58,8.73,3.68,5,4.71-.8,6.89.8,5.4-.34,13.56.69,8.15-9.65,8.85-8.16-.57-4.48.8L160,297.83l-7.69.58-6.78-10.92-.23-15.05,1.61-3.9,6.66.46,6.2-.81,3.34,2.3-.23,9.54,2.64,2.06h7.12l3.1-6.31.35-7.82-4.6-5.74-9.76-.92-4.6-2.76-7.35-3.1-.92-12.18,1.26-13.21-.34-7.92,9.65-8.5,10.45-.35a1.94,1.94,0,0,1,.92-.06l2,.18c.76.07,1.55.13,2.35.17s1.51.06,2.13.06l8,.23,3.9-.23a3.62,3.62,0,0,1,1.15,1.09l1.9,2.3c.72.88,1.47,1.81,2.24,2.81s1.45,1.84,2.07,2.53v5.17l.8,1.6v5.63l.57,3.34-6.43,2.06-7-2.06L184,234l.69-3.1-3.79-3.33-4.82.23-5.75-.58-2.29,3.1,1,8.39.46,4-.23,4.25Z"/><path class="cls-3" d="M256.83,213.74l5.4.35V219l.69,4.93v4.6l-.69,4.94.69,5.05-.35,4.6.69,4.94-.34,4.71v4.82l.34,4.94.34,4.71.35,4.94v4.6l.34,5.05v4.94l-.34,4.48-2.87,3-3.1,2.41-3,3.22-4.48-.34-4.6.68-4.71-.34h-23l-3.33-3.22-3.45-2.06-3.22-3.34v-4.82l.35-4.6.69-5.05-.35-4.94,1-4.6-.69-5,.69-4.6V252.8l.69-4.71.45-4.94v-4.94l-.8-4.71.35-4.94.8-4.6L211.1,219l.69-4.25,4.25-.69,9.2.69,4.71-.69V219l.34,4.93v4.94l.34,4.94v5.06l-.34,4.94.69,4.94v5.05l.34,4.6-.34,4.82v5.06l.69,4.94.34,4.59,2.19,3H238l3.9-.46,3-2.18.69-4.94-.35-4.94v-5.06l.35-4.82.34-4.94-.34-5.06,1-4.59-.69-4.94.69-5.06.35-4.94L246.6,224l.69-4.93-.69-4.94,5.29.34Z"/><path class="cls-3" d="M327.82,272l.58,4.94.57,4.48.58,5.06v5.05l-4.6,3.34-4.36,4.48-4.6-.58-4.94.58h-9l-5,.57-4.6-.57-4.37.57-4.48-.57-3.33-2.76-3.44-3.45-3.33-2.18.57-5.06V271.29l.57-4.47v-5.06l.46-4.94.58-4.59v-5.06l-.58-4.94.58-4.59.57-4.94v-9.65l4-3.22,3.33-3.33,3.34-2.87h11.25l5.06.46,5.51-.46,5.63-.58,6.78,6.78,3.79,3.22v4.59l.69,5.06v4.94l.46,2.06h-3.68l-2.64.69-9.76-.57.46-4.94v-5.06L307,227.64l-6.66-.57-2.76,2.75-.57,5.63.57,5.06-.57,5.05v15.63l.57,7.92-1.15,4.94v5.63l3.33,2.18h7.81l2.88-2.18v-8.61l4.36-.58,5.86.58,4-.58,3.1,1.26Z"/><path class="cls-3" d="M358.72,285.08v5.51l-.8,6.32-2.41,3-5.17-.8-5.29.8-4.82-1.49-2.64-3.91V286l3.21-3.91h15.28Z"/><path class="cls-3" d="M445.23,229l1.38,10.11v15.51l.8,5.05v4.71l.69,5.06v5.05l.69,4.83-.69,5.05v4.83l.69,5.85v4.26l-5.06.57-5.51-.57-5.06.57V285.19l-.68-5.05v-4.82H420.41v4.82l-.69,5.05V290l-.8,5.05.8,4.83-5.51-.57-5.86.57-4.82-.57-5.75.57v-5.63l.69-5,.81-4.83v-20l.69-4.71.68-5.86L400,249l.68-5.06v-9.88l.69-5v-4.83l.81-5.05-.81-4.82,4.83-.69h5.05l5.06.69h4.82l5.06-.69h4.13l5.06.69,5-.69h4.83Zm-19.76,24.81,5.51.81V244l-.69-4.82v-5.74l-.69-4.83-4.13-.69-5.06.69v10.57l-.69,4.82V249l-.8,5.63Z"/><path class="cls-3" d="M488.77,278.88l.91-2.19-.46-1.95.46-2.07-.46-2.06.92-3.91v-2.18l.81-1.61v-4.14l.46-3.9-.46-4.14.69-2.07V246.6l.92-11.84.8-1.95-.8-2.07.34-2.06.46-1.61v-2l.46-2.06v-2.19l.34-2V217l-.34-2.42h2.41l1.95.24h1.61l2.53-.24,1.61.24h6.55v3.33l-.81,2.06L508,229.94v1.95l.46,2.07v2.18l-1.15,2,.35,2.06-.35,2v2.06l-.92,1.61-.8,8.16-.35,2v2.18l.35,2-.69,1.61v4.13l-1.27,6.09v2.07l.35,1.95-1.38,1.72.46,2.53-2.41,14.13-.81,2.07.35,2-.69,1.61h-35l.46-2.87-.8-1.5v-1.95l-2.53-13.44.46-2.3v-1.95l-.69-1.61v-4l-.46-2.07-.92-1.95.35-2.18-.81-2.07V260l-.46-1.5-.34-2.18v-2l-.35-2v-6.2l-2.41-17.81-1.26-1.72-.46-2.07.92-2-.92-2.18-.81-4v-2l2.07-.45,2.07.69,1.49-.24,2.3.24h11.14l2.64-.24v3.91l.35,2.07v2.18l.8,8,.46,2.07.46,1.49v2.3l.35,2v2l.69,2.06-.69,2.07.34,2,.81,5.85.46,2-.46,2,.91,2.18-.45,2,.8,1.95.46,2.07v1.72l.23,1.95.46,2.07-.46,2.07.46,1.95.46,2.07v2.87Z"/><path class="cls-3" d="M538.51,285.08v5.51l-.81,6.32-2.41,3-5.17-.8-5.28.8L520,298.41l-2.64-3.91V286l3.21-3.91h15.28Z"/><path class="cls-4" d="M221.06,431.75V439l-6.58,4.78-6.26,6.42-6.59-.82-7.08.82H181.7l-7.25.83-6.59-.83-6.26.83-6.42-.83-4.78-3.95-4.94-4.94-4.77-3.13.82-7.25V410l.82-6.43v-7.25l.66-7.08.83-6.59v-7.24l-.83-7.09.83-6.58.82-7.09V340.83l5.76-4.61,4.78-4.78,4.78-4.12H176.1l7.25.66,7.9-.66,8.07-.82,9.72,9.72,5.44,4.61v6.59l1,7.24v7.09l.66,3h-5.27l-3.79,1-14-.82.66-7.09v-7.24l-4.94-3.13h-.16l-9.39-.83-3.95,4-.83,8.07.83,7.24-.83,7.25v22.4l.83,11.37L173.63,414V422l4.78,3.13h11.2l4.11-3.13v-16l-7.9-1.32v-5.1l-1-6.42,1.32-7.75L200,384.15l8.4.82,5.77-.82,4.44,1.81v.33l.17,8.23,1.65,6.92.16,4.28-1.15,12.36.82,6.42Z"/><path class="cls-4" d="M318.08,449.21c.22.44,0,.68-.58.74a3,3,0,0,0-1.4.41l-6.26,1.32c-.22.33-.71.41-1.48.24a10,10,0,0,0-2-.24l-5.27-.33-9.56-.83-7.9.5-1-6.43L280,434.05l-2.47-7.74V414.62L273.77,411l-2.47-6.26-1.31-4-2.48.33v6.26l1,7.25v29.15l1,7.25h-7.25L255,452l-6.26-1h-14.5v-7.25l1-7.25V421.86l1.15-7.24V392.88l4.78-7.09-3.79-7.41V356.64l1-7.25V342l1.15-7.08v-7.41l7.09,1.15,8.4-1.15h8.23v.33h.83a3.6,3.6,0,0,0,1.48.08c.76-.06,1.7-.14,2.8-.25l3.29-.33c1.1-.11,2.09-.16,3-.16l8.89-.5,6.1,2.64L300,333.25l5.77,4.78,4.28,8.56,1.65,7.74-1.32,8.24c0,.22,0,1,.08,2.31s.11,2.77.17,4.36.1,3.05.16,4.37a7.86,7.86,0,0,1-.08,2.3,12.42,12.42,0,0,0-.66,3,10.51,10.51,0,0,1-1.48,4.2l-4.78,6.09-6.42,4.12,2.14,6.26,3,7.25c.22.55.58,1.4,1.07,2.55s1,2.17,1.4,3.05l1.32,9.38L312,433.39l2.47,9.23ZM282,362.57a3.12,3.12,0,0,0,.08-1.4c-.06-.71-.14-1.48-.25-2.31s-.19-1.59-.24-2.3-.09-1.24-.09-1.57a2.86,2.86,0,0,0-1.81-2.8,43.13,43.13,0,0,0-6.91-2l-5.44.49-2.14.17-.83,5.76,1,7.25v7.24l1,7.25-.33,2.8h4.78l5.6.33,3.46-2.3,1.81-5.6V372l-1.15-5.44Z"/><path class="cls-4" d="M354.48,451l-7.25,1L341,451H326.48v-7.25l1-7.25V421.86l1.15-7.24v-29l1-7.25V356.64l1-7.25V342l1.15-7.08v-7.41l7.08,1.15,8.4-1.15h8.24V342l2.14,7.41-1,7.25,1,7.25v7.24l1,7.25-1,7.25,1,7.25,1.15,7.24v7.25l1,7.25v29.15l1,7.25Z"/><path class="cls-4" d="M455.28,431.75V439l-6.59,4.78-6.25,6.42-6.59-.82-7.08.82H415.92l-7.25.83-6.59-.83-6.26.83-6.42-.83-4.78-3.95-4.94-4.94-4.77-3.13.82-7.25V410l.82-6.43v-7.25l.66-7.08.82-6.59v-7.24l-.82-7.09.82-6.58.83-7.09V340.83l5.76-4.61,4.78-4.78,4.78-4.12h16.14l7.24.66,7.91-.66,8.07-.82,9.72,9.72,5.43,4.61v6.59l1,7.24v7.09l.66,3h-5.27l-3.79,1-14-.82.66-7.09v-7.24L423,347.42h-.16l-9.39-.83-4,4-.82,8.07.82,7.24-.82,7.25v22.4l.82,11.37L407.85,414V422l4.77,3.13h11.2l4.12-3.13v-16l-7.9-1.32v-5.1l-1-6.42,1.32-7.75,13.83-1.31,8.4.82,5.77-.82,4.44,1.81v.33l.17,8.23,1.64,6.92.17,4.28-1.15,12.36.82,6.42Z"/><path class="cls-4" d="M536,450.19l-6.59-.82-7.08.82H509.47l-7.24.83-6.59-.83-6.26.83-6.42-.83-4.78-3.95-4.94-4.94-4.78-3.13.83-7.25V410l.82-6.43v-7.25l.66-7.08.82-6.59v-7.24l-.82-7.09.82-6.58.82-7.09V340.83l5.77-4.61,4.78-4.78,4.77-4.12h16.14l7.25.66,7.91-.66,8.07-.82,9.72,9.72,5.43,4.61v6.59l1,7.24v7.09l1.65,6.58v14.33l.82,7.42.66,6.25.82,7.25-.82,7.41.82,7.09.83,6.42.82,7.25V439l-6.59,4.78ZM521.5,422V406.88l-.83-11.37.83-8.07.82-7.08-1.65-7.25v-7.25l.83-8.07v-7.24l-4.94-3.13-9.56-.83-3.95,4-.82,8.07.82,7.24-.82,7.25v22.4l.82,11.37L501.4,414V422l4.78,3.13h11.2Z"/><path class="cls-4" d="M639.76,336.87v9.39l-6.92.33H611.76l.82,2.8-1,7.25,1,7.25v7.24l1,7.25-1,7.25,1,7.25,1.15,7.24v7.25l-.65,7.25,1.64,7.24v21.91l1,7.25h-7.25l-7.24,1L596,451h-14.5v-7.25l1-7.25V421.86l1.15-7.24v-29l1-7.25,2-7.25-2-7.24v-7.25l1-7.25v-3l-4,.16-27.18.83V343l-.66-6.42,1.15-4.62-.49-4.44,5.93.33h21.74l8.4,1,9.88-1.64,6.43.16,3.46.17h.16l6.59.33,21.91-.17.49,4.61Z"/><path class="cls-4" d="M716,349.39l2,14.5v22.23l1.15,7.25v6.75l1,7.25v7.25l1,6.92-1,7.24v6.92l1,8.4v6.09l-7.24.83-7.91-.83-7.25.83V429.94l-1-7.25v-6.92h-17.3v6.92l-1,7.25v6.91l-1.15,7.25,1.15,6.92-7.9-.83-8.4.83-6.92-.83L648,451V443l1-7.25,1.15-6.92V400.12l1-6.75,1-8.4-1-6.92,1-7.24V356.64l1-7.25v-6.91l1.15-7.25-1.15-6.92,6.92-1h7.24l7.25,1h6.92l7.25-1h5.93l7.24,1,7.25-1H716ZM687.69,385l7.9,1.15V370.81l-1-6.92v-8.24l-1-6.92-5.93-1-7.25,1v15.16l-1,6.92v7.24l-1.15,8.07Z"/><rect class="cls-5" width="57.97" height="925.59"/></g></g></svg>