<svg xmlns="http://www.w3.org/2000/svg" xmlns:xlink="http://www.w3.org/1999/xlink" viewBox="0 0 937.07 925.59"><defs><style>.cls-1{fill:url(#Degradado_sin_nombre_120);}.cls-2{fill:url(#Degradado_sin_nombre_128);}.cls-3{fill:#f7ac00;}.cls-4{fill:#fff;}.cls-5{fill:url(#Degradado_sin_nombre_47);}</style><linearGradient id="Degradado_sin_nombre_120" x1="57.97" y1="333.44" x2="937.07" y2="333.44" gradientUnits="userSpaceOnUse"><stop offset="0.07" stop-color="#391d57"/><stop offset="0.23" stop-color="#582f75"/><stop offset="0.43" stop-color="#54376c"/><stop offset="0.84" stop-color="#52346e"/></linearGradient><linearGradient id="Degradado_sin_nombre_128" x1="497.52" y1="661.27" x2="497.52" y2="6.81" gradientUnits="userSpaceOnUse"><stop offset="0.07" stop-color="#341853"/><stop offset="0.15" stop-color="#3a1e58" stop-opacity="0.81"/><stop offset="0.33" stop-color="#452861" stop-opacity="0.45"/><stop offset="0.5" stop-color="#4d3068" stop-opacity="0.2"/><stop offset="0.67" stop-color="#51346c" stop-opacity="0.05"/><stop offset="0.84" stop-color="#53366d" stop-opacity="0"/></linearGradient><linearGradient id="Degradado_sin_nombre_47" y1="462.79" x2="57.97" y2="462.79" gradientUnits="userSpaceOnUse"><stop offset="0" stop-color="#6a6a6b"/><stop offset="0.56" stop-color="#cbccca"/><stop offset="1" stop-color="#6a6a6b"/></linearGradient></defs><g id="Capa_2" data-name="Capa 2"><g id="_Layer_" data-name="&lt;Layer&gt;"><path class="cls-1" d="M58,614.49c306.14-187.24,573,179,879.1-8.23-50.13-15.58-85.15-64.77-109.66-121.69a95.84,95.84,0,0,1-4.53-13.08c-24.2-90.81-24.61-125,28-213.06,18.69-31.26,41.12-71,78-127.51-126.65,17.37-223.15,4.47-285.54-9.27C463.13,82,383.44-5.41,232.21,6.75,154.52,13,93.89,42.62,58,63.81Z"/><path class="cls-2" d="M58,614.49c306.14-187.24,573,179,879.1-8.23-44.91-14-76.73-54-101.43-103.17a266.35,266.35,0,0,1-24-71.87c-9.81-54-8.61-94.14,33.49-163.23,19.91-32.69,43-74.6,83.74-137.07-16.23,2.34-40.89,5.38-71,7-51.61,2.75-179,8.31-311.3-44C512,80.28,492.39,68.7,430.44,45.78c-38.37-14.19-70.5-24.43-92.19-31C298,6.72,225.76-1.59,143.7,24.33A378.43,378.43,0,0,0,58,63.81Z"/><path class="cls-3" d="M154.57,246.58l7.93-.56,8.5,3.58,4.92,4.58-.78,6.71.78,5.25-.34,13.19.67,7.94-9.39,8.61-7.93-.56-4.36.78-13.86-2.23-7.49.56-6.6-10.62-.22-14.65,1.56-3.8,6.49.45,6-.79,3.24,2.24-.22,9.28,2.57,2H153l3-6.15.34-7.6-4.48-5.59-9.5-.89-4.47-2.69-7.15-3-.9-11.85,1.23-12.86-.33-7.71,9.39-8.28,10.17-.33c.07-.07.37-.09.89-.06l1.9.17c.75.08,1.51.13,2.3.17s1.47,0,2.06,0l7.83.23,3.8-.23a3.74,3.74,0,0,1,1.12,1.07c.52.63,1.13,1.38,1.84,2.23s1.44,1.77,2.18,2.74,1.42,1.79,2,2.46v5L177,227v5.47l.56,3.25-6.26,2-6.82-2-.45-4,.67-3-3.69-3.24-4.69.22-5.59-.55-2.24,3,1,8.16.44,3.92-.22,4.13Z"/><path class="cls-3" d="M234.94,212l5.26.33v4.81l.67,4.81v4.47l-.67,4.8.67,4.92-.34,4.47.67,4.81-.33,4.58v4.7l.33,4.81.34,4.58.33,4.81v4.47l.34,4.92v4.8l-.34,4.36-2.79,2.91-3,2.35-2.9,3.13-4.36-.34-4.48.67-4.58-.33H197.38l-3.24-3.13-3.35-2-3.13-3.25V282.8l.33-4.47.67-4.92-.33-4.81,1-4.47-.67-4.92.67-4.47V250l.67-4.58.45-4.81v-4.8l-.78-4.59.33-4.8.79-4.47-.34-4.81.67-4.14,4.14-.67,8.94.67,4.59-.67v4.81l.33,4.81v4.8l.34,4.81v4.92l-.34,4.81.67,4.8v4.92l.34,4.47-.34,4.7v4.92l.67,4.8.34,4.48,2.12,2.9h3.69l3.8-.45,2.91-2.12.67-4.81-.34-4.8v-4.92l.34-4.7.33-4.8L224,245.8l1-4.47-.67-4.81.67-4.92.34-4.81L225,222l.68-4.81-.68-4.81,5.15.34Z"/><path class="cls-3" d="M304,268.71l.56,4.81.56,4.36.56,4.92v4.92L301.24,291,297,295.32l-4.47-.56-4.81.56H279l-4.92.56-4.47-.56-4.25.56-4.36-.56-3.24-2.68-3.35-3.36-3.25-2.12.56-4.92V268l.56-4.36v-4.92l.45-4.8.56-4.47v-4.92l-.56-4.81.56-4.47.56-4.81v-9.39l3.91-3.13,3.24-3.24,3.24-2.8h11l4.92.45,5.36-.45,5.48-.55,6.6,6.59,3.69,3.13v4.47l.67,4.92v4.81l.44,2h-3.57l-2.57.67-9.51-.56.45-4.8v-4.92l-3.35-2.13-6.49-.56-2.68,2.69-.56,5.47.56,4.92-.56,4.92v15.21l.56,7.71-1.12,4.81v5.47l3.24,2.13h7.61l2.79-2.13v-8.38l4.25-.56,5.7.56,3.91-.56,3,1.23Z"/><path class="cls-3" d="M334.1,281.46v5.36l-.78,6.15L331,295.88l-5-.78-5.14.78-4.7-1.45-2.57-3.81v-8.27l3.13-3.8h14.87Z"/><path class="cls-4" d="M184.91,332.77v7.78l-5.74.27H161.71l.68,2.32-.82,6,.82,6v6l.82,6-.82,6,.82,6,1,6v6l-.55,6,1.36,6v18.15l.82,6h-6l-6,.82-5.18-.82h-12v-6l.82-6V403.18l1-6v-24l.82-6,1.64-6-1.64-6v-6l.82-6v-2.45l-3.27.13-22.52.68v-3.68l-.54-5.32.95-3.82-.41-3.69,4.92.28h18l7,.82,8.18-1.37,5.33.14,2.86.13h.14l5.46.28,18.14-.14.41,3.82Z"/><path class="cls-4" d="M261.18,425.83c.18.37,0,.57-.48.62a2.49,2.49,0,0,0-1.16.34l-5.18,1.09c-.19.27-.6.34-1.23.2a8.44,8.44,0,0,0-1.64-.2l-4.37-.27-7.91-.69-6.55.41-.82-5.32-2.18-8.73-2-6.42v-9.68l-3.14-3-2-5.18-1.09-3.28-2.05.28v5.18l.82,6v24.15l.82,6h-6l-6,.82-5.19-.82h-12v-6l.81-6V403.18l1-6v-18l4-5.86-3.14-6.14v-18l.82-6V337l1-5.87V325l5.87,1,7-1h6.82v.28h.68a2.91,2.91,0,0,0,1.23.06c.64,0,1.41-.11,2.32-.2l2.73-.27c.91-.09,1.73-.14,2.46-.14l7.36-.41,5,2.18,8.6,3.28,4.78,4,3.54,7.09,1.37,6.42-1.09,6.82c0,.18,0,.82.06,1.91s.09,2.3.14,3.61.09,2.53.14,3.62a6.56,6.56,0,0,1-.07,1.91,10.19,10.19,0,0,0-.55,2.52,8.64,8.64,0,0,1-1.22,3.48l-4,5.05L244,379.57l1.77,5.19,2.46,6c.18.46.47,1.16.88,2.12s.8,1.8,1.16,2.52l1.1,7.78,4.77,9.55,2.05,7.64ZM231.3,354.06a2.75,2.75,0,0,0,.07-1.16c-.05-.59-.12-1.23-.21-1.91s-.16-1.32-.2-1.91-.07-1-.07-1.3a2.37,2.37,0,0,0-1.5-2.32,36,36,0,0,0-5.73-1.64l-4.51.41-1.77.14-.68,4.78.82,6v6l.81,6-.27,2.32h4l4.64.27,2.86-1.91,1.5-4.64v-1.36l-1-4.51Z"/><path class="cls-4" d="M322.72,426.65l-5.46-.68-5.87.68H300.75l-6,.68-5.46-.68-5.19.68-5.32-.68-4-3.27-4.09-4.1-4-2.59.69-6V393.36l.68-5.33v-6l.54-5.87.69-5.46v-6l-.69-5.87.69-5.45.68-5.87V336.05l4.77-3.82,4-4,4-3.41h13.37l6,.54,6.55-.54,6.69-.69,8,8.06,4.5,3.82v5.45l.82,6v5.87l1.37,5.45V370.7l.68,6.14.54,5.19.69,6-.69,6.14L332,400l.68,5.32.68,6v6l-5.46,4Zm-12-23.33V390.76l-.68-9.41.68-6.69.68-5.87-1.36-6v-6l.68-6.69v-6l-4.09-2.6-7.92-.68-3.27,3.28-.68,6.68.68,6-.68,6v18.56l.68,9.41-1.37,5.87v6.69l4,2.59h9.28Z"/><path class="cls-4" d="M419.87,426.65l-6.41.68-5.6-.68v-6.14l.69-6.28V396l.54-6.28.68-6.28v-6.27l-12,10.64H385.35l-11.87-10.64v5.59l.54,5.05v11.33l1.23,5.59-.54,5.73,1.22,5v5.6l.69,6.27h-6.28l-5.87-.68h-5.59l-6.28.68-4.91-1.23v-5l-.68-6.28,1.22-5.6v-6.41l.69-6.28-.69-5.59v-6.28l1.23-5.59-.54-6.28.54-5.59.68-6.28V343.14l1.23-6.28-.54-5.59V325l6.82-.54,6.82,1.23,6.41-.69,2.6,5.6,3.14,5.05,2.45,5.05,1.91,5.59,3.14,5.05,1.77,5.59,2.87,4.78,2.87,5.46,3.13-5.05,1.78-5.73,2.59-5.05,3.14-5.05,2.46-5,1.91-5.59,2.45-5.6,2.59-5.59h7l6.83,1.23,6.27-.69v6.28l1.37,5.59-.69,6.28.69,5.73V355l.54,6.42.68,5.73v6.14l.55,5.73V390.9l.68,6.28v5.59l.55,6.41.68,5.6v6.28l-.68,5-10.64,1.23Z"/><path class="cls-4" d="M511.57,382.58l-1.78,5.32L506,391l-4.64,3.13-8.87-.4L487,393l-11.47.54.55,3.69v24.15l.82,6h-6l-6,.82-5.18-.82h-12v-6l.82-6V403.18l1-6v-24l.82-6v-18l.82-6V337l1-5.87V325l5.86,1,7-1H471l3.28-.54,9.82,1.23,9-1.64,6.27.27,7,4.64,2.73,5.19-.82,8.87,2.6,8.73-.28,20.19Zm-21.7-15.15-1.23-7.37v-7.64l-.54-7.91-1.91-2.87h-6.14l-5.32.68-1.23.82-.82,6v.13l.82,5.87v6l.68,3.55v1.5l.14,1v.27l2.18,1.36,5.32,1.37h5.6Z"/><path class="cls-4" d="M544.32,427.33l-6,.82-5.18-.82h-12v-6l.82-6V403.18l.95-6v-24l.82-6v-18l.82-6V337l1-5.87V325l5.86,1,7-1h6.82v12l1.78,6.14-.82,6,.82,6v6l.82,6-.82,6,.82,6,.95,6v6l.82,6v24.15l.82,6Z"/><path class="cls-4" d="M577.61,325h6l.28,5.87v5.87l1.5,6.14.41,5.87-.41,6.27,1.64,6v5.86l1.09,5.87-.55,6.14v5.87l.82,5.73V400l1.5,5.46,6-.27,6.28,1.23,5.87-1h12.42v9.55l-.55,6.55,1,5.73-5.87-.27-6.14.82-5.73-.82-6.42.82H584.84l-5.73-.55-6,.55h-6l-5.86-.55.54-5.73.27-6-.27-6.42.27-5.86v-5.87l.55-6.41v-6l1.36-5.87-.4-6,.4-6.28.41-5.86-.41-6,.41-5.73.55-6.41.27-6.14,1.09-5.87V325l5.46.55Z"/><path class="cls-4" d="M644.06,325h6l.27,5.87v5.87l1.5,6.14.41,5.87-.41,6.27,1.64,6v5.86l1.09,5.87-.55,6.14v5.87l.82,5.73V400l1.5,5.46,6-.27,6.27,1.23,5.87-1h12.42v9.55l-.55,6.55,1,5.73-5.87-.27-6.14.82-5.73-.82-6.41.82H651.29l-5.73-.55-6,.55h-6l-5.87-.55.54-5.73.28-6-.28-6.42.28-5.86v-5.87l.54-6.41v-6l1.37-5.87-.41-6,.41-6.28.41-5.86-.41-6,.41-5.73.54-6.41.27-6.14,1.1-5.87V325l5.45.55Z"/><path class="cls-4" d="M754.18,426.65l-5.46-.68-5.87.68H732.21l-6,.68-5.46-.68-5.19.68-5.32-.68-4-3.27-4.09-4.1-4-2.59.69-6V393.36l.68-5.33v-6l.54-5.87.69-5.46v-6l-.69-5.87.69-5.45.68-5.87V336.05l4.77-3.82,4-4,4-3.41h13.37l6,.54,6.55-.54,6.69-.69,8.05,8.06,4.5,3.82v5.45l.82,6v5.87l1.37,5.45V370.7l.68,6.14.54,5.19.69,6-.69,6.14.69,5.87.68,5.32.68,6v6l-5.46,4Zm-12-23.33V390.76l-.68-9.41.68-6.69.68-5.87-1.36-6v-6l.68-6.69v-6l-4.09-2.6-7.92-.68-3.27,3.28-.68,6.68.68,6-.68,6v18.56l.68,9.41-1.37,5.87v6.69l4,2.59h9.28Z"/><rect class="cls-5" width="57.97" height="925.59"/></g></g></svg>