<svg xmlns="http://www.w3.org/2000/svg" xmlns:xlink="http://www.w3.org/1999/xlink" viewBox="0 0 869.74 925.59"><defs><style>.cls-1{fill:url(#Degradado_sin_nombre_120);}.cls-2{fill:url(#Degradado_sin_nombre_128);}.cls-3{fill:#f7ac00;}.cls-4{fill:#fff;}.cls-5{fill:url(#Degradado_sin_nombre_47);}</style><linearGradient id="Degradado_sin_nombre_120" x1="57.97" y1="333.44" x2="869.74" y2="333.44" gradientUnits="userSpaceOnUse"><stop offset="0.07" stop-color="#391d57"/><stop offset="0.23" stop-color="#582f75"/><stop offset="0.43" stop-color="#54376c"/><stop offset="0.84" stop-color="#52346e"/></linearGradient><linearGradient id="Degradado_sin_nombre_128" x1="463.85" y1="661.27" x2="463.85" y2="6.81" gradientUnits="userSpaceOnUse"><stop offset="0.07" stop-color="#341853"/><stop offset="0.15" stop-color="#3a1e58" stop-opacity="0.81"/><stop offset="0.33" stop-color="#452861" stop-opacity="0.45"/><stop offset="0.5" stop-color="#4d3068" stop-opacity="0.2"/><stop offset="0.67" stop-color="#51346c" stop-opacity="0.05"/><stop offset="0.84" stop-color="#53366d" stop-opacity="0"/></linearGradient><linearGradient id="Degradado_sin_nombre_47" y1="462.79" x2="57.97" y2="462.79" gradientUnits="userSpaceOnUse"><stop offset="0" stop-color="#6a6a6b"/><stop offset="0.56" stop-color="#cbccca"/><stop offset="1" stop-color="#6a6a6b"/></linearGradient></defs><g id="Capa_2" data-name="Capa 2"><g id="_Layer_" data-name="&lt;Layer&gt;"><path class="cls-1" d="M58,614.49c306.14-187.24,505.63,179,811.77-8.23-50.13-15.58-85.15-64.77-109.66-121.69a94.5,94.5,0,0,1-4.53-13.08c-24.2-90.81-24.61-125,28.05-213.06,18.69-31.26,41.12-71,78-127.51-126.66,17.37-155.82,4.47-218.21-9.27C463.13,82,383.44-5.41,232.21,6.75,154.52,13,93.89,42.62,58,63.81Z"/><path class="cls-2" d="M58,614.49c306.14-187.24,505.63,179,811.77-8.23-44.91-14-76.73-54-101.44-103.17a266.33,266.33,0,0,1-23.95-71.87c-9.81-54-8.61-94.14,33.48-163.23,19.92-32.69,43-74.6,83.75-137.07-16.23,2.34-40.89,5.38-71,7-51.6,2.75-111.66,8.31-244-44C512,80.28,492.39,68.7,430.44,45.78c-38.37-14.19-70.5-24.43-92.19-31C298,6.72,225.76-1.59,143.7,24.33A378.43,378.43,0,0,0,58,63.81Z"/><path class="cls-3" d="M202.69,224.41l7.47-.53,8,3.37,4.63,4.32-.74,6.32.74,5-.31,12.43.63,7.48-8.85,8.11-7.48-.53-4.1.74L189.63,269l-7.06.53-6.21-10-.21-13.8,1.47-3.58,6.11.43,5.69-.74,3.05,2.1-.21,8.75,2.42,1.89h6.53l2.84-5.79.32-7.16-4.21-5.27-8.95-.84L187,232.94l-6.74-2.84-.84-11.17,1.16-12.11-.32-7.27,8.85-7.79,9.58-.32a1.84,1.84,0,0,1,.85-.05l1.79.16c.7.07,1.42.12,2.16.16s1.38,0,1.94,0l7.38.21,3.58-.21a3.54,3.54,0,0,1,1.05,1l1.74,2.11c.67.81,1.35,1.67,2.05,2.58s1.34,1.68,1.9,2.32v4.73l.74,1.48v5.16l.52,3.05-5.9,1.9-6.42-1.9-.42-3.79.63-2.84-3.48-3.06-4.42.22-5.26-.53L197,207l.95,7.69.42,3.69-.21,3.89Z"/><path class="cls-3" d="M278.41,191.87l4.95.31v4.53l.63,4.53v4.21l-.63,4.53.63,4.64-.31,4.21.63,4.53-.32,4.31v4.43l.32,4.53.31,4.32.32,4.52v4.22l.32,4.63v4.53l-.32,4.11-2.63,2.74-2.85,2.21-2.74,2.95-4.1-.32-4.22.63-4.31-.31H243L240,267.91l-3.16-1.9L233.86,263v-4.43l.32-4.21.63-4.63-.32-4.53.95-4.21-.63-4.64.63-4.21v-4.43l.63-4.31.42-4.53V214.3l-.73-4.32.31-4.53.74-4.21-.32-4.53.63-3.9,3.9-.63,8.43.63,4.32-.63v4.53l.31,4.53v4.53l.32,4.53v4.63l-.32,4.53.63,4.53v4.63l.32,4.22-.32,4.42v4.63l.64,4.53.31,4.21,2,2.74h3.48l3.58-.42,2.74-2,.63-4.53-.32-4.53v-4.63l.32-4.42.31-4.53-.31-4.64,1-4.21-.64-4.53.64-4.63.31-4.53-.31-4.53.63-4.53-.63-4.53,4.84.32Z"/><path class="cls-3" d="M343.5,245.26l.52,4.53.53,4.11.53,4.63v4.64l-4.22,3.05-4,4.11-4.21-.53-4.53.53h-8.21l-4.64.53-4.21-.53-4,.53-4.11-.53-3.05-2.53-3.16-3.16-3.06-2,.53-4.63V244.63l.53-4.11v-4.63l.42-4.53.52-4.21v-4.64l-.52-4.52.52-4.22.53-4.53V200.4l3.69-3,3.05-3.06,3.06-2.63h10.32l4.63.42,5.06-.42,5.16-.53,6.21,6.22,3.47,3v4.21l.64,4.63v4.53l.42,1.9h-3.37l-2.42.63-9-.53.43-4.52v-4.64l-3.16-2-6.11-.53-2.53,2.53-.53,5.16.53,4.64-.53,4.63v14.32l.53,7.27-1.05,4.53v5.16l3.05,2H325l2.64-2v-7.9l4-.53,5.37.53,3.68-.53,2.85,1.16Z"/><path class="cls-3" d="M371.83,257.27v5.06l-.74,5.79-2.21,2.74-4.74-.74-4.84.74-4.43-1.37-2.42-3.58v-7.8l2.95-3.58h14Z"/><path class="cls-3" d="M451.13,205.87l1.27,9.27v14.22l.73,4.63v4.32l.64,4.64v4.63l.63,4.42-.63,4.64v4.42l.63,5.37v3.9l-4.63.53-5.06-.53-4.63.53V257.38l-.64-4.64v-4.42H428.38v4.42l-.63,4.64v4.42l-.73,4.63.73,4.43-5.05-.53-5.37.53-4.43-.53-5.26.53V265.7l.63-4.64.74-4.42V238.31l.63-4.32.63-5.37-.63-4.42.63-4.63v-9.06l.63-4.64v-4.42l.74-4.63-.74-4.43,4.43-.63H420l4.63.63H429l4.63-.63h3.79l4.64.63,4.63-.63h4.42ZM433,228.62l5.05.74v-9.79l-.63-4.43v-5.26l-.63-4.43-3.79-.63-4.64.63v9.69l-.63,4.43v4.63l-.73,5.16Z"/><path class="cls-3" d="M491.05,251.58l.84-2-.42-1.79.42-1.89-.42-1.9.84-3.58v-2l.74-1.48v-3.79l.42-3.58-.42-3.79.63-1.9V222l.84-10.85.74-1.79-.74-1.9.32-1.89.42-1.48v-1.79l.42-1.89v-2l.32-1.79v-1.79l-.32-2.22h2.21l1.8.21h1.47l2.32-.21,1.47.21h6v3.06l-.73,1.89-1.58,9v1.79l.42,1.89v2L508,214.19l.31,1.9-.31,1.79v1.9l-.85,1.47-.73,7.48-.32,1.79v2l.32,1.79-.64,1.47v3.8l-1.16,5.58v1.89l.32,1.79-1.26,1.58.42,2.32-2.21,13-.74,1.89.32,1.79-.64,1.48H468.72l.42-2.64-.73-1.37v-1.79l-2.32-12.32.42-2.11v-1.79l-.63-1.47v-3.69l-.42-1.89-.85-1.79.32-2-.74-1.9v-1.79l-.42-1.37-.32-2v-1.79l-.31-1.79v-5.69l-2.21-16.32-1.16-1.58-.42-1.9.84-1.79-.84-2-.74-3.69V192.6l1.9-.42,1.89.63,1.37-.21,2.11.21h10.21l2.43-.21v3.58l.31,1.9v2l.74,7.37.42,1.9.42,1.37v2.1l.32,1.8v1.79l.63,1.89-.63,1.9L481,222l.74,5.37.42,1.79-.42,1.79.84,2-.42,1.79.74,1.79.42,1.9V240l.21,1.79.42,1.89-.42,1.9.42,1.79.42,1.9v2.63Z"/><path class="cls-3" d="M536.65,257.27v5.06l-.74,5.79-2.21,2.74-4.74-.74-4.84.74-4.43-1.37-2.42-3.58v-7.8l3-3.58h14Z"/><path class="cls-4" d="M259.61,386.66l-2.49,7.47-5.37,4.41L245.23,403l-12.46-.57-7.67-1.15L209,402l.77,5.18V441.1l1.15,8.44h-8.44L194,450.69l-7.28-1.15H169.89V441.1l1.15-8.43V415.61l1.34-8.44V373.43l1.15-8.44v-25.3l1.15-8.44v-8.62l1.34-8.25v-8.62l8.25,1.34,9.77-1.34h8.63l4.6-.77,13.81,1.72,12.65-2.3,8.82.39,9.78,6.52,3.83,7.28L255,331.06l3.64,12.27-.38,28.37Zm-30.48-21.28L227.4,355V344.29l-.76-11.12-2.69-4h-8.62l-7.48,1-1.73,1.15L205,339.69v.19l1.15,8.24v8.44l1,5v2.11l.19,1.34v.39l3.07,1.91,7.48,1.92h7.86Z"/><path class="cls-4" d="M305.62,449.54l-8.44,1.15-7.28-1.15H273V441.1l1.15-8.43V415.61l1.34-8.44V373.43l1.15-8.44v-25.3l1.15-8.44v-8.62l1.34-8.25v-8.62l8.25,1.34,9.77-1.34h9.59v16.87l2.49,8.62-1.15,8.44,1.15,8.43v8.44l1.15,8.43-1.15,8.44,1.15,8.43,1.34,8.44v8.43l1.15,8.44V441.1l1.15,8.44Z"/><path class="cls-4" d="M427,447.43c.26.51,0,.8-.67.86a3.66,3.66,0,0,0-1.63.48l-7.28,1.53c-.26.39-.84.48-1.73.29a11.33,11.33,0,0,0-2.3-.29l-6.13-.38-11.12-1-9.21.58-1.15-7.48-3.06-12.27-2.88-9V407.17L375.4,403l-2.87-7.28-1.54-4.6-2.87.38v7.28l1.15,8.44V441.1l1.15,8.44H362l-8.43,1.15-7.29-1.15H329.39V441.1l1.15-8.43V415.61l1.34-8.44V381.86l5.56-8.24L333,365v-25.3l1.16-8.44v-8.62l1.34-8.25v-8.62l8.24,1.34,9.78-1.34h9.58v.38h1a4.14,4.14,0,0,0,1.73.1c.89-.07,2-.16,3.26-.29l3.83-.39c1.28-.12,2.43-.19,3.45-.19l10.35-.57,7.1,3.06,12.07,4.61,6.71,5.56,5,10,1.92,9L418,346.59c0,.26,0,1.15.1,2.68s.12,3.23.19,5.08.12,3.55.19,5.08a9.53,9.53,0,0,1-.09,2.69,13.83,13.83,0,0,0-.77,3.55,12,12,0,0,1-1.73,4.88l-5.56,7.1-7.47,4.79,2.49,7.28,3.45,8.44c.25.64.67,1.63,1.25,3s1.11,2.53,1.62,3.55l1.54,10.93L419.88,429l2.87,10.73ZM385,346.59a3.78,3.78,0,0,0,.09-1.63c-.06-.83-.16-1.72-.28-2.68s-.23-1.85-.29-2.69-.1-1.44-.1-1.82a3.33,3.33,0,0,0-2.11-3.26,49,49,0,0,0-8.05-2.3l-6.32.58-2.5.19-1,6.71,1.15,8.43v8.44l1.15,8.43-.38,3.26H372l6.52.39,4-2.69,2.11-6.52v-1.91l-1.35-6.33Z"/><path class="cls-4" d="M515.92,331.25l2.3,16.87V374l1.35,8.44v7.86l1.15,8.43v8.44l1.15,8.05-1.15,8.44v8l1.15,9.78v7.09l-8.44,1-9.2-1-8.44,1V425l-1.15-8.44v-8.05H474.52v8.05L473.36,425v8.05L472,441.49l1.34,8.05-9.2-1-9.77,1-8.06-1-9.58,1v-9.4l1.15-8.43,1.34-8V390.3l1.15-7.86,1.15-9.78-1.15-8.05,1.15-8.43V339.69l1.15-8.44V323.2l1.34-8.43-1.34-8.06,8.05-1.15h8.44l8.43,1.15h8.06l8.43-1.15H491l8.44,1.15,8.43-1.15h8Zm-33,41.41,9.2,1.34V356.18L491,348.12v-9.58l-1.15-8.05-6.9-1.15-8.43,1.15v17.63l-1.16,8.06v8.43L472,374Z"/><path class="cls-4" d="M569.79,449.54l-8.43,1.15-7.29-1.15H537.2V441.1l1.15-8.43V415.61l1.35-8.44V373.43l1.15-8.44v-25.3l1.15-8.44v-8.62l1.34-8.25v-8.62l8.24,1.34,9.78-1.34h9.58v16.87l2.5,8.62-1.15,8.44,1.15,8.43v8.44l1.15,8.43-1.15,8.44,1.15,8.43,1.34,8.44v8.43l1.15,8.44V441.1l1.15,8.44Z"/><rect class="cls-5" width="57.97" height="925.59"/></g></g></svg>