<svg xmlns="http://www.w3.org/2000/svg" xmlns:xlink="http://www.w3.org/1999/xlink" viewBox="0 0 869.74 925.59"><defs><style>.cls-1{fill:url(#Degradado_sin_nombre_120);}.cls-2{fill:url(#Degradado_sin_nombre_128);}.cls-3{fill:#f7ac00;}.cls-4{fill:#fff;}.cls-5{fill:url(#Degradado_sin_nombre_47);}</style><linearGradient id="Degradado_sin_nombre_120" x1="57.97" y1="333.44" x2="869.74" y2="333.44" gradientUnits="userSpaceOnUse"><stop offset="0.07" stop-color="#391d57"/><stop offset="0.23" stop-color="#582f75"/><stop offset="0.43" stop-color="#54376c"/><stop offset="0.84" stop-color="#52346e"/></linearGradient><linearGradient id="Degradado_sin_nombre_128" x1="463.85" y1="661.27" x2="463.85" y2="6.81" gradientUnits="userSpaceOnUse"><stop offset="0.07" stop-color="#341853"/><stop offset="0.15" stop-color="#3a1e58" stop-opacity="0.81"/><stop offset="0.33" stop-color="#452861" stop-opacity="0.45"/><stop offset="0.5" stop-color="#4d3068" stop-opacity="0.2"/><stop offset="0.67" stop-color="#51346c" stop-opacity="0.05"/><stop offset="0.84" stop-color="#53366d" stop-opacity="0"/></linearGradient><linearGradient id="Degradado_sin_nombre_47" y1="462.79" x2="57.97" y2="462.79" gradientUnits="userSpaceOnUse"><stop offset="0" stop-color="#6a6a6b"/><stop offset="0.56" stop-color="#cbccca"/><stop offset="1" stop-color="#6a6a6b"/></linearGradient></defs><g id="Capa_2" data-name="Capa 2"><g id="_Layer_" data-name="&lt;Layer&gt;"><path class="cls-1" d="M58,614.49c306.14-187.24,505.63,179,811.77-8.23-50.13-15.58-85.15-64.77-109.66-121.69a94.5,94.5,0,0,1-4.53-13.08c-24.2-90.81-24.61-125,28.05-213.06,18.69-31.26,41.12-71,78-127.51-126.66,17.37-155.82,4.47-218.21-9.27C463.13,82,383.44-5.41,232.21,6.75,154.52,13,93.89,42.62,58,63.81Z"/><path class="cls-2" d="M58,614.49c306.14-187.24,505.63,179,811.77-8.23-44.91-14-76.73-54-101.44-103.17a266.33,266.33,0,0,1-23.95-71.87c-9.81-54-8.61-94.14,33.48-163.23,19.92-32.69,43-74.6,83.75-137.07-16.23,2.34-40.89,5.38-71,7-51.6,2.75-111.66,8.31-244-44C512,80.28,492.39,68.7,430.44,45.78c-38.37-14.19-70.5-24.43-92.19-31C298,6.72,225.76-1.59,143.7,24.33A378.43,378.43,0,0,0,58,63.81Z"/><path class="cls-3" d="M193.52,162.59l6.18-.44,6.62,2.79,3.83,3.57-.61,5.23.61,4.09-.26,10.28.53,6.19L203.1,201l-6.19-.43-3.39.61-10.8-1.75-5.84.44-5.14-8.27-.17-11.42,1.22-3,5.05.35,4.7-.61,2.53,1.74-.18,7.23,2,1.57h5.4l2.35-4.79.26-5.92-3.48-4.36-7.41-.69-3.48-2.09L175,167.29l-.69-9.23,1-10-.27-6,7.32-6.44,7.93-.26c0-.06.29-.08.69-.05l1.48.13c.58.06,1.18.11,1.79.13s1.15.05,1.61.05l6.1.17,3-.17a2.91,2.91,0,0,1,.87.83l1.44,1.74c.55.67,1.12,1.38,1.7,2.13s1.1,1.4,1.57,1.92v3.92l.61,1.22v4.26l.43,2.53-4.88,1.57-5.31-1.57-.35-3.13.52-2.36-2.87-2.52-3.66.17-4.35-.43-1.75,2.35.79,6.36.35,3-.18,3.22Z"/><path class="cls-3" d="M256.14,135.67l4.1.27v3.74l.52,3.75v3.48l-.52,3.75.52,3.83L260.5,158l.52,3.75-.26,3.57V169l.26,3.74.26,3.58.27,3.74v3.48l.26,3.84v3.74l-.26,3.4-2.18,2.26L257,198.56,254.75,201l-3.4-.26-3.48.52L244.3,201H226.88l-2.53-2.44L221.74,197l-2.44-2.53v-3.66l.26-3.48.52-3.84-.26-3.74.79-3.48-.53-3.84.53-3.48v-3.66l.52-3.57.35-3.75v-3.74l-.61-3.57.26-3.75.61-3.48-.26-3.75.52-3.22,3.22-.52,7,.52,3.57-.52v3.74l.26,3.75v3.74l.27,3.75v3.83L236,158.5l.53,3.74v3.83l.26,3.49-.26,3.66v3.83l.52,3.74.26,3.49,1.66,2.26h2.87l3-.35,2.27-1.65.52-3.75-.26-3.74v-3.83l.26-3.66.26-3.75-.26-3.83.78-3.48-.52-3.75.52-3.83.26-3.75-.26-3.74.53-3.75-.53-3.74,4,.26Z"/><path class="cls-3" d="M310,179.84l.43,3.74.44,3.4.43,3.83v3.83l-3.48,2.53-3.31,3.4-3.49-.44-3.74.44h-6.8l-3.83.43-3.48-.43-3.31.43-3.4-.43-2.53-2.09-2.61-2.62-2.52-1.65.43-3.83V179.31l.44-3.39v-3.84l.34-3.74.44-3.49V161l-.44-3.74.44-3.49.44-3.74v-7.32l3-2.44,2.53-2.52,2.53-2.18h8.53l3.84.35,4.18-.35,4.26-.44,5.14,5.14,2.88,2.44v3.48l.52,3.84v3.74l.35,1.57h-2.79l-2,.52-7.41-.43.35-3.75v-3.83l-2.61-1.66-5-.43-2.09,2.09-.44,4.27.44,3.83-.44,3.83v11.85l.44,6-.87,3.74v4.27l2.52,1.66h5.92l2.18-1.66v-6.53l3.31-.44,4.44.44,3.05-.44,2.36,1Z"/><path class="cls-3" d="M333.41,189.77V194l-.61,4.79L331,201l-3.92-.61-4,.61-3.66-1.13-2-3v-6.45l2.44-3H331.4Z"/><path class="cls-4" d="M199.58,272.33l10-.71,10.7,4.51,6.19,5.77-1,8.45,1,6.62-.42,15.21.85,11.4-11.83,10.84-10-.7-5.49,1-17.46-2.81-9.43.7-8.31-13.37-.28-18.45,2-4.79,8.17.57,7.6-1,4.08,2.82-.28,10.27,3.24,2.54h8.73l3.8-6.34.42-9.57-5.63-7-12-1.13-5.63-3.38-9-3.8L168.46,265l1.55-16.2-.42-9.71,11.83-10.42,12.81-.42c.09-.1.47-.12,1.13-.07s1.45.11,2.39.21,1.9.16,2.89.21,1.85.07,2.6.07l9.86.28,4.79-.28a4.51,4.51,0,0,1,1.4,1.34l2.33,2.81q1.33,1.62,2.74,3.45c.94,1.22,1.78,2.25,2.54,3.1v6.34l1,2v6.9l.71,4.08-7.89,2.53-8.59-2.53-.56-5.07.84-3.8-4.64-4.08-5.92.28-7-.71-2.81,3.8,1.27,10.28.56,4.93-.28,5.21Z"/><path class="cls-4" d="M296.6,247.55l1.69,12.39v19l1,6.19v5.77l.85,6.2v6.19l.84,5.92-.84,6.19v5.92l.84,7.18v5.21l-6.19.7-6.76-.7-6.2.7v-18l-.84-6.2v-5.91H266.18v5.91l-.84,6.2v5.91l-1,6.2,1,5.91-6.76-.7-7.18.7-5.92-.7-7,.7v-6.9l.85-6.19,1-5.92v-24.5l.85-5.77L242,278l-.84-5.91.84-6.2V253.74l.85-6.19v-5.92l1-6.19-1-5.92,5.91-.84h6.2l6.19.84H267l6.19-.84h5.07l6.2.84,6.19-.84h5.92ZM272.38,278l6.76,1v-13.1l-.85-5.91v-7l-.84-5.92-5.07-.84-6.2.84v13l-.84,5.91v6.2l-1,6.9Z"/><path class="cls-4" d="M387.28,334.28h-5.5l-5.63.85-4.93-.85h-8.45l-2.67.14-10.42-30.69-4.51-11.41-5.35-6.48.85,5.07v6.2l.84,6.19v24.93l.85,6.19h-6.2l-6.19.85-5.35-.85H312.23v-6.19l.84-6.2V309.5l1-6.2V278.52l.84-6.19V253.74l.85-6.19v-6.34l1-6.06v-6.33l6.06,1,6.61-1,.15-.42h8.3a8.7,8.7,0,0,0,.64,1.83,22.18,22.18,0,0,0,1.19,2.53l2.26,5.35,2.67,4.79,3.38,6.62,1.27,8,4.64,6.2,1.83,4.79L359.4,278l2.39,9v-8.59l.7-6.19V253.74l.85-6.19v-6.34l.84-6.06v-6.33l5.49,1,6.48-1h6.34v12.39l1.69,6.34-.85,6.19.85,6.2V266l.7,6.2-.7,6.19.7,6.2.85,6.19V297l.84,6.19v24.93Z"/><path class="cls-4" d="M467.82,236.84v8l-5.92.28h-18l.7,2.4-.84,6.19.84,6.2v6.19l.85,6.2-.85,6.19.85,6.2,1,6.19v6.2l-.56,6.19,1.41,6.2v18.73l.84,6.19h-6.19l-6.2.85-5.35-.85H418v-6.19l.85-6.2V309.5l1-6.2V278.52l.85-6.19,1.69-6.2-1.69-6.19v-6.2l.84-6.19V245l-3.38.14-23.23.71v-3.81l-.56-5.49,1-3.94-.42-3.8,5.07.28h18.58l7.18.84,8.45-1.4,5.49.14,3,.14h.14l5.63.28,18.73-.14.42,3.94Z"/><path class="cls-4" d="M533,247.55l1.69,12.39v19l1,6.19v5.77l.85,6.2v6.19l.84,5.92-.84,6.19v5.92l.84,7.18v5.21l-6.19.7-6.76-.7-6.2.7v-18l-.84-6.2v-5.91H502.59v5.91l-.84,6.2v5.91l-1,6.2,1,5.91-6.76-.7-7.18.7-5.92-.7-7,.7v-6.9l.85-6.19,1-5.92v-24.5l.85-5.77.84-7.18-.84-5.91.84-6.2V253.74l.85-6.19v-5.92l1-6.19-1-5.92,5.91-.84h6.2l6.19.84h5.92l6.19-.84h5.07l6.2.84,6.19-.84H533ZM508.79,278l6.76,1v-13.1l-.85-5.91v-7l-.84-5.92-5.07-.84-6.2.84v13l-.84,5.91v6.2l-1,6.9Z"/><path class="cls-4" d="M232.11,432.43l.7,6.05.7,5.5.71,6.19v6.2l-5.63,4.08-5.35,5.49-5.64-.7-6,.7h-11l-6.2.71-5.63-.71-5.35.71-5.49-.71-4.09-3.38-4.22-4.22-4.08-2.68.7-6.19V431.58l.7-5.49V419.9l.57-6.06.7-5.63V402l-.7-6.06.7-5.63.71-6.06V372.45l4.92-3.95,4.09-4.08L182,360.9h13.8l6.19.56,6.76-.56,6.9-.7,8.31,8.3,4.65,3.95v5.63l.84,6.19v6.06l.57,2.53h-4.51l-3.24.85-12-.71.57-6.05v-6.2l-4.23-2.67-8.17-.71-3.37,3.38-.71,6.9.71,6.2-.71,6.19v19.15l.71,9.72-1.41,6v6.9l4.08,2.68h9.58l3.52-2.68V431.3l5.35-.7,7.18.7,4.92-.7,3.81,1.55Z"/><path class="cls-4" d="M314.34,465.1c.19.37,0,.58-.5.63a2.71,2.71,0,0,0-1.19.35l-5.35,1.13c-.19.28-.61.35-1.27.21a8.32,8.32,0,0,0-1.69-.21l-4.5-.28-8.17-.71-6.76.43-.85-5.5-2.25-9-2.11-6.62v-10l-3.24-3.1-2.11-5.35-1.13-3.38-2.11.28v5.35l.85,6.2v24.92l.84,6.2h-6.19l-6.2.84-5.35-.84H242.67v-6.2l.84-6.2V441.72l1-6.19V416.94l4.08-6.05-3.24-6.34V386l.85-6.19v-6.34l1-6.05V361l6.06,1,7.18-1h7v.28h.7a2.88,2.88,0,0,0,1.27.07c.66,0,1.46-.11,2.39-.21l2.82-.28c.94-.09,1.78-.14,2.54-.14l7.6-.42,5.21,2.25,8.87,3.38,4.93,4.08,3.66,7.32,1.41,6.62-1.13,7c0,.19,0,.85.07,2s.09,2.38.14,3.74.09,2.6.14,3.73a6.6,6.6,0,0,1-.07,2,10.51,10.51,0,0,0-.56,2.6,8.83,8.83,0,0,1-1.27,3.59l-4.08,5.21-5.49,3.52,1.83,5.35,2.53,6.2c.19.47.49,1.2.92,2.18s.82,1.86,1.19,2.61l1.13,8,4.93,9.86,2.11,7.88ZM283.5,391a2.7,2.7,0,0,0,.07-1.19q-.07-.91-.21-2c-.09-.7-.16-1.35-.21-2s-.07-1.05-.07-1.33a2.45,2.45,0,0,0-1.55-2.4,35.81,35.81,0,0,0-5.91-1.69l-4.65.42-1.83.15-.7,4.92.84,6.2v6.19l.85,6.2-.29,2.39h4.09l4.78.29,3-2,1.55-4.78v-1.41l-1-4.65Z"/><path class="cls-4" d="M379.67,361l6.62.42v6.06l.84,6.05v5.64l-.84,6.05.84,6.2-.42,5.63.84,6.05-.42,5.78v5.91l.42,6.05.43,5.78.42,6v5.63l.42,6.2v6l-.42,5.49-3.52,3.67-3.8,2.95-3.66,3.95-5.5-.43-5.63.85-5.77-.42H332.36l-4.08-3.95-4.23-2.53-3.94-4.09v-5.91l.42-5.63.85-6.2-.43-6,1.27-5.63-.84-6.2.84-5.63v-5.91l.85-5.78.56-6.05V391l-1-5.77.43-6.05,1-5.64-.42-6.05.84-5.21,5.21-.85,11.27.85,5.77-.85v6.06l.42,6.05v6.06l.43,6.05v6.2l-.43,6.05L348,404v6.19l.42,5.63-.42,5.92v6.19l.84,6.06.42,5.63,2.68,3.66h4.65l4.78-.56L365,440l.84-6-.42-6.06v-6.19l.42-5.92.42-6.05-.42-6.2,1.27-5.63-.85-6.05.85-6.2.42-6.05-.42-6.06.84-6.05-.84-6.06,6.47.43Z"/><path class="cls-4" d="M456.13,457.07l.42,8.73A3.22,3.22,0,0,0,455,466c-.85.24-1.36.26-1.55.07a10.75,10.75,0,0,0-2.46-.14c-1.46,0-3.08.05-4.86.14s-3.43.14-4.93.14-2.3-.09-2.39-.28-.73-.26-1.62-.21-1.93.14-3.1.28-2.44.28-3.8.42l-3.45.36-16.34-.57-8.87.71,1-7,1.27-4.09,2-4.08,1.13-6.9,3.8-6.76.84-8.59,2.82-8.87.28-1.55-11.41,2.54-1.69-9.15-.14-8.73,14.93-3.81,3,.14L420.5,396v-6.34l3.94-8.87-4.92.14-5.21-.42-7,.57-3.38-.85a8,8,0,0,1-.14-1.83v-6.48l.14-5.07v-4.92l10.42,1.26,9.43-2.53,25.77,2.25,5.35-1.27.84,2.26-2.11,7.74-2,6.2-1.55,5.77-2.82,5.77-.14,6.34-1.26,4.93,9.85-2.82,1.55,9.86-1,8.73-14.37,5.21-1.4-.14-.29.84-4.78,12.39-.14,6.06-1.55,5.49q.56,0,2.46.21a8.88,8.88,0,0,0,3-.07l6.19-1.55L456,446.37l.14,3.52Z"/><rect class="cls-5" width="57.97" height="925.59"/></g></g></svg>