<svg xmlns="http://www.w3.org/2000/svg" xmlns:xlink="http://www.w3.org/1999/xlink" viewBox="0 0 937.07 925.59"><defs><style>.cls-1{fill:url(#Degradado_sin_nombre_120);}.cls-2{fill:url(#Degradado_sin_nombre_128);}.cls-3{fill:#f7ac00;}.cls-4{fill:#fff;}.cls-5{fill:url(#Degradado_sin_nombre_47);}</style><linearGradient id="Degradado_sin_nombre_120" x1="57.97" y1="333.44" x2="937.07" y2="333.44" gradientUnits="userSpaceOnUse"><stop offset="0.07" stop-color="#391d57"/><stop offset="0.23" stop-color="#582f75"/><stop offset="0.43" stop-color="#54376c"/><stop offset="0.84" stop-color="#52346e"/></linearGradient><linearGradient id="Degradado_sin_nombre_128" x1="497.52" y1="661.27" x2="497.52" y2="6.81" gradientUnits="userSpaceOnUse"><stop offset="0.07" stop-color="#341853"/><stop offset="0.15" stop-color="#3a1e58" stop-opacity="0.81"/><stop offset="0.33" stop-color="#452861" stop-opacity="0.45"/><stop offset="0.5" stop-color="#4d3068" stop-opacity="0.2"/><stop offset="0.67" stop-color="#51346c" stop-opacity="0.05"/><stop offset="0.84" stop-color="#53366d" stop-opacity="0"/></linearGradient><linearGradient id="Degradado_sin_nombre_47" y1="462.79" x2="57.97" y2="462.79" gradientUnits="userSpaceOnUse"><stop offset="0" stop-color="#6a6a6b"/><stop offset="0.56" stop-color="#cbccca"/><stop offset="1" stop-color="#6a6a6b"/></linearGradient></defs><g id="Capa_2" data-name="Capa 2"><g id="_Layer_" data-name="&lt;Layer&gt;"><path class="cls-1" d="M58,614.49c306.14-187.24,573,179,879.1-8.23-50.13-15.58-85.15-64.77-109.66-121.69a95.84,95.84,0,0,1-4.53-13.08c-24.2-90.81-24.61-125,28-213.06,18.69-31.26,41.12-71,78-127.51-126.65,17.37-223.15,4.47-285.54-9.27C463.13,82,383.44-5.41,232.21,6.75,154.52,13,93.89,42.62,58,63.81Z"/><path class="cls-2" d="M58,614.49c306.14-187.24,573,179,879.1-8.23-44.91-14-76.73-54-101.43-103.17a266.35,266.35,0,0,1-24-71.87c-9.81-54-8.61-94.14,33.49-163.23,19.91-32.69,43-74.6,83.74-137.07-16.23,2.34-40.89,5.38-71,7-51.61,2.75-179,8.31-311.3-44C512,80.28,492.39,68.7,430.44,45.78c-38.37-14.19-70.5-24.43-92.19-31C298,6.72,225.76-1.59,143.7,24.33A378.43,378.43,0,0,0,58,63.81Z"/><path class="cls-3" d="M166,173.28l7.25-.51L181,176l4.48,4.18-.71,6.12.71,4.79-.3,12,.61,7.24-8.57,7.85-7.24-.51-4,.71-12.64-2-6.84.51-6-9.68-.21-13.37,1.43-3.46,5.92.4,5.5-.71,3,2-.2,8.47,2.34,1.83h6.33l2.75-5.61.31-6.93-4.08-5.1-8.67-.82-4.08-2.45-6.53-2.75L143.42,168l1.13-11.73-.31-7,8.57-7.55,9.28-.3c.07-.07.34-.09.81-.05s1.06.08,1.74.15,1.38.12,2.09.15,1.34,0,1.89,0l7.14.21,3.46-.21a3.36,3.36,0,0,1,1,1l1.69,2c.64.79,1.3,1.62,2,2.5s1.29,1.63,1.83,2.25V154l.71,1.42v5l.51,3-5.71,1.83L175,163.39l-.41-3.67.62-2.76-3.37-3-4.28.2-5.1-.51-2,2.75.91,7.45.41,3.57-.2,3.77Z"/><path class="cls-3" d="M239.3,141.77l4.79.3v4.39l.61,4.38v4.08l-.61,4.39.61,4.49-.3,4.08.61,4.38-.31,4.18v4.29l.31,4.38.3,4.18.31,4.39v4.08l.31,4.49v4.38l-.31,4-2.55,2.65-2.75,2.14-2.66,2.86-4-.31-4.08.62-4.19-.31H205l-3-2.86L199,213.57l-2.86-3v-4.28l.31-4.08.61-4.49-.3-4.39.91-4.08-.61-4.48.61-4.08v-4.29l.61-4.18.41-4.38v-4.39l-.71-4.18.3-4.39.72-4.08-.31-4.38.61-3.78,3.78-.61,8.16.61,4.18-.61v4.39l.31,4.38v4.39l.3,4.38v4.49l-.3,4.39.61,4.38v4.49l.3,4.08-.3,4.28v4.49l.61,4.39.31,4.08,1.93,2.65h3.37l3.47-.41,2.65-1.94.61-4.38-.31-4.39v-4.49l.31-4.28.31-4.38-.31-4.49.92-4.08-.61-4.39.61-4.49.3-4.38-.3-4.39.61-4.38-.61-4.39,4.69.31Z"/><path class="cls-3" d="M302.33,193.48l.51,4.38.51,4,.51,4.49v4.49l-4.08,3-3.88,4-4.08-.51-4.38.51h-8l-4.49.51-4.08-.51-3.87.51-4-.51-3-2.45L257,212.24l-3-1.94.51-4.48v-13l.51-4V184.4l.4-4.39.51-4.08v-4.48l-.51-4.39L256,163l.51-4.39V150l3.57-2.86,3-3,3-2.55h10l4.49.41,4.9-.41,5-.51,6,6,3.37,2.86v4.08l.61,4.48V163l.41,1.84h-3.27l-2.34.61-8.67-.51.41-4.39v-4.48l-3.06-1.94L278,153.6l-2.45,2.45-.51,5,.51,4.49L275,170v13.87l.51,7-1,4.38v5l3,1.94h6.94l2.55-1.94v-7.65l3.87-.51,5.2.51,3.57-.51,2.76,1.12Z"/><path class="cls-3" d="M329.76,205.1V210l-.71,5.61-2.14,2.65-4.59-.71-4.69.71-4.29-1.33L311,213.47v-7.55l2.85-3.47h13.57Z"/><path class="cls-3" d="M406.56,155.33l1.23,9v13.77l.71,4.48v4.18l.61,4.49v4.49l.61,4.28-.61,4.49v4.29l.61,5.2v3.77l-4.48.51-4.9-.51-4.49.51v-13l-.61-4.49v-4.29H384.53v4.29l-.61,4.49v4.28l-.71,4.49.71,4.28-4.9-.51-5.2.51-4.28-.51-5.1.51v-5l.61-4.48.72-4.29V186.74l.61-4.18.61-5.2-.61-4.28.61-4.49v-8.77l.61-4.49v-4.28l.71-4.49-.71-4.28,4.28-.62h4.49l4.49.62h4.28l4.49-.62h3.67l4.49.62,4.49-.62h4.28Zm-17.54,22,4.9.72v-9.49l-.62-4.28v-5.1l-.61-4.29-3.67-.61-4.49.61v9.39l-.61,4.28v4.49l-.71,5Z"/><path class="cls-3" d="M445.22,199.6l.81-1.94-.41-1.74.41-1.83-.41-1.84.82-3.47v-1.93l.71-1.43v-3.67l.41-3.47-.41-3.67.62-1.84v-1.83l.81-10.51.72-1.73-.72-1.84.31-1.83.41-1.43v-1.74l.4-1.83v-1.94l.31-1.73v-1.74l-.31-2.14h2.15l1.73.2H455l2.24-.2,1.43.2h5.81v3l-.71,1.84-1.53,8.67v1.73l.41,1.84v1.93l-1,1.74.3,1.83-.3,1.74v1.83l-.82,1.43-.71,7.24-.31,1.74v1.94l.31,1.73-.61,1.43V188l-1.13,5.4v1.84l.31,1.73-1.22,1.53.4,2.25-2.14,12.54L455,215.1l.3,1.73-.61,1.43H423.59l.41-2.55-.71-1.33v-1.73L421,200.72l.41-2v-1.74l-.61-1.42V192l-.41-1.84-.81-1.73.3-1.94-.71-1.84v-1.73l-.41-1.33-.31-1.93v-1.74l-.3-1.73v-5.51l-2.14-15.81-1.13-1.53-.4-1.83.81-1.74-.81-1.94-.72-3.57v-1.73l1.84-.41,1.83.61,1.33-.2,2,.2h9.89l2.35-.2V146l.3,1.83v1.94l.72,7.14.41,1.84.41,1.32v2l.3,1.74v1.73l.61,1.84-.61,1.83.31,1.74.71,5.2.41,1.73-.41,1.74.82,1.93-.41,1.74.71,1.73.41,1.84v1.53l.2,1.73.41,1.84-.41,1.83.41,1.74.41,1.83v2.55Z"/><path class="cls-3" d="M489.38,205.1V210l-.72,5.61-2.14,2.65-4.59-.71-4.69.71L473,216.93l-2.35-3.46v-7.55l2.86-3.47H487Z"/><path class="cls-4" d="M167.7,286.77l10.4-.74,11.13,4.69,6.45,6-1,8.79,1,6.88-.44,15.82.88,11.87-12.31,11.28-10.4-.73-5.71,1-18.17-2.93-9.81.73-8.64-13.91-.3-19.19,2.05-5,8.5.58,7.91-1,4.25,2.93-.29,10.69,3.36,2.64h9.09l3.95-6.59.44-10-5.86-7.32-12.45-1.17-5.86-3.52-9.37-3.95-1.18-15.53,1.62-16.85-.44-10.11,12.3-10.84,13.33-.44a2.32,2.32,0,0,1,1.17-.07c.69,0,1.52.12,2.49.22s2,.17,3,.22,1.92.07,2.71.07l10.25.3,5-.3a4.9,4.9,0,0,1,1.47,1.4l2.41,2.93c.93,1.12,1.88,2.32,2.86,3.58s1.85,2.35,2.64,3.23v6.59l1,2.05v7.18l.74,4.25-8.21,2.63-8.93-2.63-.59-5.28.88-3.95-4.84-4.25-6.15.29-7.32-.73-2.93,4,1.32,10.69.58,5.13-.29,5.42Z"/><path class="cls-4" d="M268.63,261l1.76,12.9v19.77l1,6.45v6l.88,6.45V319l.88,6.16-.88,6.44v6.16l.88,7.47v5.42l-6.44.73-7-.73-6.44.73V332.62l-.88-6.45V320H237v6.15l-.88,6.45v6.15l-1,6.45,1,6.15-7-.73-7.47.73-6.16-.73-7.32.73v-7.18l.88-6.44,1-6.16V306.1l.88-6,.88-7.47-.88-6.16.88-6.44v-12.6l.88-6.45v-6.15l1-6.44-1-6.16,6.15-.88h6.45l6.45.88h6.15l6.44-.88h5.28l6.44.88,6.45-.88h6.15Zm-25.2,31.65,7,1V280l-.88-6.15v-7.33l-.88-6.15-5.28-.88-6.44.88v13.48l-.88,6.15v6.44l-1,7.18Z"/><path class="cls-4" d="M363,351.22h-5.71l-5.86.88-5.13-.88h-8.79l-2.78.15-10.84-31.94-4.69-11.86-5.57-6.74.88,5.27v6.45l.88,6.44v25.93l.88,6.45H309.8l-6.45.88-5.57-.88H284.89v-6.45l.88-6.44v-13l1-6.45V293.21l.88-6.44V267.43l.87-6.45v-6.59l1-6.3V241.5l6.3,1,6.88-1,.15-.44h8.64a9.24,9.24,0,0,0,.66,1.91,22.93,22.93,0,0,0,1.25,2.63l2.34,5.57,2.78,5L322.1,263l1.32,8.35,4.83,6.45,1.91,5,3.81,9.82,2.49,9.37v-8.93l.73-6.45V267.43l.88-6.45v-6.59l.88-6.3V241.5l5.71,1,6.74-1H358v12.89l1.76,6.59-.88,6.45.88,6.45v6.29l.73,6.45-.73,6.45.73,6.44.88,6.45v6.44l.88,6.45v25.93Z"/><path class="cls-4" d="M446.76,249.85v8.35l-6.15.29H421.86l.73,2.49-.88,6.45.88,6.45v6.44l.88,6.45-.88,6.44.88,6.45,1,6.44v6.45l-.59,6.44,1.47,6.45v19.48l.87,6.45h-6.44l-6.45.88-5.56-.88H394.91v-6.45l.88-6.44v-13l1-6.45V293.21l.88-6.44,1.76-6.45-1.76-6.44v-6.45l.88-6.45v-2.63l-3.52.14-24.17.74v-4l-.58-5.71,1-4.1-.44-4,5.28.29h19.33l7.47.88,8.79-1.46,5.72.14,3.07.15h.15l5.86.29,19.48-.14.44,4.1Z"/><path class="cls-4" d="M514.15,350.64l-5.86-.74-6.3.74H490.56l-6.44.73-5.86-.73-5.57.73-5.71-.73-4.25-3.52-4.4-4.39-4.24-2.79.73-6.44V314.89l.73-5.71v-6.45l.59-6.3.73-5.85v-6.45l-.73-6.3.73-5.86.73-6.3v-12.3l5.13-4.11L467,245l4.25-3.67h14.35l6.45.59,7-.59,7.18-.73,8.64,8.64,4.83,4.11v5.86l.88,6.44V272l1.47,5.86v12.75l.73,6.59.59,5.56.73,6.45-.73,6.59.73,6.3.73,5.71.73,6.45v6.44l-5.86,4.25Zm-12.89-25.05V312.11L500.52,302l.74-7.18.73-6.3-1.47-6.44v-6.45l.74-7.17V262l-4.4-2.78-8.49-.74L484.85,262l-.73,7.18.73,6.44-.73,6.45V302l.73,10.11-1.47,6.3v7.18l4.25,2.78h10Z"/><path class="cls-4" d="M575.67,286.77l10.4-.74,11.14,4.69,6.44,6-1,8.79,1,6.88-.44,17.29.88,10.4-12.3,11.28-10.4-.73-5.72,1-18.16-2.93-9.82.73-8.64-13.91-.29-19.19,2-5,8.49.58,7.92-1,4.24,2.93L561.17,326l3.37,2.63h9.08l4-8.05.44-10-5.86-7.32-12.45-1.17-5.86-3.52-9.38-3.95-1.17-15.53,1.61-16.85-.44-10.11,12.31-10.84,13.33-.44c.09-.09.48-.12,1.17-.07s1.51.12,2.49.22,2,.17,3,.22,1.93.07,2.71.07l10.26.3,5-.3a4.91,4.91,0,0,1,1.46,1.4l2.42,2.93c.93,1.12,1.88,2.32,2.86,3.58s1.85,2.35,2.63,3.23v6.59l1,2.05v7.18l.73,4.25-8.2,2.63-8.94-2.63-.59-5.28.88-3.95-4.83-4.25-6.15.29-7.33-.73-2.93,4,1.32,10.69.59,5.13-.3,5.42Z"/><path class="cls-4" d="M133.27,460.69V441.35l1-6-1-6.15,2-6.16V384.37l2.05-7.18,5,.88h6.29l6-.88h6.15l5.13.88h6l6.15-.88,5,4.1,4.25,4,5,4.25v6l1,6.15v13.19l1.18,6.15v6.15l.87,6-.87,6.15.87,6.16,1,6v6.15l1,6.3,1,6v7.18L193.33,480l-3.07,3.22-4,4H168l-6.15-1-6.3,1-6-1-6.15,1h-6l-5.12-1V467.87Zm25.49-59v6.16l1,6V421l1,6.15V439.3l1,6.16v18.45l.88,6.89H173l4.1-4-1-6.15v-6l1-6.15v-6.15l-1-6,1-6.15-1-7.18v-6l1-6.16-1-6.29,1-6L173,395.5h-7l-8.2-1Z"/><path class="cls-4" d="M270.68,377.34l6.88.44v6.3l.88,6.3v5.85l-.88,6.3.88,6.45-.44,5.86.88,6.3-.44,6v6.16l.44,6.3.44,6,.44,6.3v5.86l.44,6.45v6.3l-.44,5.71L276.1,480l-4,3.07-3.8,4.11-5.72-.44-5.86.88-6-.44h-29.3l-4.25-4.11-4.39-2.63-4.11-4.25v-6.15l.44-5.86.88-6.45-.44-6.3,1.32-5.86-.88-6.44.88-5.86v-6.16l.88-6,.59-6.3v-6.3l-1-6,.44-6.3,1-5.85-.44-6.3.87-5.42,5.43-.88,11.71.88,6-.88v6.3l.44,6.3v6.29l.44,6.3v6.45l-.44,6.3.88,6.3v6.44l.44,5.86-.44,6.16v6.44l.88,6.3.44,5.86,2.78,3.81h4.83l5-.59,3.8-2.78.88-6.3-.44-6.3v-6.44l.44-6.16.44-6.3-.44-6.44,1.32-5.86-.88-6.3.88-6.45.44-6.3-.44-6.29.88-6.3-.88-6.3,6.74.44Z"/><path class="cls-4" d="M373.08,486.47l-6.89.74-6-.74v-6.59l.73-6.74V453.51l.58-6.74.74-6.73V433.3l-12.9,11.42H336L323.27,433.3v6l.58,5.42v12.16l1.32,6-.58,6.15,1.32,5.42v6l.73,6.74H319.9l-6.3-.74h-6l-6.73.74-5.28-1.32v-5.42l-.73-6.74,1.32-6v-6.88l.73-6.74-.73-6v-6.74l1.32-6-.59-6.74.59-6,.73-6.74v-19l1.32-6.74-.59-6v-6.74l7.33-.59,7.32,1.32,6.89-.73,2.78,6,3.37,5.42,2.64,5.42,2.05,6,3.37,5.42,1.9,6,3.08,5.12,3.07,5.86,3.37-5.42L348,411l2.78-5.42,3.37-5.42,2.64-5.42,2.05-6,2.63-6,2.79-6h7.47l7.32,1.32,6.74-.73v6.74l1.47,6-.74,6.74.74,6.15v6.6l.58,6.88.73,6.15v6.6l.59,6.15v12.74l.73,6.74v6l.59,6.88.73,6v6.74l-.73,5.42-11.43,1.32Z"/><path class="cls-4" d="M466,486.47l-5.86-.73-6.3.73H442.37l-6.45.74-5.86-.74-5.57.74-5.71-.74L414.53,483l-4.39-4.4-4.25-2.78.73-6.45v-18.6l.73-5.71v-6.45l.59-6.3.73-5.86V420l-.73-6.3.73-5.86.74-6.3V389.2l5.12-4.1,4.25-4.25,4.25-3.66h14.35l6.45.59,7-.59,7.18-.73,8.64,8.64,4.84,4.1v5.86l.88,6.45v6.3l1.46,5.86v12.74l.73,6.59.59,5.57.73,6.45-.73,6.59.73,6.3.73,5.71.74,6.45v6.44l-5.86,4.25Zm-12.89-25.05V448l-.73-10.11.73-7.18.73-6.3-1.46-6.44v-6.45l.73-7.18v-6.44l-4.4-2.79-8.49-.73-3.52,3.52-.73,7.17.73,6.45-.73,6.45v19.92l.73,10.11-1.46,6.3v7.17l4.25,2.79h10Z"/><path class="cls-4" d="M567.18,487.06h-5.72l-5.86.88-5.12-.88h-8.79l-2.79.15-10.84-31.94-4.68-11.87-5.57-6.73.88,5.27v6.45l.88,6.44v25.93l.88,6.45H514l-6.44.87-5.57-.87H489.1v-6.45l.88-6.45v-13l1-6.45V429.05l.88-6.45V403.27l.88-6.45v-6.59l1-6.3v-6.59l6.29,1,6.89-1,.15-.44h8.64a9.25,9.25,0,0,0,.66,1.9,22.53,22.53,0,0,0,1.24,2.64L520,387l2.78,5,3.52,6.88,1.31,8.35,4.84,6.45,1.9,5,3.81,9.81,2.49,9.38V428.9l.73-6.44V403.27l.88-6.45v-6.59l.88-6.3v-6.59l5.72,1,6.73-1h6.6v12.89l1.75,6.59-.87,6.45.87,6.44V416l.74,6.45L564,428.9l.74,6.45.88,6.44v6.45l.87,6.44v25.93Z"/><path class="cls-4" d="M651,385.69V394l-6.15.29H626.07l.73,2.49-.88,6.45.88,6.44v6.45l.88,6.44-.88,6.45.88,6.44,1,6.45v6.45l-.58,6.44,1.46,6.45v19.48l.88,6.45H624l-6.45.87-5.57-.87H599.11v-6.45l.88-6.45v-13l1-6.45V429.05l.87-6.45,1.76-6.44-1.76-6.45v-6.44l.88-6.45v-2.64l-3.51.15-24.17.73v-3.95l-.59-5.72,1-4.1-.44-4,5.27.29H599.7l7.47.88L616,377l5.71.15,3.08.15h.14l5.86.29,19.49-.15.44,4.11Z"/><rect class="cls-5" width="57.97" height="925.59"/></g></g></svg>