<svg xmlns="http://www.w3.org/2000/svg" xmlns:xlink="http://www.w3.org/1999/xlink" viewBox="0 0 869.74 925.59"><defs><style>.cls-1{fill:url(#Degradado_sin_nombre_120);}.cls-2{fill:url(#Degradado_sin_nombre_128);}.cls-3{fill:#f7ac00;}.cls-4{fill:#fff;}.cls-5{fill:url(#Degradado_sin_nombre_47);}</style><linearGradient id="Degradado_sin_nombre_120" x1="57.97" y1="333.44" x2="869.74" y2="333.44" gradientUnits="userSpaceOnUse"><stop offset="0.07" stop-color="#391d57"/><stop offset="0.23" stop-color="#582f75"/><stop offset="0.43" stop-color="#54376c"/><stop offset="0.84" stop-color="#52346e"/></linearGradient><linearGradient id="Degradado_sin_nombre_128" x1="463.85" y1="661.27" x2="463.85" y2="6.81" gradientUnits="userSpaceOnUse"><stop offset="0.07" stop-color="#341853"/><stop offset="0.15" stop-color="#3a1e58" stop-opacity="0.81"/><stop offset="0.33" stop-color="#452861" stop-opacity="0.45"/><stop offset="0.5" stop-color="#4d3068" stop-opacity="0.2"/><stop offset="0.67" stop-color="#51346c" stop-opacity="0.05"/><stop offset="0.84" stop-color="#53366d" stop-opacity="0"/></linearGradient><linearGradient id="Degradado_sin_nombre_47" y1="462.79" x2="57.97" y2="462.79" gradientUnits="userSpaceOnUse"><stop offset="0" stop-color="#6a6a6b"/><stop offset="0.56" stop-color="#cbccca"/><stop offset="1" stop-color="#6a6a6b"/></linearGradient></defs><g id="Capa_2" data-name="Capa 2"><g id="_Layer_" data-name="&lt;Layer&gt;"><path class="cls-1" d="M58,614.49c306.14-187.24,505.63,179,811.77-8.23-50.13-15.58-85.15-64.77-109.66-121.69a94.5,94.5,0,0,1-4.53-13.08c-24.2-90.81-24.61-125,28.05-213.06,18.69-31.26,41.12-71,78-127.51-126.66,17.37-155.82,4.47-218.21-9.27C463.13,82,383.44-5.41,232.21,6.75,154.52,13,93.89,42.62,58,63.81Z"/><path class="cls-2" d="M58,614.49c306.14-187.24,505.63,179,811.77-8.23-44.91-14-76.73-54-101.44-103.17a266.33,266.33,0,0,1-23.95-71.87c-9.81-54-8.61-94.14,33.48-163.23,19.92-32.69,43-74.6,83.75-137.07-16.23,2.34-40.89,5.38-71,7-51.6,2.75-111.66,8.31-244-44C512,80.28,492.39,68.7,430.44,45.78c-38.37-14.19-70.5-24.43-92.19-31C298,6.72,225.76-1.59,143.7,24.33A378.43,378.43,0,0,0,58,63.81Z"/><path class="cls-3" d="M169.12,264.34l8-.56,8.55,3.6,5,4.61-.78,6.76.78,5.29-.33,13.28.67,8L181.51,314l-8-.56-4.39.79-14-2.26-7.54.57L141,301.82l-.22-14.74,1.57-3.83,6.53.45,6.08-.79,3.26,2.25-.22,9.35,2.59,2h7l3-6.19.33-7.65-4.5-5.63-9.57-.9-4.5-2.7-7.2-3-.91-11.94,1.24-12.94-.33-7.77,9.45-8.33,10.25-.33q.1-.12.9-.06c.52,0,1.16.09,1.91.17s1.52.13,2.31.17,1.48.05,2.08.05l7.88.23,3.83-.23a3.89,3.89,0,0,1,1.12,1.07l1.86,2.25q1.06,1.31,2.19,2.76c.75,1,1.43,1.8,2,2.48v5.06l.79,1.58v5.51l.56,3.27-6.3,2-6.87-2-.45-4,.68-3-3.72-3.27-4.73.23-5.62-.56-2.26,3,1,8.22.45,3.94-.23,4.17Z"/><path class="cls-3" d="M250.06,229.56l5.29.33v4.84l.67,4.84v4.51l-.67,4.84.67,5-.33,4.5.67,4.84-.34,4.62v4.73l.34,4.84.34,4.61.34,4.84v4.51l.34,4.95v4.84l-.34,4.39-2.82,2.93-3,2.36L248.26,314l-4.39-.34-4.51.68-4.61-.34H212.24L209,310.83l-3.38-2-3.15-3.26v-4.73l.34-4.5.68-4.95-.34-4.85,1-4.5-.67-4.95.67-4.5v-4.73l.68-4.62.45-4.84v-4.84l-.79-4.61.34-4.84.78-4.51-.33-4.84.67-4.16,4.17-.68,9,.68,4.62-.68v4.84l.34,4.84v4.84l.33,4.84v5l-.33,4.84.67,4.84v4.95l.34,4.5-.34,4.73v5l.68,4.84.33,4.5,2.14,2.93h3.72l3.82-.46,2.93-2.13.68-4.84-.34-4.84v-5l.34-4.73.33-4.84-.33-4.95,1-4.5-.68-4.84.68-5,.34-4.84-.34-4.84.68-4.84-.68-4.84,5.18.34Z"/><path class="cls-3" d="M319.63,286.63l.56,4.84.56,4.39.56,4.95v4.95l-4.5,3.27-4.28,4.39-4.5-.56-4.84.56h-8.78l-5,.56-4.5-.56-4.28.56-4.39-.56-3.27-2.7-3.37-3.38-3.27-2.14.56-4.95V286l.57-4.39v-4.95l.45-4.84.56-4.5v-5l-.56-4.84.56-4.5.56-4.84v-9.46l3.94-3.15,3.27-3.26,3.26-2.82h11l5,.45,5.4-.45,5.52-.56,6.64,6.64,3.71,3.15v4.51l.68,4.95V253l.45,2h-3.6l-2.59.67-9.57-.56.45-4.84v-5l-3.38-2.13-6.53-.57-2.7,2.7-.56,5.52.56,4.95-.56,5v15.31l.56,7.76-1.12,4.84v5.52l3.26,2.14h7.65l2.82-2.14v-8.44l4.28-.57,5.74.57,3.94-.57,3,1.24Z"/><path class="cls-3" d="M349.91,299.46v5.4l-.79,6.19L346.75,314l-5.06-.79-5.18.79-4.73-1.46-2.59-3.83v-8.33l3.16-3.83h15Z"/><path class="cls-3" d="M434.67,244.53l1.35,9.9v15.2l.79,4.95v4.62l.67,4.95v5l.68,4.73-.68,4.95v4.73l.68,5.74v4.17l-5,.56-5.41-.56-4.95.56V299.57l-.68-4.95v-4.73H410.35v4.73l-.67,4.95v4.73l-.79,4.95.79,4.73-5.4-.56-5.74.56-4.73-.56-5.63.56v-5.51l.67-5,.79-4.73V279.2l.68-4.62.67-5.74-.67-4.73.67-4.95v-9.68l.68-4.95V239.8l.79-5-.79-4.73,4.73-.68h5l4.95.68H411l5-.68H420l4.95.68,4.95-.68h4.73Zm-19.36,24.31,5.4.79V259.16l-.67-4.73V248.8l-.68-4.72-4.05-.68-5,.68v10.35l-.67,4.73v4.95l-.79,5.52Z"/><path class="cls-3" d="M477.33,293.38l.9-2.14-.45-1.91.45-2-.45-2,.9-3.83v-2.14l.79-1.58v-4.05l.45-3.83-.45-4.05.68-2v-2l.9-11.6.78-1.91-.78-2,.33-2,.45-1.58V240.7l.45-2v-2.14l.34-1.91v-1.91l-.34-2.37h2.37l1.91.23h1.58l2.47-.23,1.58.23h6.42v3.26l-.79,2-1.69,9.57v1.91l.45,2v2.14l-1.13,1.91.34,2-.34,1.91v2l-.9,1.57-.78,8-.34,1.92V273l.34,1.91-.68,1.58v4.05l-1.24,6v2l.34,1.91-1.35,1.69.45,2.48-2.36,13.85-.79,2,.34,1.91L487.8,314H453.47l.45-2.81-.79-1.47v-1.91l-2.48-13.17.45-2.25v-1.92l-.67-1.57v-3.94l-.45-2-.9-1.91.33-2.14-.78-2v-1.91l-.45-1.46-.34-2.14V269.4l-.34-1.91v-6.08L445.14,244l-1.24-1.68-.45-2,.9-1.91-.9-2.14-.79-3.94v-1.92l2-.45,2,.68,1.47-.23,2.25.23h10.92l2.59-.23v3.83l.33,2v2.14l.79,7.87.45,2,.45,1.46V252l.34,1.91v1.91l.67,2-.67,2,.34,1.91.79,5.74.45,1.91-.45,1.92.9,2.14-.45,1.91.78,1.91.45,2V281l.23,1.91.45,2-.45,2,.45,1.92.45,2v2.82Z"/><path class="cls-3" d="M526.07,299.46v5.4l-.79,6.19L522.92,314l-5.07-.79-5.17.79L508,312.52l-2.59-3.83v-8.33l3.15-3.83h15Z"/><path class="cls-4" d="M161.49,335.58h5.71l.26,5.58v5.59l1.43,5.84.39,5.58-.39,6,1.55,5.71v5.58l1,5.58-.52,5.84v5.58l.78,5.45V407l1.43,5.2,5.71-.26,6,1.16,5.58-.9h11.81v9.08l-.52,6.23.91,5.45-5.58-.26-5.84.78-5.45-.78-6.1.78H168.37l-5.45-.52-5.71.52h-5.72l-5.58-.52.52-5.45.26-5.71-.26-6.1.26-5.58V404.5l.52-6.1v-5.71l1.3-5.58-.39-5.71.39-6,.39-5.58-.39-5.71.39-5.45.52-6.1.26-5.84,1-5.59v-5.58l5.19.52Z"/><path class="cls-4" d="M266.22,432.27l-5.19-.65-5.58.65H245.33l-5.71.65-5.19-.65-4.94.65-5.06-.65-3.76-3.11-3.89-3.9L213,422.8l.65-5.71V400.6l.65-5.06v-5.71l.52-5.58.65-5.19v-5.71l-.65-5.58.65-5.19.65-5.58V346.1l4.54-3.64,3.76-3.76,3.77-3.25h12.71l5.71.52,6.23-.52,6.36-.65,7.66,7.66,4.28,3.64v5.19l.78,5.71v5.58l1.3,5.19v11.29l.65,5.84.52,4.93.65,5.71-.65,5.84.65,5.58.65,5.07.65,5.71v5.71l-5.2,3.76ZM254.8,410.08V398.14l-.65-9,.65-6.36.65-5.58-1.3-5.71v-5.71l.65-6.36v-5.71l-3.89-2.46-7.53-.65-3.11,3.11-.65,6.36.65,5.71-.65,5.71v17.65l.65,9-1.3,5.58v6.36l3.76,2.46h8.83Z"/><path class="cls-4" d="M320.73,375.69,330,375l9.86,4.15,5.71,5.32-.91,7.79.91,6.1-.39,14,.78,10.52-10.9,10-9.22-.65-5.06.91-16.09-2.6-8.7.65-7.65-12.33-.26-17,1.81-4.41,7.53.52,7-.91,3.76,2.6-.26,9.47,3,2.34h8l3.51-5.84.39-8.83-5.19-6.49-11-1-5.19-3.11-8.3-3.51-1-13.75L293.48,354l-.39-8.95,10.9-9.61,11.81-.39c.08-.08.43-.1,1-.06s1.34.11,2.2.19,1.76.16,2.66.2,1.71.06,2.41.06l9.08.26,4.41-.26a4.35,4.35,0,0,1,1.3,1.24l2.14,2.59c.82,1,1.67,2.06,2.53,3.18s1.65,2.08,2.34,2.86v5.84l.91,1.81v6.36l.65,3.77-7.27,2.33-7.92-2.33-.52-4.67.78-3.51-4.28-3.76-5.45.26-6.49-.65-2.6,3.5,1.17,9.48.52,4.54-.26,4.8Z"/><path class="cls-4" d="M453,401.38l.65,5.58.65,5.07.64,5.71v5.71l-5.19,3.76-4.93,5.06-5.19-.65-5.58.65H423.91l-5.71.65-5.19-.65-4.94.65-5.06-.65-3.76-3.11-3.9-3.9-3.76-2.46.65-5.71V400.6l.65-5.06v-5.71l.52-5.58.65-5.19v-5.71l-.65-5.58.65-5.19.65-5.58V346.1l4.54-3.64L403,338.7l3.77-3.25h12.71l5.71.52,6.23-.52,6.36-.65,7.66,7.66,4.28,3.64v5.19l.78,5.71v5.58l.52,2.33h-4.15l-3,.78-11-.65.52-5.58v-5.71l-3.89-2.46-7.53-.65-3.11,3.11-.65,6.36.65,5.71-.65,5.71v17.65l.65,9-1.3,5.58v6.36l3.76,2.46h8.83l3.24-2.46v-9.73l4.93-.65,6.62.65,4.54-.65,3.51,1.42Z"/><path class="cls-4" d="M517.61,335.58l6.1.39v5.58l.78,5.58v5.2l-.78,5.58.78,5.71-.39,5.19.78,5.58-.39,5.32v5.45l.39,5.58.39,5.32.39,5.58v5.19l.39,5.71v5.59l-.39,5.06-3.25,3.37-3.5,2.73-3.38,3.63-5.06-.39-5.19.78-5.32-.39H474l-3.76-3.63L466.35,427l-3.64-3.76v-5.45l.39-5.2.78-5.71-.39-5.58,1.17-5.19-.78-5.71.78-5.19v-5.45l.78-5.32.52-5.58v-5.58l-.91-5.32.39-5.58.91-5.2-.39-5.58.78-4.8,4.8-.78,10.38.78,5.32-.78v5.58l.39,5.58v5.58l.39,5.59V364l-.39,5.58.78,5.58v5.71l.39,5.19-.39,5.45v5.71l.78,5.58.39,5.19,2.46,3.38h4.29l4.41-.52,3.37-2.47.78-5.58-.39-5.58v-5.71l.39-5.45.39-5.58-.39-5.71,1.17-5.19-.78-5.58.78-5.71.39-5.59-.39-5.58.78-5.58-.78-5.58,6,.39Z"/><path class="cls-4" d="M570.43,375.69l9.22-.65,9.86,4.15,5.71,5.32-.91,7.79.91,6.1-.39,14,.78,10.52-10.9,10-9.22-.65-5.06.91-16.09-2.6-8.7.65L538,418.9l-.26-17,1.81-4.41,7.53.52,7-.91,3.76,2.6-.26,9.47,3,2.34h8l3.51-5.84.39-8.83-5.19-6.49-11-1-5.2-3.11-8.3-3.51-1-13.75L543.18,354l-.39-8.95,10.9-9.61,11.81-.39c.08-.08.43-.1,1-.06s1.34.11,2.2.19,1.76.16,2.66.2,1.71.06,2.41.06l9.08.26,4.41-.26a4.35,4.35,0,0,1,1.3,1.24l2.14,2.59c.82,1,1.67,2.06,2.53,3.18s1.65,2.08,2.34,2.86v5.84l.91,1.81v6.36l.65,3.77-7.27,2.33L582,363.1l-.52-4.67.78-3.51L578,351.16l-5.45.26-6.49-.65-2.6,3.5,1.17,9.48.52,4.54-.26,4.8Z"/><path class="cls-4" d="M628.32,432.92l-5.72.78-4.93-.78H606.25v-5.71l.78-5.71V410l.91-5.71V381.4l.78-5.71V358.56l.78-5.72V347l.91-5.58v-5.84l5.58.91,6.61-.91h6.49V347l1.69,5.84-.78,5.72.78,5.71V370l.78,5.71-.78,5.71.78,5.71.91,5.71v5.71l.78,5.71v23l.78,5.71Z"/><path class="cls-4" d="M675.82,375.69,685,375l9.86,4.15,5.71,5.32-.9,7.79.9,6.1-.38,14,.77,10.52-10.9,10-9.21-.65-5.06.91-16.1-2.6-8.69.65-7.66-12.33-.26-17,1.82-4.41,7.53.52,7-.91,3.77,2.6-.26,9.47,3,2.34h8l3.5-5.84.39-8.83-5.19-6.49-11-1-5.19-3.11-8.31-3.51-1-13.75L648.56,354l-.39-8.95,10.9-9.61,11.81-.39a2.14,2.14,0,0,1,1-.06c.61,0,1.34.11,2.21.19s1.75.16,2.66.2,1.71.06,2.4.06l9.09.26,4.41-.26a4.35,4.35,0,0,1,1.3,1.24c.6.73,1.31,1.6,2.14,2.59s1.66,2.06,2.53,3.18,1.64,2.08,2.33,2.86v5.84l.91,1.81v6.36l.65,3.77-7.27,2.33-7.91-2.33-.52-4.67.78-3.51-4.29-3.76-5.45.26-6.49-.65-2.59,3.5,1.17,9.48.51,4.54-.25,4.8Z"/><rect class="cls-5" width="57.97" height="925.59"/></g></g></svg>