<svg xmlns="http://www.w3.org/2000/svg" xmlns:xlink="http://www.w3.org/1999/xlink" viewBox="0 0 868.68 925.59"><defs><style>.cls-1{fill:url(#Degradado_sin_nombre_47);}.cls-2{fill:url(#Degradado_sin_nombre_120);}.cls-3{fill:url(#Degradado_sin_nombre_128);}.cls-4{fill:#f7ac00;}.cls-5{fill:#fff;}</style><linearGradient id="Degradado_sin_nombre_47" y1="462.79" x2="57.97" y2="462.79" gradientUnits="userSpaceOnUse"><stop offset="0" stop-color="#6a6a6b"/><stop offset="0.56" stop-color="#cbccca"/><stop offset="1" stop-color="#6a6a6b"/></linearGradient><linearGradient id="Degradado_sin_nombre_120" x1="56.91" y1="333.44" x2="868.68" y2="333.44" gradientUnits="userSpaceOnUse"><stop offset="0.07" stop-color="#391d57"/><stop offset="0.23" stop-color="#582f75"/><stop offset="0.43" stop-color="#54376c"/><stop offset="0.84" stop-color="#52346e"/></linearGradient><linearGradient id="Degradado_sin_nombre_128" x1="462.8" y1="660.67" x2="462.8" y2="6.2" gradientUnits="userSpaceOnUse"><stop offset="0.07" stop-color="#341853"/><stop offset="0.15" stop-color="#3a1e58" stop-opacity="0.81"/><stop offset="0.33" stop-color="#452861" stop-opacity="0.45"/><stop offset="0.5" stop-color="#4d3068" stop-opacity="0.2"/><stop offset="0.67" stop-color="#51346c" stop-opacity="0.05"/><stop offset="0.84" stop-color="#53366d" stop-opacity="0"/></linearGradient></defs><g id="Capa_2" data-name="Capa 2"><g id="_Layer_" data-name="&lt;Layer&gt;"><rect class="cls-1" width="57.97" height="925.59"/><path class="cls-2" d="M56.91,614.49c306.15-187.24,505.63,179,811.77-8.23C818.56,590.68,783.53,541.49,759,484.57a94.46,94.46,0,0,1-4.52-13.08c-24.21-90.81-24.62-125,28-213.06,18.69-31.26,41.12-71,78-127.51-126.66,17.37-155.83,4.47-218.21-9.27C462.07,82,382.38-5.41,231.16,6.75,153.46,13,92.84,42.62,56.91,63.81Z"/><path class="cls-3" d="M56.91,613.88c306.15-187.23,505.63,179,811.77-8.22-44.91-14-76.73-54-101.43-103.18a266.17,266.17,0,0,1-24-71.86c-9.81-54-8.61-94.14,33.49-163.23,19.91-32.69,43-74.6,83.75-137.07-16.24,2.34-40.9,5.38-71,7-51.6,2.74-111.66,8.31-244-44C511,79.68,491.34,68.1,429.38,45.18,391,31,358.89,20.75,337.19,14.17c-40.29-8-112.49-16.36-194.54,9.55A378.32,378.32,0,0,0,56.91,63.2Z"/><path class="cls-4" d="M155.72,174.1l8.15-.58,8.74,3.68,5,4.71-.8,6.89.8,5.4-.34,13.56.68,8.15-9.64,8.85-8.16-.58-4.48.81-14.25-2.3-7.69.57L127,212.35l-.23-15,1.61-3.9,6.66.46,6.2-.81,3.34,2.3-.23,9.53L147,207h7.12l3.1-6.32.35-7.81-4.6-5.74-9.76-.92-4.6-2.76-7.35-3.1-.92-12.18,1.26-13.21-.34-7.93,9.65-8.5,10.45-.34c.08-.08.39-.1.92-.06l1.95.17c.77.08,1.56.14,2.36.18s1.51,0,2.13,0l8,.23,3.9-.23a3.86,3.86,0,0,1,1.15,1.09l1.9,2.3c.72.88,1.47,1.82,2.24,2.82s1.45,1.84,2.06,2.52v5.17l.81,1.61v5.63l.57,3.33L173,165l-7-2.07-.46-4.13.69-3.1-3.79-3.34-4.82.23-5.75-.57-2.3,3.1,1,8.39.46,4-.23,4.25Z"/><path class="cls-4" d="M238.32,138.6l5.39.34v4.94l.69,4.94v4.6l-.69,4.94.69,5-.34,4.6.69,4.94-.35,4.71v4.82l.35,4.94.34,4.71.35,4.94v4.6l.34,5.05v4.94l-.34,4.48-2.87,3-3.11,2.41-3,3.22-4.48-.35-4.6.69-4.71-.34h-23l-3.34-3.22-3.44-2.07-3.22-3.33v-4.82l.35-4.6.69-5.05-.35-4.94,1-4.6-.68-5,.68-4.6v-4.82l.69-4.71.46-4.94v-4.94l-.8-4.71.34-4.94.81-4.6-.35-4.94.69-4.25,4.25-.69,9.19.69,4.71-.69v4.94l.35,4.94v4.94l.34,4.94v5.06l-.34,4.94.69,4.94v5.05l.34,4.6-.34,4.82v5.06l.69,4.94.34,4.59,2.18,3h3.8l3.9-.46,3-2.18.69-4.94-.35-4.94v-5.06l.35-4.82.34-4.94-.34-5.06,1-4.59-.69-4.94.69-5.06.35-4.94-.35-4.94.69-4.94-.69-4.94,5.29.35Z"/><path class="cls-4" d="M309.31,196.84l.58,4.94.57,4.48.57,5.06v5.05l-4.59,3.33-4.37,4.48-4.59-.57-4.94.57h-9l-5.06.58-4.59-.58-4.37.58-4.48-.58-3.33-2.75L258.31,218,255,215.8l.58-5.06V196.15l.57-4.48v-5l.46-4.94.58-4.6V172l-.58-4.94.58-4.6.57-4.94V147.9l4-3.21,3.33-3.33,3.33-2.88h11.26l5.06.46,5.51-.46,5.63-.57,6.78,6.78,3.79,3.21v4.6l.69,5.05v4.94l.46,2.07h-3.68l-2.64.69-9.76-.57.45-4.94v-5.06l-3.44-2.18-6.66-.58-2.76,2.76-.58,5.63.58,5.06-.58,5V186l.58,7.93L278,198.91v5.63l3.33,2.18h7.81l2.87-2.18v-8.62l4.37-.57,5.86.57,4-.57,3.1,1.26Z"/><path class="cls-4" d="M340.21,209.94v5.51l-.8,6.32-2.41,3-5.17-.81-5.29.81-4.82-1.5-2.64-3.9v-8.5l3.21-3.91h15.28Z"/><path class="cls-5" d="M153.42,324l1-2.37-.49-2.11.49-2.25-.49-2.24,1-4.23v-2.37l.87-1.75v-4.48l.5-4.24-.5-4.48.75-2.24V289l1-12.84.87-2.11-.87-2.25.37-2.24.5-1.74v-2.12l.5-2.24v-2.37l.37-2.12v-2.12l-.37-2.61h2.62l2.11.25h1.75l2.74-.25,1.74.25H177v3.61l-.87,2.24L174.22,271v2.12l.5,2.24v2.37l-1.25,2.12.38,2.24-.38,2.12v2.24l-1,1.74-.87,8.85-.38,2.12v2.36l.38,2.12-.75,1.74v4.49l-1.37,6.6v2.24l.37,2.12-1.49,1.87.5,2.74-2.62,15.32-.87,2.25.37,2.11-.75,1.75H127l.5-3.12-.88-1.62V340l-2.74-14.58.5-2.49v-2.12l-.75-1.74v-4.36l-.49-2.24-1-2.12.37-2.37-.87-2.24V303.6l-.5-1.62-.37-2.37V297.5l-.38-2.12v-6.73l-2.61-19.31-1.37-1.87-.5-2.24,1-2.12-1-2.36-.87-4.36v-2.12l2.24-.5,2.24.75,1.62-.25,2.49.25h12.09l2.86-.25v4.23l.38,2.25v2.36l.87,8.72.5,2.25.5,1.62v2.49l.37,2.11v2.12l.75,2.25-.75,2.24.37,2.12.87,6.35.5,2.12-.5,2.11,1,2.37-.5,2.12.88,2.12.49,2.24v1.87l.25,2.12.5,2.24-.5,2.24.5,2.12.5,2.24v3.11Z"/><path class="cls-5" d="M204.37,346.83l-5.48.75-4.74-.75h-11v-5.48l.75-5.48V324.78l.87-5.48V297.37l.75-5.48V275.45l.75-5.49v-5.6l.87-5.36v-5.6l5.35.87,6.36-.87h6.23v11l1.62,5.6-.75,5.49.75,5.48v5.48l.74,5.48-.74,5.48.74,5.48.88,5.48v5.49l.74,5.48v22.05l.75,5.48Z"/><path class="cls-5" d="M283.23,345.46c.16.33,0,.52-.44.56a2.34,2.34,0,0,0-1.06.31l-4.73,1c-.17.25-.54.31-1.12.18a7.56,7.56,0,0,0-1.5-.18l-4-.25-7.23-.62-6,.37-.75-4.86-2-8-1.87-5.86V319.3l-2.86-2.74-1.87-4.74-1-3-1.87.25v4.74l.75,5.48v22.05l.75,5.48H241l-5.49.75-4.73-.75h-11v-5.48l.75-5.48V324.78l.87-5.48V302.85l3.61-5.35-2.87-5.61V275.45l.75-5.49v-5.6l.87-5.36v-5.6l5.36.87,6.35-.87h6.23v.25h.63a2.75,2.75,0,0,0,1.12.06c.58,0,1.28-.11,2.12-.19l2.49-.25c.83-.08,1.57-.12,2.24-.12l6.73-.38,4.61,2,7.84,3,4.36,3.61,3.24,6.48,1.25,5.85-1,6.23c0,.17,0,.75.06,1.75s.09,2.09.13,3.3.08,2.3.12,3.3a6,6,0,0,1-.06,1.74,9.3,9.3,0,0,0-.5,2.31A7.73,7.73,0,0,1,276,295.5l-3.61,4.61-4.86,3.12,1.62,4.73,2.24,5.48c.17.42.44,1.06.81,1.93s.73,1.64,1.06,2.31l1,7.1,4.36,8.72,1.87,7Zm-27.29-65.53a2.3,2.3,0,0,0,.07-1.06c0-.54-.11-1.12-.19-1.74s-.15-1.2-.19-1.75-.06-.93-.06-1.18a2.17,2.17,0,0,0-1.37-2.12,32.16,32.16,0,0,0-5.23-1.49l-4.11.37-1.62.13-.62,4.36.74,5.48v5.48l.75,5.48-.25,2.12h3.61l4.24.25,2.62-1.75,1.37-4.23V287l-.88-4.11Z"/><path class="cls-5" d="M349.13,332.25v5.48l-5,3.62-4.73,4.86-5-.63-5.36.63h-9.72l-5.48.62-5-.62-4.74.62-4.85-.62-3.62-3L292,339.48l-3.62-2.37.63-5.48V315.81l.62-4.86v-5.48l.5-5.36.62-5v-5.48l-.62-5.36.62-5,.62-5.36V263.49l4.36-3.49,3.62-3.61,3.61-3.12h12.21l5.48.5,6-.5,6.1-.62L340,260l4.11,3.49v5l.75,5.48v5.36l.5,2.24h-4l-2.86.75L328,281.68l.5-5.36v-5.48l-3.74-2.37h-.12l-7.11-.62-3,3-.62,6.1.62,5.48-.62,5.48v17l.62,8.59-1.24,5.36v6.1l3.61,2.37h8.47l3.12-2.37V312.82l-6-1V308l-.75-4.86,1-5.85,10.46-1,6.35.62,4.36-.62,3.37,1.37v.25l.12,6.23,1.25,5.23.12,3.24-.87,9.34.62,4.86Z"/><path class="cls-5" d="M413.53,346.83l-5.35-.25-5.61.75-5.23-.75-5.86.75H380.65l-5.24-.5-5.48.5h-5.48l-5.36-.5.5-5.23.25-5.48-.25-5.86.25-5.36v-5.35l.5-5.86v-5.48l1.25-5.36-.38-5.48.38-5.73.37-5.36-.37-5.48.37-5.23.5-5.85.25-5.61,1-5.36V253.4l5,.49,5.35-.49h5.36l2.24-.88c-.17-.08,0-.08.38,0s.91.21,1.49.38,1.2.33,1.87.5,1.25.29,1.74.37l15.45.37,5.23-.74v7.84l1,7.73-6.1.87-7.85-.25-8.1-.62-5.61.75.38,5.35-.38,5.73,1.37,5.24,3.87.12a9.7,9.7,0,0,1,3.3,0c1.78.17,3.34.29,4.67.37l11.09-.62a11.58,11.58,0,0,0,.25,1.5c.16.83.33,1.76.49,2.8s.33,2.14.5,3.3a20.45,20.45,0,0,1,.25,2.87l-1.24,7,.49,7.6-13.7.13-9-.5.37,2.61v8.72l1.37,5,5.49-.25,5.73,1.12,5.35-.87h11.34v8.72l-.5,6Z"/><path class="cls-5" d="M488.65,346.7h-4.86l-5,.75-4.36-.75H467l-2.37.13-9.22-27.16-4-10.09-4.73-5.73.75,4.48v5.49l.74,5.48v22.05l.75,5.48h-5.48l-5.48.75-4.73-.75h-11v-5.48l.75-5.48V324.78l.87-5.48V297.37l.75-5.48V275.45l.75-5.49v-5.6l.87-5.36v-5.6l5.36.87,5.85-.87.13-.38h7.35a7.29,7.29,0,0,0,.56,1.62,17.16,17.16,0,0,0,1.06,2.24l2,4.74,2.37,4.23,3,5.86,1.12,7.1,4.11,5.48,1.62,4.24,3.24,8.34,2.11,8v-7.6l.63-5.48V275.45l.74-5.49v-5.6l.75-5.36v-5.6l4.86.87,5.73-.87h5.61v11l1.49,5.6-.75,5.49.75,5.48v5.35l.62,5.49-.62,5.48.62,5.48.75,5.48v5.48l.75,5.48v22.05Z"/><path class="cls-5" d="M119.66,444.84V428.4l.87-5.11-.87-5.23,1.74-5.23V379.94l1.75-6.11,4.23.75h5.36l5.11-.75h5.23l4.36.75h5.11l5.23-.75,4.23,3.49,3.62,3.37,4.23,3.61v5.11l.87,5.23v11.21l1,5.23v5.24l.75,5.1-.75,5.23.75,5.24.87,5.1v5.24l.87,5.35.87,5.11v6.11l-4.36,2.49L168.12,464l-3.37,3.36H149.18l-5.23-.87-5.36.87-5.1-.87-5.24.87h-5.1l-4.36-.87V451Zm21.67-50.2v5.23l.88,5.11v6.1l.87,5.24v10.33l.87,5.24v15.69l.75,5.86h8.72l3.49-3.36-.88-5.24v-5.1l.88-5.24v-5.23l-.88-5.11.88-5.23-.88-6.1v-5.11l.88-5.23-.88-5.36.88-5.11-3.49-2.61h-6l-7-.88Z"/><path class="cls-5" d="M238.25,467.39l-5.35-.25-5.61.75-5.23-.75-5.86.75H205.36l-5.23-.5-5.48.5h-5.48l-5.36-.5.5-5.23.25-5.48-.25-5.86.25-5.35v-5.36l.5-5.86v-5.48l1.24-5.35-.37-5.49.37-5.73.38-5.35-.38-5.48.38-5.24.5-5.85.25-5.61,1-5.35V374l5,.5,5.35-.5h5.36l2.24-.87c-.17-.08,0-.08.37,0s.92.21,1.5.37,1.2.33,1.87.5,1.24.29,1.74.37l15.45.38,5.23-.75v7.85l1,7.72-6.11.87-7.84-.25-8.1-.62-5.61.75.38,5.35-.38,5.74,1.37,5.23,3.87.12a10.3,10.3,0,0,1,3.3,0c1.78.17,3.34.29,4.67.38l11.09-.63a12.73,12.73,0,0,0,.24,1.5c.17.83.34,1.76.5,2.8s.33,2.14.5,3.3a20.58,20.58,0,0,1,.25,2.87l-1.25,7,.5,7.6-13.7.13-9-.5.37,2.62v8.72l1.37,5,5.49-.25,5.73,1.12,5.35-.87h11.34v8.72l-.5,6Z"/><path class="cls-5" d="M339.13,436.15l.64,5.53.65,5,.64,5.66V458l-5.14,3.72-4.89,5-5.14-.64-5.53.64h-10l-5.66.64-5.14-.64-4.89.64-5-.64-3.73-3.09L282,459.81l-3.72-2.45.64-5.65V435.38l.64-5v-5.65l.52-5.53.64-5.15v-5.65l-.64-5.53.64-5.14.64-5.53v-10.8l4.5-3.6,3.73-3.73,3.73-3.22H306l5.66.52,6.17-.52,6.3-.64,7.58,7.59,4.25,3.6v5.14l.77,5.66v5.53l.51,2.31h-4.11l-3,.77-10.93-.64.52-5.53V389l-3.86-2.44-7.46-.64L305.32,389l-.65,6.3.65,5.66-.65,5.66v17.48l.65,8.87L304,438.46v6.3l3.73,2.45h8.74l3.22-2.45v-9.64l4.88-.64,6.56.64,4.5-.64,3.47,1.41Z"/><path class="cls-5" d="M401.49,466.75l-5.14-.64-5.53.64h-10l-5.66.64-5.14-.64-4.89.64-5-.64-3.73-3.09-3.86-3.85-3.73-2.45.65-5.65V435.38l.64-5v-5.65l.51-5.53.65-5.15v-5.65l-.65-5.53.65-5.14.64-5.53v-10.8l4.5-3.6,3.73-3.73,3.73-3.22h12.6l5.65.52,6.18-.52,6.3-.64,7.58,7.59,4.24,3.6v5.14l.78,5.66v5.53l1.28,5.14V414l.64,5.79.52,4.89.64,5.65-.64,5.79.64,5.53.64,5,.65,5.66V458l-5.15,3.72Zm-11.32-22V432.93l-.64-8.87.64-6.3.65-5.53-1.29-5.65v-5.66l.64-6.3V389l-3.85-2.44-7.46-.64L375.77,389l-.64,6.3.64,5.66-.64,5.66v17.48l.64,8.87-1.28,5.53v6.3l3.73,2.45H387Z"/><path class="cls-5" d="M482.49,378.29v7.33l-5.4.26H460.63l.65,2.18-.78,5.66.78,5.66V405l.77,5.66-.77,5.66.77,5.66.9,5.65v5.66l-.52,5.66,1.29,5.65v17.1l.77,5.66h-5.66l-5.65.77-4.89-.77H437v-5.66l.77-5.65V444.63l.9-5.65V416.35l.77-5.66L441,405l-1.54-5.65v-5.66l.77-5.66v-2.31l-3.09.13-21.21.64v-3.47l-.51-5,.9-3.6-.39-3.47,4.63.26h17l6.56.77,7.71-1.28,5,.12,2.7.13h.12l5.15.26,17.1-.13.38,3.6Z"/><path class="cls-5" d="M541.63,466.75l-5.14-.64-5.53.64h-10l-5.66.64-5.14-.64-4.88.64-5-.64-3.73-3.09-3.85-3.85-3.73-2.45.64-5.65V435.38l.64-5v-5.65l.52-5.53.64-5.15v-5.65l-.64-5.53.64-5.14.64-5.53v-10.8l4.5-3.6,3.73-3.73,3.73-3.22h12.6l5.66.52,6.17-.52,6.3-.64,7.58,7.59,4.25,3.6v5.14l.77,5.66v5.53l1.28,5.14V414l.65,5.79.51,4.89.64,5.65-.64,5.79.64,5.53.65,5,.64,5.66V458l-5.14,3.72Zm-11.31-22V432.93l-.65-8.87.65-6.3.64-5.53-1.29-5.65v-5.66l.65-6.3V389l-3.86-2.44-7.46-.64L515.92,389l-.65,6.3.65,5.66-.65,5.66v17.48l.65,8.87-1.29,5.53v6.3l3.73,2.45h8.74Z"/><path class="cls-5" d="M622.76,436.15l.64,5.53.65,5,.64,5.66V458l-5.14,3.72-4.89,5-5.14-.64-5.53.64H594l-5.66.64-5.14-.64-4.88.64-5-.64-3.73-3.09-3.85-3.85L562,457.36l.64-5.65V435.38l.64-5v-5.65l.52-5.53.64-5.15v-5.65l-.64-5.53.64-5.14.64-5.53v-10.8l4.5-3.6,3.73-3.73,3.73-3.22h12.6l5.66.52,6.17-.52,6.3-.64,7.58,7.59,4.25,3.6v5.14l.77,5.66v5.53l.51,2.31h-4.11l-3,.77-10.93-.64.52-5.53V389l-3.86-2.44-7.46-.64L589,389l-.65,6.3.65,5.66-.65,5.66v17.48l.65,8.87-1.29,5.53v6.3l3.73,2.45h8.74l3.22-2.45v-9.64l4.88-.64,6.56.64,4.5-.64,3.47,1.41Z"/><path class="cls-5" d="M685.5,388.06l1.55,11.32v17.35l.9,5.66v5.27l.77,5.66V439l.77,5.4-.77,5.65v5.4l.77,6.56v4.76l-5.66.64-6.17-.64-5.66.64V450.93l-.77-5.65v-5.4h-13.5v5.4l-.77,5.65v5.4l-.9,5.66.9,5.4-6.17-.64-6.56.64-5.4-.64-6.43.64v-6.3l.78-5.66.9-5.4V427.66l.77-5.27.77-6.56-.77-5.4.77-5.65V393.72l.77-5.66v-5.4l.9-5.65-.9-5.4,5.4-.78h5.66l5.65.78h5.4l5.66-.78h4.63l5.66.78,5.65-.78h5.4Zm-22.11,27.77,6.17.9v-12l-.77-5.4V393l-.77-5.4-4.63-.77-5.66.77v11.83l-.77,5.4v5.65l-.9,6.3Z"/></g></g></svg>