<svg xmlns="http://www.w3.org/2000/svg" xmlns:xlink="http://www.w3.org/1999/xlink" viewBox="0 0 869.74 925.59"><defs><style>.cls-1{fill:url(#Degradado_sin_nombre_120);}.cls-2{fill:url(#Degradado_sin_nombre_128);}.cls-3{fill:#f7ac00;}.cls-4{fill:#fff;}.cls-5{fill:url(#Degradado_sin_nombre_47);}</style><linearGradient id="Degradado_sin_nombre_120" x1="57.97" y1="333.44" x2="869.74" y2="333.44" gradientUnits="userSpaceOnUse"><stop offset="0.07" stop-color="#391d57"/><stop offset="0.23" stop-color="#582f75"/><stop offset="0.43" stop-color="#54376c"/><stop offset="0.84" stop-color="#52346e"/></linearGradient><linearGradient id="Degradado_sin_nombre_128" x1="463.85" y1="661.27" x2="463.85" y2="6.81" gradientUnits="userSpaceOnUse"><stop offset="0.07" stop-color="#341853"/><stop offset="0.15" stop-color="#3a1e58" stop-opacity="0.81"/><stop offset="0.33" stop-color="#452861" stop-opacity="0.45"/><stop offset="0.5" stop-color="#4d3068" stop-opacity="0.2"/><stop offset="0.67" stop-color="#51346c" stop-opacity="0.05"/><stop offset="0.84" stop-color="#53366d" stop-opacity="0"/></linearGradient><linearGradient id="Degradado_sin_nombre_47" y1="462.79" x2="57.97" y2="462.79" gradientUnits="userSpaceOnUse"><stop offset="0" stop-color="#6a6a6b"/><stop offset="0.56" stop-color="#cbccca"/><stop offset="1" stop-color="#6a6a6b"/></linearGradient></defs><g id="Capa_2" data-name="Capa 2"><g id="_Layer_" data-name="&lt;Layer&gt;"><path class="cls-1" d="M58,614.49c306.14-187.24,505.63,179,811.77-8.23-50.13-15.58-85.15-64.77-109.66-121.69a94.5,94.5,0,0,1-4.53-13.08c-24.2-90.81-24.61-125,28.05-213.06,18.69-31.26,41.12-71,78-127.51-126.66,17.37-155.82,4.47-218.21-9.27C463.13,82,383.44-5.41,232.21,6.75,154.52,13,93.89,42.62,58,63.81Z"/><path class="cls-2" d="M58,614.49c306.14-187.24,505.63,179,811.77-8.23-44.91-14-76.73-54-101.44-103.17a266.33,266.33,0,0,1-23.95-71.87c-9.81-54-8.61-94.14,33.48-163.23,19.92-32.69,43-74.6,83.75-137.07-16.23,2.34-40.89,5.38-71,7-51.6,2.75-111.66,8.31-244-44C512,80.28,492.39,68.7,430.44,45.78c-38.37-14.19-70.5-24.43-92.19-31C298,6.72,225.76-1.59,143.7,24.33A378.43,378.43,0,0,0,58,63.81Z"/><path class="cls-3" d="M196.51,209.67l8.15-.58,8.73,3.68,5.06,4.71-.81,6.89.81,5.4-.35,13.56.69,8.15-9.65,8.85-8.15-.57-4.48.8-14.25-2.3-7.7.58-6.77-10.92-.23-15,1.6-3.9,6.67.46,6.2-.81,3.33,2.3-.23,9.54,2.64,2.06h7.13l3.1-6.31.34-7.82-4.59-5.74-9.77-.92L179.39,219l-7.35-3.1-.92-12.17,1.26-13.22-.34-7.92,9.65-8.5,10.45-.35a1.92,1.92,0,0,1,.92-.06l1.95.18c.77.07,1.55.13,2.36.17s1.51.06,2.12.06l8,.23,3.91-.23a3.72,3.72,0,0,1,1.15,1.09l1.89,2.3c.73.88,1.48,1.82,2.25,2.81s1.45,1.84,2.06,2.53V188l.81,1.61v5.62l.57,3.34-6.43,2.06-7-2.06-.46-4.14.69-3.1L203.17,188l-4.83.23-5.74-.58-2.3,3.1,1,8.39.46,4-.23,4.25Z"/><path class="cls-3" d="M279.1,174.17l5.4.35v4.94l.69,4.94V189l-.69,4.94.69,5.06-.34,4.59.69,4.94-.35,4.71v4.83l.35,4.94.34,4.71.35,4.94v4.59l.34,5v4.94l-.34,4.48-2.88,3-3.1,2.41-3,3.22-4.49-.34-4.59.69-4.71-.35h-23l-3.33-3.22-3.44-2.06-3.22-3.34v-4.82l.34-4.6.69-5-.34-4.94,1-4.59-.69-5.06.69-4.59v-4.83l.69-4.71.46-4.94v-4.94l-.8-4.71.34-4.94.81-4.59-.35-4.94.69-4.25,4.25-.69,9.19.69,4.71-.69v4.94l.35,4.94v4.94l.34,4.94v5.05l-.34,4.94.69,4.94v5l.34,4.6-.34,4.82v5.06l.68,4.94.35,4.59,2.18,3h3.79l3.91-.46,3-2.18.68-4.94-.34-4.94v-5.06l.34-4.82.35-4.94-.35-5.06,1-4.59-.69-4.94.69-5.05.34-4.94-.34-4.94.69-4.94-.69-4.94,5.28.34Z"/><path class="cls-3" d="M350.1,232.42l.57,4.94.58,4.48.57,5v5.05l-4.59,3.34-4.37,4.48-4.59-.58-4.94.58h-9l-5.06.57-4.59-.57-4.37.57-4.48-.57L302.54,257l-3.45-3.45-3.33-2.18.58-5.05V231.73l.57-4.48v-5.06l.46-4.94.57-4.59V207.6l-.57-4.94.57-4.59.58-4.94v-9.65l4-3.22,3.33-3.33,3.33-2.87h11.26l5.06.46,5.51-.46,5.63-.58,6.78,6.78,3.79,3.22v4.59l.69,5.06v4.94l.46,2.06H344.7l-2.64.69-9.77-.57.46-4.94v-5.06l-3.44-2.18-6.67-.57-2.75,2.75-.58,5.63.58,5.06-.58,5.05v15.63l.58,7.92-1.15,4.94v5.63l3.33,2.18h7.81l2.87-2.18V231.5l4.37-.58,5.86.58,4-.58,3.1,1.27Z"/><path class="cls-3" d="M381,245.51V251l-.8,6.31-2.42,3-5.17-.8-5.28.8-4.82-1.49-2.65-3.91v-8.5l3.22-3.91h15.28Z"/><path class="cls-4" d="M249.22,298.41l9.83.62v9l1.26,9v8.37l-1.26,9,1.26,9.2-.63,8.37,1.25,9-.62,8.58v8.78l.62,9,.63,8.57.63,9v8.37l.63,9.2v9l-.63,8.15L257,445l-5.65,4.4-5.44,5.85-8.15-.62-8.37,1.25-8.58-.63H178.94l-6.07-5.85-6.28-3.77-5.85-6.07v-8.78l.62-8.37,1.26-9.2-.63-9,1.88-8.37-1.25-9.2,1.25-8.37v-8.78l1.26-8.58.84-9v-9l-1.47-8.57.63-9,1.46-8.37-.62-9,1.25-7.74L175,299l16.74,1.26,8.57-1.26v9l.63,9v9l.63,9v9.21l-.63,9,1.25,9v9.2l.63,8.37-.63,8.78v9.21l1.26,9,.63,8.37,4,5.44h6.91l7.11-.84,5.44-4,1.25-9-.63-9v-9.21l.63-8.78.63-9-.63-9.2,1.88-8.37-1.25-9L230.6,335l.63-9-.63-9,1.26-9-1.26-9,9.63.63Z"/><path class="cls-4" d="M377.45,386.68l-2.72,8.16-5.85,4.81-7.12,4.81-13.59-.63-8.37-1.25-17.57.84.83,5.64v37l1.26,9.2h-9.2l-9.21,1.26-8-1.26H279.55v-9.2l1.26-9.21V418.27l1.46-9.21V372.25l1.26-9.21V335.43l1.25-9.2v-9.42l1.47-9v-9.41l9,1.46,10.67-1.46h9.41l5-.84,15.06,1.88,13.8-2.51,9.62.42,10.67,7.11,4.19,7.95L372.43,326l4,13.39L376,370.36Zm-33.26-23.22-1.88-11.29V340.45l-.84-12.13-2.93-4.39h-9.41L321,325l-1.88,1.26-1.26,9.2v.21l1.26,9v9.2l1.05,5.44v2.3l.21,1.46v.42l3.34,2.09,8.16,2.1h8.58Z"/><path class="cls-4" d="M442.72,363l14.85-1,15.9,6.69,9.2,8.58-1.47,12.55,1.47,9.83L482,422.24l1.26,16.95-17.57,16.1-14.86-1-8.15,1.46-25.94-4.18-14,1L390.42,432.7,390,405.3l2.93-7.11,12.13.83,11.3-1.46,6.07,4.18L422,417l4.81,3.77h13l5.64-9.42.63-14.22-8.37-10.46L419.91,385l-8.36-5-13.39-5.65-1.67-22.17,2.3-24.06-.63-14.43,17.57-15.48,19-.63c.13-.14.69-.17,1.67-.11s2.16.18,3.56.32,2.82.24,4.28.31,2.76.11,3.87.11l14.65.41,7.11-.41a6.91,6.91,0,0,1,2.09,2l3.45,4.19q2,2.4,4.08,5.12t3.77,4.6v9.42l1.46,2.93v10.25l1.05,6.06-11.72,3.77-12.76-3.77-.83-7.53,1.25-5.65-6.9-6.06-8.79.42-10.46-1.05-4.18,5.65,1.88,15.27.84,7.32-.42,7.74Z"/><path class="cls-4" d="M586.84,326.23l2.51,18.41v28.23l1.47,9.21v8.58l1.25,9.2v9.2l1.26,8.79-1.26,9.2v8.79l1.26,10.67v7.74l-9.21,1-10-1-9.2,1V428.52l-1.26-9.21v-8.78h-22v8.78l-1.26,9.21v8.78l-1.46,9.21,1.46,8.78-10-1-10.66,1-8.79-1-10.46,1V445l1.26-9.2,1.46-8.79V390.66l1.26-8.58,1.25-10.67-1.25-8.79,1.25-9.2v-18l1.25-9.2v-8.79l1.47-9.2-1.47-8.79,8.79-1.25h9.21l9.2,1.25h8.78l9.21-1.25h7.53l9.2,1.25,9.21-1.25h8.78Zm-36,45.18,10,1.46V353.42l-1.25-8.78V334.18l-1.26-8.79-7.53-1.25-9.2,1.25v19.25l-1.26,8.78v9.2l-1.46,10.25Z"/><rect class="cls-5" width="57.97" height="925.59"/></g></g></svg>