<svg xmlns="http://www.w3.org/2000/svg" xmlns:xlink="http://www.w3.org/1999/xlink" viewBox="0 0 937.07 925.59"><defs><style>.cls-1{fill:url(#Degradado_sin_nombre_120);}.cls-2{fill:url(#Degradado_sin_nombre_128);}.cls-3{fill:#f7ac00;}.cls-4{fill:#fff;}.cls-5{fill:url(#Degradado_sin_nombre_47);}</style><linearGradient id="Degradado_sin_nombre_120" x1="57.97" y1="333.44" x2="937.07" y2="333.44" gradientUnits="userSpaceOnUse"><stop offset="0.07" stop-color="#391d57"/><stop offset="0.23" stop-color="#582f75"/><stop offset="0.43" stop-color="#54376c"/><stop offset="0.84" stop-color="#52346e"/></linearGradient><linearGradient id="Degradado_sin_nombre_128" x1="497.52" y1="661.27" x2="497.52" y2="6.81" gradientUnits="userSpaceOnUse"><stop offset="0.07" stop-color="#341853"/><stop offset="0.15" stop-color="#3a1e58" stop-opacity="0.81"/><stop offset="0.33" stop-color="#452861" stop-opacity="0.45"/><stop offset="0.5" stop-color="#4d3068" stop-opacity="0.2"/><stop offset="0.67" stop-color="#51346c" stop-opacity="0.05"/><stop offset="0.84" stop-color="#53366d" stop-opacity="0"/></linearGradient><linearGradient id="Degradado_sin_nombre_47" y1="462.79" x2="57.97" y2="462.79" gradientUnits="userSpaceOnUse"><stop offset="0" stop-color="#6a6a6b"/><stop offset="0.56" stop-color="#cbccca"/><stop offset="1" stop-color="#6a6a6b"/></linearGradient></defs><g id="Capa_2" data-name="Capa 2"><g id="_Layer_" data-name="&lt;Layer&gt;"><path class="cls-1" d="M58,614.49c306.14-187.24,573,179,879.1-8.23-50.13-15.58-85.15-64.77-109.66-121.69a95.84,95.84,0,0,1-4.53-13.08c-24.2-90.81-24.61-125,28-213.06,18.69-31.26,41.12-71,78-127.51-126.65,17.37-223.15,4.47-285.54-9.27C463.13,82,383.44-5.41,232.21,6.75,154.52,13,93.89,42.62,58,63.81Z"/><path class="cls-2" d="M58,614.49c306.14-187.24,573,179,879.1-8.23-44.91-14-76.73-54-101.43-103.17a266.35,266.35,0,0,1-24-71.87c-9.81-54-8.61-94.14,33.49-163.23,19.91-32.69,43-74.6,83.74-137.07-16.23,2.34-40.89,5.38-71,7-51.61,2.75-179,8.31-311.3-44C512,80.28,492.39,68.7,430.44,45.78c-38.37-14.19-70.5-24.43-92.19-31C298,6.72,225.76-1.59,143.7,24.33A378.43,378.43,0,0,0,58,63.81Z"/><path class="cls-3" d="M199,179.08l7.39-.52,7.92,3.33,4.58,4.27-.73,6.25.73,4.9-.31,12.29.62,7.39-8.75,8-7.39-.52-4.06.73-12.92-2.08-7,.52-6.14-9.9-.21-13.64,1.46-3.54,6,.41,5.62-.72,3,2.08-.2,8.64,2.39,1.88h6.46l2.81-5.73.31-7.08-4.16-5.21-8.86-.83-4.16-2.5-6.67-2.82-.83-11,1.15-12-.32-7.19,8.75-7.71,9.48-.31c.07-.07.35-.09.83,0s1.08.09,1.77.15,1.41.13,2.14.16,1.37,0,1.93,0L209,147l3.54-.21a3.46,3.46,0,0,1,1,1l1.72,2.08c.66.8,1.33,1.65,2,2.56s1.32,1.66,1.87,2.29v4.68l.73,1.46V166l.52,3-5.83,1.87L208.28,169l-.42-3.75.63-2.82-3.44-3-4.38.21-5.2-.52-2.09,2.81.94,7.61.42,3.64-.21,3.86Z"/><path class="cls-3" d="M273.9,146.9l4.89.31v4.48l.63,4.48v4.16l-.63,4.48.63,4.58-.32,4.17.63,4.48-.31,4.27v4.37l.31,4.48.31,4.27.31,4.48v4.17l.32,4.58v4.48l-.32,4.06-2.6,2.71-2.81,2.19L272.23,225l-4.06-.31-4.17.62-4.27-.31H238.9l-3-2.91-3.13-1.88-2.91-3v-4.37l.31-4.17.62-4.58-.31-4.48.94-4.17-.63-4.58.63-4.17v-4.37L232,178l.42-4.48v-4.48l-.73-4.27.31-4.48.73-4.16-.31-4.48.63-3.86,3.85-.62,8.33.62,4.27-.62v4.48l.32,4.48v4.47l.31,4.48v4.59l-.31,4.47.62,4.48v4.59l.31,4.16-.31,4.38v4.58l.62,4.48.32,4.16,2,2.71h3.43l3.55-.41,2.7-2,.63-4.48-.31-4.48v-4.58l.31-4.38.31-4.48-.31-4.58.94-4.17-.63-4.47.63-4.59.31-4.48-.31-4.47.62-4.48-.62-4.48,4.79.31Z"/><path class="cls-3" d="M338.26,199.7l.52,4.48.53,4.06.52,4.59v4.58l-4.17,3-4,4.06-4.16-.52-4.48.52h-8.13l-4.58.52-4.17-.52-3.95.52-4.07-.52-3-2.5L292,218.87l-3-2,.52-4.58V199.08L290,195v-4.59l.42-4.48.52-4.16V177.2l-.52-4.47.52-4.17.52-4.48v-8.75l3.64-2.91,3-3,3-2.61h10.21l4.59.42,5-.42,5.11-.52,6.14,6.15,3.44,2.91v4.17l.62,4.58v4.48l.42,1.88h-3.33l-2.4.62-8.85-.52.42-4.48v-4.58l-3.13-2-6-.52-2.5,2.5-.52,5.1.52,4.58-.52,4.59v14.16l.52,7.19-1,4.48v5.1l3,2h7.08l2.61-2v-7.81l3.95-.52,5.32.52,3.64-.52,2.81,1.14Z"/><path class="cls-3" d="M366.28,211.58v5l-.73,5.72L363.36,225l-4.68-.73-4.79.73-4.38-1.35-2.39-3.54v-7.71l2.91-3.54h13.86Z"/><path class="cls-4" d="M199.48,296.19l9.06-.64,9.7,4.08,5.62,5.24-.89,7.66.89,6-.38,13.78.76,10.34-10.72,9.83-9.07-.63-5,.89-15.83-2.55-8.56.63-7.53-12.12L167.31,322l1.78-4.34,7.41.51,6.89-.89,3.7,2.55-.25,9.32,2.93,2.3h7.92l3.45-5.74.38-8.69-5.11-6.38-10.85-1-5.11-3.06-8.17-3.45-1-13.53,1.41-14.68-.39-8.81L183,256.61l11.61-.38c.09-.09.43-.11,1-.07s1.31.11,2.17.2,1.72.14,2.61.19,1.68.06,2.37.06l8.93.26,4.34-.26a4.27,4.27,0,0,1,1.28,1.21c.59.73,1.3,1.58,2.11,2.56s1.63,2,2.48,3.12,1.62,2.05,2.3,2.81v5.75l.9,1.79v6.25l.63,3.7-7.14,2.3-7.79-2.3-.51-4.59.76-3.45-4.21-3.7-5.36.25-6.38-.64-2.56,3.45,1.15,9.32.51,4.47-.25,4.72Z"/><path class="cls-4" d="M300.71,352.48H295.1l-5.62.77-4.85-.77H273.39v-5.61l.77-5.62V329.89l.89-5.62v-8.94l-2.17-.25H265l-4.47.64v2.93l.77,5.62v22.6l.76,5.61h-5.62l-5.61.77-4.85-.77H234.71v-5.61l.77-5.62V329.89l.89-5.62V301.8l.77-5.61V279.33l.76-5.61V268l.9-5.49v-5.74l5.49.89,6.51-.89h6.38V268l1.66,5.75-.77,5.61.77,5.62v2.94H259l-.13.89v1.79l.13.76,5.23.64,5.75-1.4h5.87V279.33l.76-5.61V268l.9-5.49v-5.74l5.49.89,6.51-.89h6.38V268l1.66,5.75-.76,5.61.76,5.62v5.62l.77,5.62-.77,5.61.77,5.62.89,5.62v5.61l.77,5.62v22.6Z"/><path class="cls-4" d="M363.27,351.85l-5.11-.64-5.49.64h-10l-5.61.63-5.11-.63-4.85.63-5-.63-3.7-3.07L314.63,345l-3.7-2.42.63-5.62V320.7l.64-5V310.1l.51-5.49.64-5.11v-5.61l-.64-5.49.64-5.11.64-5.49V267.08l4.47-3.58,3.7-3.7,3.7-3.19h12.51l5.62.51,6.13-.51,6.25-.64,7.54,7.53,4.21,3.58v5.11l.76,5.61v5.49l1.28,5.11v11.1l.64,5.75.51,4.85.64,5.62-.64,5.74L372,327l.64,5,.64,5.62v5.62l-5.11,3.7ZM352,330V318.27l-.64-8.81.64-6.25.64-5.49-1.28-5.62v-5.62l.64-6.25v-5.62l-3.83-2.42-7.4-.64-3.07,3.06-.63,6.26.63,5.61-.63,5.62v17.36l.63,8.81-1.27,5.49V330l3.7,2.42h8.68Z"/><path class="cls-4" d="M443.19,310.61l-1.66,5L438,318.53l-4.34,2.93-8.3-.38-5.1-.77-10.73.51.51,3.45v22.6l.77,5.61h-5.62l-5.62.77-4.85-.77H383.44v-5.61l.77-5.62V329.89l.89-5.62V301.8l.76-5.61V279.33l.77-5.61V268l.89-5.49v-5.74l5.49.89,6.51-.89h5.75l3.06-.51,9.19,1.15,8.43-1.54,5.87.26,6.51,4.34,2.56,4.85-.77,8.3,2.43,8.17-.26,18.89Zm-20.3-14.17-1.15-6.89V282.4l-.51-7.41-1.79-2.68h-5.75l-5,.64-1.15.77-.77,5.61v.13l.77,5.49v5.62l.64,3.32v1.4l.12.9v.25l2.05,1.28,5,1.27h5.23Z"/><path class="cls-4" d="M511.87,310.61l-1.66,5-3.58,2.94-4.34,2.93-8.3-.38-5.1-.77-10.73.51.51,3.45v22.6l.77,5.61h-5.62l-5.61.77-4.86-.77H452.12v-5.61l.77-5.62V329.89l.89-5.62V301.8l.77-5.61V279.33l.76-5.61V268l.9-5.49v-5.74l5.48.89,6.52-.89H474l3.06-.51,9.2,1.15,8.42-1.54,5.87.26,6.51,4.34,2.56,4.85-.77,8.3,2.43,8.17L511,300.65Zm-20.3-14.17-1.15-6.89V282.4l-.51-7.41-1.79-2.68h-5.74l-5,.64-1.15.77-.77,5.61v.13l.77,5.49v5.62l.64,3.32v1.4l.12.9v.25l2.05,1.28,5,1.27h5.23Z"/><path class="cls-4" d="M542.5,352.48l-5.61.77-4.85-.77H520.8v-5.61l.77-5.62V329.89l.89-5.62V301.8l.77-5.61V279.33l.76-5.61V268l.9-5.49v-5.74l5.49.89,6.51-.89h6.38V268l1.66,5.75-.77,5.61.77,5.62v5.62l.77,5.62-.77,5.61.77,5.62.89,5.62v5.61l.77,5.62v22.6l.76,5.61Z"/><path class="cls-4" d="M626.38,352.36h-5l-5.11.76-4.46-.76h-7.66l-2.43.12-9.45-27.83-4.08-10.34-4.85-5.87.76,4.6v5.61l.77,5.62v22.6l.77,5.61H580l-5.62.77-4.85-.77H558.34v-5.61l.76-5.62V329.89l.9-5.62V301.8l.76-5.61V279.33l.77-5.61V268l.89-5.49v-5.74l5.49.89,6-.89.13-.38h7.53a7.85,7.85,0,0,0,.58,1.66,19.47,19.47,0,0,0,1.08,2.29l2,4.85,2.43,4.34,3.06,6,1.15,7.28,4.21,5.62,1.66,4.34,3.32,8.55,2.17,8.17v-7.78l.64-5.62V279.33l.77-5.61V268l.76-5.49v-5.74l5,.89,5.87-.89H622V268l1.53,5.75-.76,5.61.76,5.62v5.49l.64,5.62-.64,5.62.64,5.61.77,5.62v5.62l.76,5.61v22.6Z"/><path class="cls-4" d="M698.89,337.55v5.62l-5.1,3.7-4.86,5-5.1-.64-5.49.64h-10l-5.62.63-5.1-.63-4.85.63-5-.63-3.71-3.07L640.29,345l-3.7-2.42.64-5.62V320.7l.64-5V310.1l.51-5.49.64-5.11v-5.61l-.64-5.49.64-5.11.64-5.49V267.08l4.46-3.58,3.71-3.7,3.7-3.19H664l5.62.51,6.12-.51L682,256l7.53,7.53,4.22,3.58v5.11l.76,5.61v5.49l.51,2.3H691l-2.94.77-10.85-.64.51-5.49v-5.62l-3.83-2.42h-.13l-7.27-.64-3.07,3.06-.64,6.26.64,5.61-.64,5.62v17.36l.64,8.81-1.28,5.49V330l3.71,2.42h8.68L677.7,330V317.63l-6.13-1v-4l-.76-5,1-6,10.72-1,6.51.64,4.47-.64,3.45,1.41v.25l.12,6.39,1.28,5.36.13,3.32-.9,9.57.64,5Z"/><path class="cls-4" d="M216.33,411.47c.17.85.34,1.81.51,2.87s.34,2.2.51,3.39a21.45,21.45,0,0,1,.25,2.93l-1.27,7.15.51,7.79-14,.13-8.43-.39v3.19l.77,5.62v22.6l.76,5.62h-5.62l-5.61.76-4.85-.76H168.58v-5.62l.77-5.62V449.77l.89-5.62V421.68l.77-5.61V399.22l.76-5.62v-5.75l.9-5.49v-5.74l5.49.89,13.53-1.78c-.17-.09,0-.09.38,0s.94.21,1.53.38,1.24.34,1.92.51,1.28.3,1.79.38l15.83.39,5.36-.77v8l1,7.92-6.26.89-8-.25-8.3-.64-4.34.64.13.38-.77,5.62.77,5.61v5.24l3.83.12a10.81,10.81,0,0,1,3.38,0c1.83.18,3.43.3,4.79.39l11.36-.64A13.26,13.26,0,0,0,216.33,411.47Z"/><path class="cls-4" d="M250.16,472.37l-5.62.76-4.85-.76H228.45v-5.62l.77-5.62V449.77l.89-5.62V421.68l.77-5.61V399.22l.77-5.62v-5.75l.89-5.49v-5.74l5.49.89,6.51-.89h6.38v11.23l1.66,5.75-.76,5.62.76,5.61v5.62l.77,5.62-.77,5.61.77,5.62.89,5.62v5.61l.77,5.62v22.6l.76,5.62Z"/><path class="cls-4" d="M266.88,449.26V432.41l.89-5.24-.89-5.36,1.79-5.36v-33.7l1.79-6.26,4.34.77h5.49l5.23-.77h5.36l4.47.77h5.23l5.37-.77,4.34,3.58,3.7,3.44,4.34,3.71v5.23l.89,5.36V409.3l1,5.36V420l.77,5.24-.77,5.36L321,436l.89,5.24v5.36l.9,5.49.89,5.23v6.26l-4.47,2.55-2.68,2.81-3.44,3.45h-16l-5.36-.9-5.49.9-5.24-.9-5.36.9h-5.23l-4.47-.9v-16Zm22.22-51.45v5.36l.89,5.24v6.25l.89,5.36v10.6l.9,5.36v16.09l.76,6h8.94l3.57-3.45-.89-5.36V444l.89-5.37V433.3l-.89-5.23.89-5.37-.89-6.25v-5.23l.89-5.37-.89-5.49.89-5.23-3.57-2.68h-6.13l-7.15-.89Z"/><path class="cls-4" d="M385.35,393.6l1.53,11.23v17.24l.9,5.61v5.24l.76,5.61v5.62l.77,5.36-.77,5.62v5.36l.77,6.51v4.73l-5.62.64-6.13-.64-5.61.64V456l-.77-5.62v-5.36H357.77v5.36L357,456v5.36l-.89,5.61.89,5.37-6.13-.64-6.51.64-5.36-.64-6.38.64v-6.26l.76-5.62.9-5.36V432.92l.76-5.24.77-6.51-.77-5.36.77-5.62v-11l.76-5.62v-5.36l.9-5.62-.9-5.36,5.36-.77h5.62l5.62.77h5.36l5.62-.77h4.59l5.62.77,5.62-.77h5.36Zm-22,27.57,6.13.9V410.19l-.77-5.36v-6.38l-.76-5.36-4.6-.77-5.62.77v11.74l-.76,5.36v5.62l-.89,6.26Z"/><path class="cls-4" d="M414.84,376.62h5.62l.25,5.49v5.49l1.41,5.74.38,5.49-.38,5.87,1.53,5.62v5.49l1,5.49-.51,5.75v5.48l.77,5.37v8.93l1.4,5.11,5.62-.26,5.87,1.15,5.49-.89h11.62v8.94l-.51,6.12.89,5.37-5.49-.26-5.74.77-5.37-.77-6,.77h-11.1l-5.37-.51-5.61.51H405l-5.49-.51L400,467l.26-5.61-.26-6,.26-5.49v-5.49l.51-6v-5.62l1.27-5.49-.38-5.62.38-5.87.39-5.49-.39-5.62.39-5.36.51-6,.25-5.74,1-5.49v-5.49l5.11.51Z"/><path class="cls-4" d="M527.82,457.43v5.62l-5.1,3.7-4.86,5-5.1-.64-5.49.64h-10l-5.62.64-5.1-.64-4.86.64-5-.64-3.71-3.07-3.83-3.83-3.7-2.42.64-5.62V440.58l.64-5V430l.51-5.49.64-5.1v-5.62l-.64-5.49.64-5.11.64-5.49V387l4.46-3.57,3.71-3.71,3.7-3.19H493l5.62.51,6.12-.51,6.26-.64,7.53,7.54,4.22,3.57v5.11l.76,5.61v5.49l.51,2.3h-4.08l-2.94.77-10.85-.64.51-5.49v-5.62l-3.83-2.42h-.13l-7.27-.64-3.07,3.06-.64,6.26.64,5.61-.64,5.62v17.36l.64,8.81-1.28,5.49v6.26l3.71,2.42h8.68l3.19-2.42V437.51l-6.13-1v-4l-.76-5,1-6,10.72-1,6.51.64,4.47-.64,3.45,1.41v.25l.12,6.39,1.28,5.36.13,3.32-.9,9.57.64,5Z"/><path class="cls-4" d="M590.76,393.6l1.53,11.23v17.24l.9,5.61v5.24l.76,5.61v5.62l.77,5.36-.77,5.62v5.36l.77,6.51v4.73l-5.62.64-6.13-.64-5.61.64V456l-.77-5.62v-5.36H563.18v5.36l-.76,5.62v5.36l-.9,5.61.9,5.37-6.13-.64-6.51.64-5.36-.64-6.39.64v-6.26l.77-5.62.89-5.36V432.92l.77-5.24.77-6.51-.77-5.36.77-5.62v-11l.76-5.62v-5.36l.9-5.62-.9-5.36,5.36-.77H553l5.62.77H564l5.62-.77h4.59l5.62.77,5.62-.77h5.36Zm-22,27.57,6.13.9V410.19l-.77-5.36v-6.38l-.76-5.36-4.6-.77-5.62.77v11.74l-.76,5.36v5.62l-.9,6.26Z"/><rect class="cls-5" width="57.97" height="925.59"/></g></g></svg>