<svg xmlns="http://www.w3.org/2000/svg" xmlns:xlink="http://www.w3.org/1999/xlink" viewBox="0 0 937.07 925.59"><defs><style>.cls-1{fill:url(#Degradado_sin_nombre_120);}.cls-2{fill:url(#Degradado_sin_nombre_128);}.cls-3{fill:#f7ac00;}.cls-4{fill:#fff;}.cls-5{fill:url(#Degradado_sin_nombre_47);}</style><linearGradient id="Degradado_sin_nombre_120" x1="57.97" y1="333.44" x2="937.07" y2="333.44" gradientUnits="userSpaceOnUse"><stop offset="0.07" stop-color="#391d57"/><stop offset="0.23" stop-color="#582f75"/><stop offset="0.43" stop-color="#54376c"/><stop offset="0.84" stop-color="#52346e"/></linearGradient><linearGradient id="Degradado_sin_nombre_128" x1="497.52" y1="661.27" x2="497.52" y2="6.81" gradientUnits="userSpaceOnUse"><stop offset="0.07" stop-color="#341853"/><stop offset="0.15" stop-color="#3a1e58" stop-opacity="0.81"/><stop offset="0.33" stop-color="#452861" stop-opacity="0.45"/><stop offset="0.5" stop-color="#4d3068" stop-opacity="0.2"/><stop offset="0.67" stop-color="#51346c" stop-opacity="0.05"/><stop offset="0.84" stop-color="#53366d" stop-opacity="0"/></linearGradient><linearGradient id="Degradado_sin_nombre_47" y1="462.79" x2="57.97" y2="462.79" gradientUnits="userSpaceOnUse"><stop offset="0" stop-color="#6a6a6b"/><stop offset="0.56" stop-color="#cbccca"/><stop offset="1" stop-color="#6a6a6b"/></linearGradient></defs><g id="Capa_2" data-name="Capa 2"><g id="_Layer_" data-name="&lt;Layer&gt;"><path class="cls-1" d="M58,614.49c306.14-187.24,573,179,879.1-8.23-50.13-15.58-85.15-64.77-109.66-121.69a95.84,95.84,0,0,1-4.53-13.08c-24.2-90.81-24.61-125,28-213.06,18.69-31.26,41.12-71,78-127.51-126.65,17.37-223.15,4.47-285.54-9.27C463.13,82,383.44-5.41,232.21,6.75,154.52,13,93.89,42.62,58,63.81Z"/><path class="cls-2" d="M58,614.49c306.14-187.24,573,179,879.1-8.23-44.91-14-76.73-54-101.43-103.17a266.35,266.35,0,0,1-24-71.87c-9.81-54-8.61-94.14,33.49-163.23,19.91-32.69,43-74.6,83.74-137.07-16.23,2.34-40.89,5.38-71,7-51.61,2.75-179,8.31-311.3-44C512,80.28,492.39,68.7,430.44,45.78c-38.37-14.19-70.5-24.43-92.19-31C298,6.72,225.76-1.59,143.7,24.33A378.43,378.43,0,0,0,58,63.81Z"/><path class="cls-3" d="M187.58,261.58l7.55-.53,8.09,3.4,4.68,4.36-.75,6.39.75,5-.32,12.56.64,7.55-8.94,8.19-7.55-.53-4.15.74-13.19-2.13-7.13.54L161,297l-.21-13.93,1.49-3.62,6.16.43,5.75-.75,3.08,2.13-.21,8.83L179.5,292h6.59l2.87-5.85.32-7.23L185,273.6l-9-.85-4.26-2.55-6.81-2.88-.85-11.27,1.17-12.23-.32-7.34,8.94-7.87,9.68-.32c.07-.07.35-.09.85-.06l1.81.16c.71.07,1.43.13,2.18.16s1.4.06,2,.06l7.44.21,3.62-.21a3.34,3.34,0,0,1,1.06,1l1.76,2.12q1,1.23,2.07,2.61t1.92,2.34v4.79L209,243v5.21l.53,3.08-6,1.92-6.49-1.92-.43-3.83.64-2.87-3.51-3.08-4.47.21-5.32-.53L181.84,244l.95,7.76.43,3.73-.21,3.93Z"/><path class="cls-3" d="M264.06,228.71l5,.32v4.58l.64,4.57v4.25l-.64,4.58.64,4.68-.32,4.25.64,4.58-.32,4.36v4.47l.32,4.57.32,4.36.31,4.57v4.26l.32,4.68v4.57l-.32,4.15L268,303.28l-2.88,2.23-2.76,3-4.15-.32-4.26.64-4.36-.32H228.32l-3.08-3L222,303.6l-3-3.09V296l.32-4.25.63-4.68-.32-4.58,1-4.25L220,273.6l.64-4.25v-4.47l.64-4.36.42-4.58v-4.57L221,247l.32-4.58.74-4.25-.32-4.57.64-3.94,3.94-.64,8.51.64,4.36-.64v4.58l.32,4.57v4.57l.32,4.58V252l-.32,4.57.64,4.57v4.69l.32,4.25-.32,4.47v4.68l.64,4.57.31,4.26,2,2.76h3.51l3.61-.42,2.77-2,.64-4.58-.32-4.57v-4.68l.32-4.47.31-4.57-.31-4.68,1-4.26L254,252l.64-4.68.32-4.58-.32-4.57.64-4.57-.64-4.58,4.9.32Z"/><path class="cls-3" d="M329.8,282.64l.53,4.57.53,4.15.53,4.68v4.68l-4.25,3.09-4,4.15-4.26-.53-4.57.53H306l-4.68.53L297,308l-4.05.53-4.15-.53-3.08-2.56-3.19-3.19-3.09-2,.54-4.68V282l.53-4.15v-4.68l.42-4.57.54-4.25v-4.68l-.54-4.58.54-4.25.53-4.58v-8.93l3.72-3,3.08-3.08,3.09-2.66h10.42L307,229l5.11-.42,5.21-.54,6.28,6.28,3.51,3v4.25l.64,4.68v4.58l.42,1.91h-3.4l-2.45.64-9-.53.43-4.58V243.6l-3.2-2-6.17-.53-2.55,2.55-.53,5.22.53,4.68-.53,4.68v14.46l.53,7.34-1.06,4.58v5.21l3.08,2h7.24l2.66-2v-8l4-.53,5.42.53,3.72-.53,2.88,1.17Z"/><path class="cls-3" d="M358.41,294.77v5.1l-.75,5.85-2.23,2.77-4.79-.75-4.89.75-4.47-1.38-2.44-3.62v-7.87l3-3.62H356Z"/><path class="cls-4" d="M198.92,422.55l1.22-2.9-.61-2.59.61-2.75-.61-2.74,1.22-5.19v-2.89l1.07-2.14v-5.49l.61-5.18-.61-5.49.91-2.75V379.7L204,364l1.07-2.6L204,358.65l.46-2.75.61-2.13v-2.59l.61-2.75v-2.9l.46-2.59v-2.59l-.46-3.2h3.2l2.6.3h2.13l3.36-.3,2.13.3h8.69v4.42l-1.06,2.75-2.29,13v2.59l.61,2.75v2.9l-1.53,2.59.46,2.74-.46,2.6v2.74l-1.22,2.14-1.06,10.83-.46,2.59V395l.46,2.59-.92,2.13v5.49l-1.68,8.09V416l.46,2.6-1.83,2.28.61,3.36L214.63,443l-1.07,2.74.46,2.59-.92,2.14H166.59l.61-3.81-1.07-2v-2.59l-3.35-17.84.61-3.05v-2.59l-.92-2.14v-5.34l-.61-2.74-1.22-2.6.46-2.89L160,400.13v-2.59l-.61-2-.46-2.9v-2.59l-.46-2.6v-8.23l-3.2-23.64-1.68-2.29-.61-2.74,1.22-2.6L153,345.08,152,339.74v-2.59l2.74-.61,2.75.91,2-.3,3.05.3h14.79l3.51-.3v5.18l.46,2.75V348l1.07,10.68.61,2.74.61,2v3.05L184,369v2.59l.92,2.75L184,377.1l.46,2.6,1.07,7.77.61,2.6-.61,2.59,1.22,2.9-.61,2.59,1.07,2.59.61,2.75v2.28l.3,2.6.61,2.74-.61,2.75.61,2.59.61,2.74V423Z"/><path class="cls-4" d="M302,450.46l-6.55-.31-6.87.92-6.4-.92-7.17.92H261.75l-6.4-.61-6.71.61h-6.71l-6.56-.61.61-6.41.3-6.71-.3-7.16.3-6.56v-6.56l.61-7.17v-6.71l1.53-6.56-.46-6.71.46-7,.46-6.56-.46-6.71.46-6.41.61-7.16.3-6.87,1.22-6.55v-6.56l6.1.61,6.56-.61h6.56L263,335c-.2-.1-.05-.1.46,0s1.12.26,1.83.46,1.47.41,2.29.61,1.52.36,2.13.46l18.91.45,6.41-.91v9.61l1.22,9.45-7.47,1.07-9.61-.31-9.92-.76-6.86.92.46,6.55-.46,7L264,376l4.73.15a11.79,11.79,0,0,1,4,0c2.18.2,4.09.36,5.72.46l13.57-.77a13.92,13.92,0,0,0,.31,1.83c.2,1,.4,2.16.61,3.43s.4,2.62.61,4.05a26.11,26.11,0,0,1,.3,3.5l-1.52,8.54.61,9.31-16.78.15-11-.61.46,3.2V420l1.67,6.1,6.72-.31,7,1.38,6.56-1.07h13.88v10.67l-.61,7.32Z"/><path class="cls-4" d="M394,450.31H388l-6.1.91-5.34-.91h-9.15l-2.9.15-11.28-33.25-4.88-12.35-5.8-7,.92,5.49V410l.91,6.72v27l.92,6.71h-6.72l-6.71.91-5.79-.91H312.69v-6.71l.91-6.71V423.46l1.07-6.7V389.91l.92-6.71V363.07l.91-6.71V349.5l1.07-6.56v-6.86l6.56,1.07,7.16-1.07.16-.46h9a9.28,9.28,0,0,0,.69,2,23.52,23.52,0,0,0,1.3,2.75l2.44,5.79,2.9,5.19,3.66,7.17,1.37,8.69,5,6.71,2,5.19,4,10.21,2.59,9.76v-9.3l.76-6.71v-20l.92-6.71V349.5l.91-6.56v-6.86l6,1.07,7-1.07h6.86V349.5l1.83,6.86-.92,6.71.92,6.71v6.56l.76,6.71-.76,6.71.76,6.71.92,6.71v6.71l.91,6.71v27Z"/><path class="cls-4" d="M481.21,344.77v8.69l-6.41.31H455.28l.77,2.59-.92,6.71.92,6.71v6.71l.91,6.71-.91,6.71.91,6.71,1.07,6.71V410l-.61,6.72,1.52,6.7v20.29l.92,6.71h-6.71l-6.71.91-5.8-.91H427.22v-6.71l.92-6.71V423.46l1.06-6.7V389.91l.92-6.71,1.83-6.71-1.83-6.71v-6.71l.91-6.71v-2.74l-3.66.15-25.16.76v-4.12l-.61-5.94,1.07-4.27-.46-4.12,5.49.3h20.13l7.78.92,9.15-1.53,5.95.16,3.2.15h.15l6.1.3,20.29-.15.45,4.27Z"/><path class="cls-4" d="M553.34,336.08l7.17.46v6.55l.92,6.56v6.1l-.92,6.56.92,6.71-.46,6.1.91,6.56-.45,6.25v6.41l.45,6.55.46,6.26.46,6.55v6.1l.46,6.72v6.55L562.8,439,559,443l-4.12,3.2-4,4.27L545,450l-6.1.92-6.26-.46H502.1l-4.42-4.27-4.58-2.75L488.83,439v-6.4l.46-6.1.92-6.72-.46-6.55,1.37-6.1-.91-6.71.91-6.1v-6.41l.92-6.25.61-6.56v-6.56l-1.07-6.25.46-6.56,1.06-6.1-.45-6.56.91-5.64,5.64-.91,12.2.91,6.26-.91v6.55l.45,6.56v6.56l.46,6.56v6.71l-.46,6.56.92,6.55v6.71l.46,6.1-.46,6.41v6.71l.91,6.56.46,6.1,2.9,4h5l5.19-.61,4-2.9.92-6.55-.46-6.56v-6.71l.46-6.41.46-6.55-.46-6.71,1.37-6.1-.91-6.56.91-6.71.46-6.56-.46-6.56.92-6.56-.92-6.55,7,.45Z"/><path class="cls-4" d="M653.09,448.78q.3.62-.54.69a2.78,2.78,0,0,0-1.29.38l-5.8,1.22c-.2.3-.66.38-1.37.23a9.19,9.19,0,0,0-1.83-.23l-4.88-.31-8.85-.76-7.32.46-.91-5.95-2.44-9.76-2.29-7.17V416.76l-3.51-3.36-2.29-5.8-1.22-3.66-2.28.31V410l.91,6.72v27l.92,6.71h-6.71l-6.71.91-5.8-.91H575.46v-6.71l.91-6.71V423.46l1.07-6.7V396.62l4.42-6.55-3.5-6.87V363.07l.91-6.71V349.5l1.07-6.56v-6.86l6.56,1.07,7.78-1.07h7.62v.3h.76a3.13,3.13,0,0,0,1.37.08c.72,0,1.58-.13,2.6-.23l3.05-.3c1-.1,1.93-.16,2.74-.16l8.24-.45,5.64,2.44,9.61,3.66,5.34,4.42,4,7.93,1.53,7.17-1.22,7.62c0,.21,0,.92.07,2.14s.1,2.57.16,4,.1,2.82.15,4a7.19,7.19,0,0,1-.08,2.14,11.29,11.29,0,0,0-.61,2.82,9.6,9.6,0,0,1-1.37,3.89l-4.42,5.64-6,3.81,2,5.8,2.75,6.71c.2.51.53,1.29,1,2.36s.89,2,1.3,2.82l1.21,8.69,5.34,10.68,2.29,8.54Zm-33.4-80.22a3,3,0,0,0,.07-1.29c0-.66-.13-1.38-.23-2.14s-.18-1.47-.22-2.13-.08-1.15-.08-1.45a2.66,2.66,0,0,0-1.68-2.6,40.5,40.5,0,0,0-6.4-1.83l-5,.46-2,.15-.76,5.34.91,6.71v6.71l.92,6.71-.31,2.6h4.43l5.18.3,3.2-2.13,1.68-5.19v-1.52l-1.07-5Z"/><path class="cls-4" d="M723.85,356.36l1.83,13.42v20.59l1.07,6.71v6.25l.91,6.71v6.72l.92,6.4-.92,6.71v6.41l.92,7.77v5.65l-6.71.76-7.32-.76-6.72.76V430.94l-.91-6.71v-6.41h-16v6.41l-.92,6.71v6.4l-1.07,6.71,1.07,6.41-7.32-.76-7.78.76-6.4-.76-7.63.76V443l.92-6.71,1.07-6.41V403.33l.91-6.25.92-7.78-.92-6.4.92-6.71V363.07l.91-6.71V350l1.07-6.71-1.07-6.41,6.41-.91h6.71l6.71.91h6.4l6.71-.91H704l6.71.91,6.71-.91h6.41ZM697.62,389.3l7.32,1.07V376.19l-.92-6.41v-7.62l-.91-6.41-5.49-.91-6.71.91v14l-.92,6.41v6.71l-1.07,7.47Z"/><rect class="cls-5" width="57.97" height="925.59"/></g></g></svg>