<svg xmlns="http://www.w3.org/2000/svg" xmlns:xlink="http://www.w3.org/1999/xlink" viewBox="0 0 937.07 925.59"><defs><style>.cls-1{fill:url(#Degradado_sin_nombre_120);}.cls-2{fill:url(#Degradado_sin_nombre_128);}.cls-3{fill:#f7ac00;}.cls-4{fill:#fff;}.cls-5{fill:url(#Degradado_sin_nombre_47);}</style><linearGradient id="Degradado_sin_nombre_120" x1="57.97" y1="333.44" x2="937.07" y2="333.44" gradientUnits="userSpaceOnUse"><stop offset="0.07" stop-color="#391d57"/><stop offset="0.23" stop-color="#582f75"/><stop offset="0.43" stop-color="#54376c"/><stop offset="0.84" stop-color="#52346e"/></linearGradient><linearGradient id="Degradado_sin_nombre_128" x1="497.52" y1="661.27" x2="497.52" y2="6.81" gradientUnits="userSpaceOnUse"><stop offset="0.07" stop-color="#341853"/><stop offset="0.15" stop-color="#3a1e58" stop-opacity="0.81"/><stop offset="0.33" stop-color="#452861" stop-opacity="0.45"/><stop offset="0.5" stop-color="#4d3068" stop-opacity="0.2"/><stop offset="0.67" stop-color="#51346c" stop-opacity="0.05"/><stop offset="0.84" stop-color="#53366d" stop-opacity="0"/></linearGradient><linearGradient id="Degradado_sin_nombre_47" y1="462.79" x2="57.97" y2="462.79" gradientUnits="userSpaceOnUse"><stop offset="0" stop-color="#6a6a6b"/><stop offset="0.56" stop-color="#cbccca"/><stop offset="1" stop-color="#6a6a6b"/></linearGradient></defs><g id="Capa_2" data-name="Capa 2"><g id="_Layer_" data-name="&lt;Layer&gt;"><path class="cls-1" d="M58,614.49c306.14-187.24,573,179,879.1-8.23-50.13-15.58-85.15-64.77-109.66-121.69a95.84,95.84,0,0,1-4.53-13.08c-24.2-90.81-24.61-125,28-213.06,18.69-31.26,41.12-71,78-127.51-126.65,17.37-223.15,4.47-285.54-9.27C463.13,82,383.44-5.41,232.21,6.75,154.52,13,93.89,42.62,58,63.81Z"/><path class="cls-2" d="M58,614.49c306.14-187.24,573,179,879.1-8.23-44.91-14-76.73-54-101.43-103.17a266.35,266.35,0,0,1-24-71.87c-9.81-54-8.61-94.14,33.49-163.23,19.91-32.69,43-74.6,83.74-137.07-16.23,2.34-40.89,5.38-71,7-51.61,2.75-179,8.31-311.3-44C512,80.28,492.39,68.7,430.44,45.78c-38.37-14.19-70.5-24.43-92.19-31C298,6.72,225.76-1.59,143.7,24.33A378.43,378.43,0,0,0,58,63.81Z"/><path class="cls-3" d="M205.46,252.32l7.63-.54,8.17,3.44,4.73,4.41-.75,6.45.75,5.05-.33,12.68.65,7.63-9,8.28-7.63-.54-4.19.75-13.33-2.15-7.2.54-6.34-10.21L178.38,274l1.5-3.66,6.23.43,5.81-.75L195,272.2l-.22,8.92,2.47,1.94H204l2.91-5.91.32-7.31-4.3-5.38-9.13-.86-4.3-2.58-6.88-2.9-.86-11.39,1.18-12.36-.32-7.42,9-7.95,9.78-.32c.07-.07.35-.09.86-.05s1.11.09,1.82.16,1.45.12,2.21.16,1.41.05,2,.05l7.53.22,3.65-.22a3.52,3.52,0,0,1,1.08,1l1.77,2.15c.68.83,1.38,1.7,2.1,2.64s1.36,1.71,1.93,2.36V232l.75,1.5v5.27l.54,3.11-6,1.94L215,241.89,214.6,238l.64-2.9L211.69,232l-4.51.21-5.37-.54-2.15,2.91,1,7.84.43,3.76-.21,4Z"/><path class="cls-3" d="M282.73,219.11l5.06.32v4.62l.64,4.62V233l-.64,4.62.64,4.73-.32,4.3.64,4.62-.32,4.41v4.51l.32,4.63.33,4.4.32,4.62v4.3l.32,4.73v4.62l-.32,4.19-2.69,2.8-2.9,2.26-2.8,3-4.19-.33-4.3.65-4.4-.32h-21.5l-3.11-3-3.23-1.94-3-3.12v-4.51l.32-4.3.65-4.73-.32-4.62,1-4.3-.64-4.73.64-4.3v-4.51l.65-4.41.43-4.62V242l-.75-4.41.32-4.62.75-4.3-.32-4.62.64-4,4-.65,8.6.65,4.4-.65v4.62l.33,4.62v4.63l.32,4.62v4.73l-.32,4.62.64,4.62v4.73l.32,4.3-.32,4.51v4.73l.65,4.62.32,4.3,2,2.79h3.55l3.65-.43,2.8-2,.64-4.62-.32-4.62v-4.73l.32-4.51.32-4.62-.32-4.73,1-4.3-.65-4.62.65-4.73.32-4.62-.32-4.63.64-4.62-.64-4.62,4.94.32Z"/><path class="cls-3" d="M349.16,273.6l.53,4.62.54,4.19.54,4.73v4.73l-4.3,3.12-4.09,4.19-4.3-.54-4.62.54h-8.38l-4.73.54-4.3-.54-4.08.54-4.19-.54-3.12-2.58-3.22-3.23-3.12-2,.54-4.73V273l.53-4.19V264l.43-4.62.54-4.3v-4.73l-.54-4.62.54-4.3.54-4.62v-9l3.76-3,3.12-3.12,3.11-2.69h10.54l4.73.43,5.15-.43,5.27-.54,6.34,6.35,3.55,3v4.3l.64,4.73v4.62l.43,1.94H344.1l-2.47.64-9.13-.53.43-4.63v-4.72l-3.23-2-6.23-.53-2.58,2.58-.54,5.26.54,4.73-.54,4.73V263.5l.54,7.41-1.08,4.62v5.27l3.12,2h7.31l2.69-2v-8.06l4.08-.54,5.48.54,3.76-.54,2.91,1.18Z"/><path class="cls-3" d="M378.06,285.85V291l-.75,5.91-2.25,2.8-4.84-.76-4.94.76-4.52-1.4-2.47-3.66v-8l3-3.65h14.29Z"/><path class="cls-3" d="M459,233.4l1.29,9.46v14.51l.76,4.73v4.41l.64,4.72V276l.65,4.52-.65,4.73v4.51l.65,5.48v4l-4.73.54-5.16-.54-4.73.54V286l-.65-4.73v-4.51H435.78v4.51l-.65,4.73v4.51l-.75,4.73.75,4.52-5.15-.54-5.49.54-4.51-.54-5.37.54v-5.27l.64-4.73.75-4.51v-18.7l.65-4.41.64-5.48-.64-4.52.64-4.72v-9.25l.65-4.73v-4.51l.75-4.73-.75-4.51,4.51-.65h4.73l4.73.65h4.51l4.73-.65H445l4.73.65,4.73-.65H459Zm-18.48,23.22,5.16.75v-10l-.65-4.52v-5.37l-.64-4.52-3.87-.64-4.73.64v9.89l-.65,4.52v4.72l-.75,5.27Z"/><path class="cls-3" d="M499.73,280.05l.85-2-.42-1.83.42-1.94-.42-1.93.86-3.66v-2l.75-1.5v-3.87l.43-3.65-.43-3.87.64-1.94v-1.93l.86-11.07L504,237l-.75-1.93.32-1.94.43-1.5v-1.83l.43-1.94v-2l.33-1.82v-1.83l-.33-2.26h2.26l1.83.22H510l2.37-.22,1.5.22H520v3.11l-.75,1.94-1.62,9.13v1.83l.43,1.93v2L517,241.89l.32,1.94-.32,1.83v1.93l-.86,1.5-.75,7.64-.33,1.82v2l.33,1.83-.65,1.51v3.87l-1.18,5.69v1.94l.32,1.82-1.29,1.62.43,2.36-2.25,13.22-.76,1.93.33,1.83-.65,1.51H476.94l.43-2.69-.75-1.4V293.8l-2.37-12.57.43-2.15v-1.83l-.64-1.5V272l-.43-1.94-.86-1.82.32-2.05-.75-1.93v-1.83l-.43-1.4-.32-2v-1.82l-.33-1.83v-5.81L469,232.87l-1.18-1.62-.44-1.93.87-1.83-.87-2-.75-3.76v-1.83l1.94-.43,1.93.65,1.4-.22,2.15.22h10.42l2.48-.22v3.66l.32,1.93v2L488,235l.43,1.93.43,1.4v2.15l.32,1.82v1.83l.65,1.94-.65,1.93.33,1.83.75,5.48.43,1.83-.43,1.82.86,2-.43,1.83.75,1.83.43,1.93v1.62l.21,1.82.43,1.94-.43,1.93.43,1.83.43,1.93v2.69Z"/><path class="cls-3" d="M546.26,285.85V291l-.75,5.91-2.26,2.8-4.84-.76-4.94.76-4.51-1.4-2.47-3.66v-8l3-3.65h14.29Z"/><path class="cls-4" d="M252.9,414.88v14.24l.52,6.78.7,6.77L255,450l-5.4,5.21-6.1,3.65-5.4,4.69h-13.6l-7,1.57-6.8-.7-7-.87H179.19l-8.29.87v-8.51l.86-7.65v-7.64l.46-7.65V425.3l.76-7.64-.87-7.65.87-7.82.7-7.47V379.26l1-7.65.69-7.47-.69-7.47,1.39-7.81V333.57h8.37l8.55.69,7.5-1.56,1.56.87h20.23l6.78-.87h6.77l5.56,4.34,4.52,4.69.7,7.82.69,8.34,1.39,8,.87,7.3V381l1,7.47-8,6.95,8,5.56L252,407.4ZM202,357.37l.69,7.47v7.47l1.74,7.82v3.13l3,1.39,6.84,1.56h7.19l3.14-2.95L223,375.09v-8.51l-.7-8.69-2.45-3.13H212l-6.84.7Zm22.58,85.3-.87-8.86L223,426v-8.33L221.44,410l-2.45-3.3-7,.69L205.14,406,202,409.14v7.65l1.73,7.64.18,7.82.52,9.73,2.28,3.3h6.84l7-.7Z"/><path class="cls-4" d="M338.9,356.67,341,372v23.46l1.22,7.64v7.12l1,7.65v7.64l1,7.3-1,7.64v7.3l1,8.86V463l-7.64.87L328.3,463l-7.65.87V441.63l-1-7.64v-7.3H301.37V434l-1,7.64v7.3l-1.22,7.64,1.22,7.3L292,463l-8.86.87-7.3-.87-8.69.87v-8.51l1.05-7.65,1.21-7.3V410.18l1.05-7.12,1-8.86-1-7.3,1-7.64V364.32l1-7.65v-7.29l1.22-7.65-1.22-7.29,7.3-1.05h7.64l7.65,1.05h7.29l7.65-1.05h6.25l7.65,1.05,7.64-1.05h7.3ZM309,394.2l8.34,1.22V379.26l-1-7.3v-8.68l-1-7.3-6.26-1-7.64,1v16l-1,7.3v7.64l-1.22,8.52Z"/><path class="cls-4" d="M450.78,463.7H444l-6.95,1-6.08-1H420.55l-3.3.17L404.4,426l-5.56-14.07-6.61-8,1,6.25v7.65l1,7.64v30.75l1,7.65h-7.64l-7.65,1-6.6-1H358.18v-7.65l1-7.64V433.12l1.22-7.65V394.9l1-7.65V364.32l1-7.65v-7.81l1.21-7.48v-7.81l7.47,1.21,8.17-1.21.17-.52H389.8a10.93,10.93,0,0,0,.78,2.25,28.78,28.78,0,0,0,1.48,3.13l2.78,6.6,3.3,5.91,4.17,8.17,1.56,9.9,5.74,7.64,2.26,5.91,4.51,11.64,3,11.12v-10.6l.87-7.64V364.32l1-7.65v-7.81l1-7.48v-7.81l6.78,1.21,8-1.21h7.82v15.29l2.08,7.81-1,7.65,1,7.64v7.47l.87,7.65-.87,7.64.87,7.65,1,7.64v7.65l1,7.64v30.75Z"/><path class="cls-4" d="M533.83,452.06l.52,10.77a3.78,3.78,0,0,0-1.91.26c-1,.29-1.68.32-1.91.08a13.52,13.52,0,0,0-3-.17q-2.7,0-6,.17t-6.08.18c-1.85,0-2.84-.12-2.95-.35s-.9-.32-2-.26-2.37.17-3.82.35l-4.69.52-4.26.43-20.15-.69-11,.87,1.22-8.69,1.56-5,2.43-5,1.4-8.51,4.69-8.34,1-10.6,3.47-10.94.35-1.91-14.07,3.12L466.59,397l-.17-10.77,18.41-4.69,3.65.17,1.39-5v-7.81l4.87-10.95-6.08.17-6.43-.52-8.69.7-4.17-1.05a10.7,10.7,0,0,1-.17-2.25v-8l.17-6.25v-6.08l12.86,1.56,11.64-3.12,31.79,2.78,6.61-1.57,1,2.78-2.61,9.56-2.43,7.64-1.91,7.12-3.48,7.13-.17,7.82-1.56,6.08,12.16-3.48,1.91,12.16L534,401.85l-17.72,6.42-1.74-.17-.34,1-5.91,15.29-.17,7.47-1.92,6.78c.47,0,1.48.08,3.05.26a11.09,11.09,0,0,0,3.73-.09l7.64-1.91,13,1.91.17,4.34Z"/><path class="cls-4" d="M626.78,463.87l-7.47-.35-7.82,1-7.3-1-8.16,1H580.91l-7.3-.69-7.64.69h-7.64l-7.48-.69.7-7.3.35-7.64-.35-8.17.35-7.47v-7.47l.69-8.16V410l1.74-7.47-.52-7.64.52-8,.52-7.47-.52-7.64.52-7.3.7-8.16.34-7.82,1.39-7.47v-7.47l7,.69,7.47-.69h7.47l3.13-1.22c-.23-.11-.06-.11.52,0s1.28.29,2.09.52,1.67.47,2.6.7,1.74.4,2.44.52l21.54.52,7.3-1v10.94l1.39,10.77-8.52,1.22-10.94-.35-11.3-.87-7.81,1.05.52,7.47-.52,8,1.91,7.3,5.38.17a14,14,0,0,1,4.61,0c2.49.23,4.66.41,6.51.52l15.47-.87a16.76,16.76,0,0,0,.34,2.09c.23,1.16.46,2.46.7,3.91s.46,3,.69,4.6a29.62,29.62,0,0,1,.35,4l-1.74,9.72.7,10.6-19.11.18-12.51-.7.52,3.65v12.16l1.91,6.95,7.64-.35,8,1.57,7.47-1.22h15.81v12.16l-.7,8.34Z"/><path class="cls-4" d="M727.37,462c.23.46,0,.72-.61.78a3.25,3.25,0,0,0-1.48.43l-6.6,1.39c-.23.35-.75.44-1.56.26a10.48,10.48,0,0,0-2.09-.26l-5.56-.34-10.07-.87-8.34.52-1-6.78L687.24,446l-2.61-8.16V425.47l-4-3.82-2.6-6.6-1.39-4.17-2.61.35v6.6l1,7.64v30.75l1,7.65h-7.65l-7.64,1-6.6-1H638.94v-7.65l1-7.64V433.12l1.22-7.65V402.54l5-7.47-4-7.82V364.32l1-7.65v-7.81l1.22-7.48v-7.81l7.47,1.21,8.86-1.21h8.68v.34h.87A3.61,3.61,0,0,0,672,334c.81-.06,1.79-.14,2.95-.26l3.47-.35c1.16-.11,2.2-.17,3.13-.17l9.38-.52,6.43,2.78,11,4.17,6.08,5,4.52,9,1.73,8.17-1.39,8.68c0,.24,0,1,.09,2.44s.11,2.92.17,4.6.12,3.21.18,4.6a8.66,8.66,0,0,1-.09,2.44,13,13,0,0,0-.69,3.21,11,11,0,0,1-1.57,4.43l-5,6.43-6.77,4.34,2.26,6.6,3.12,7.65c.23.58.61,1.47,1.13,2.69s1,2.29,1.48,3.21l1.39,9.91,6.08,12.16,2.61,9.73Zm-38-91.39a3.56,3.56,0,0,0,.09-1.47c-.06-.76-.15-1.57-.26-2.44s-.21-1.67-.26-2.43-.09-1.3-.09-1.65a3,3,0,0,0-1.91-2.95,44.07,44.07,0,0,0-7.3-2.09l-5.73.52-2.26.18-.87,6.08,1,7.64v7.65l1.05,7.64-.35,2.95h5l5.9.35,3.65-2.43,1.91-5.91v-1.73l-1.21-5.74Z"/><rect class="cls-5" width="57.97" height="925.59"/></g></g></svg>