<svg xmlns="http://www.w3.org/2000/svg" xmlns:xlink="http://www.w3.org/1999/xlink" viewBox="0 0 869.74 925.59"><defs><style>.cls-1{fill:url(#Degradado_sin_nombre_120);}.cls-2{fill:url(#Degradado_sin_nombre_128);}.cls-3{fill:#f7ac00;}.cls-4{fill:#fff;}.cls-5{fill:url(#Degradado_sin_nombre_47);}</style><linearGradient id="Degradado_sin_nombre_120" x1="57.97" y1="333.44" x2="869.74" y2="333.44" gradientUnits="userSpaceOnUse"><stop offset="0.07" stop-color="#391d57"/><stop offset="0.23" stop-color="#582f75"/><stop offset="0.43" stop-color="#54376c"/><stop offset="0.84" stop-color="#52346e"/></linearGradient><linearGradient id="Degradado_sin_nombre_128" x1="463.85" y1="661.27" x2="463.85" y2="6.81" gradientUnits="userSpaceOnUse"><stop offset="0.07" stop-color="#341853"/><stop offset="0.15" stop-color="#3a1e58" stop-opacity="0.81"/><stop offset="0.33" stop-color="#452861" stop-opacity="0.45"/><stop offset="0.5" stop-color="#4d3068" stop-opacity="0.2"/><stop offset="0.67" stop-color="#51346c" stop-opacity="0.05"/><stop offset="0.84" stop-color="#53366d" stop-opacity="0"/></linearGradient><linearGradient id="Degradado_sin_nombre_47" y1="462.79" x2="57.97" y2="462.79" gradientUnits="userSpaceOnUse"><stop offset="0" stop-color="#6a6a6b"/><stop offset="0.56" stop-color="#cbccca"/><stop offset="1" stop-color="#6a6a6b"/></linearGradient></defs><g id="Capa_2" data-name="Capa 2"><g id="_Layer_" data-name="&lt;Layer&gt;"><path class="cls-1" d="M58,614.49c306.14-187.24,505.63,179,811.77-8.23-50.13-15.58-85.15-64.77-109.66-121.69a94.5,94.5,0,0,1-4.53-13.08c-24.2-90.81-24.61-125,28.05-213.06,18.69-31.26,41.12-71,78-127.51-126.66,17.37-155.82,4.47-218.21-9.27C463.13,82,383.44-5.41,232.21,6.75,154.52,13,93.89,42.62,58,63.81Z"/><path class="cls-2" d="M58,614.49c306.14-187.24,505.63,179,811.77-8.23-44.91-14-76.73-54-101.44-103.17a266.33,266.33,0,0,1-23.95-71.87c-9.81-54-8.61-94.14,33.48-163.23,19.92-32.69,43-74.6,83.75-137.07-16.23,2.34-40.89,5.38-71,7-51.6,2.75-111.66,8.31-244-44C512,80.28,492.39,68.7,430.44,45.78c-38.37-14.19-70.5-24.43-92.19-31C298,6.72,225.76-1.59,143.7,24.33A378.43,378.43,0,0,0,58,63.81Z"/><path class="cls-3" d="M184.44,228.44l7.53-.53,8.06,3.4,4.67,4.35L204,242l.75,5-.32,12.52L205,267l-8.91,8.17-7.53-.53-4.14.74-13.15-2.12-7.1.53-6.26-10.07-.21-13.89,1.49-3.61,6.15.42,5.72-.74,3.08,2.12-.21,8.8,2.43,1.91H183l2.86-5.83.32-7.21-4.24-5.3-9-.85L168.64,237l-6.78-2.86L161,222.93l1.16-12.19-.31-7.32,8.9-7.85,9.65-.32c.07-.07.36-.08.85-.05l1.8.16c.71.07,1.44.12,2.18.16s1.39,0,2,0l7.42.21,3.61-.21a3.59,3.59,0,0,1,1.06,1L201,198.7c.67.81,1.36,1.68,2.07,2.6s1.34,1.69,1.91,2.33v4.77l.74,1.49v5.19l.53,3.08-5.94,1.91-6.47-1.91-.42-3.82.63-2.86-3.5-3.08-4.45.22-5.3-.53L178.72,211l.95,7.74.43,3.71-.22,3.92Z"/><path class="cls-3" d="M260.69,195.68l5,.32v4.56l.64,4.56v4.24l-.64,4.56.64,4.66-.32,4.24.63,4.56-.31,4.35v4.46l.31,4.56.32,4.34.32,4.56v4.25l.32,4.66v4.56l-.32,4.14L264.61,270l-2.86,2.23-2.76,3-4.14-.32-4.24.64-4.35-.32h-21.2l-3.08-3-3.18-1.91-3-3.07V262.8l.32-4.24.63-4.66-.31-4.56.95-4.25-.64-4.66.64-4.24v-4.46l.64-4.35.42-4.56v-4.55l-.74-4.35.32-4.56.74-4.24-.32-4.56.64-3.93L223,196l8.48.63,4.35-.63v4.56l.32,4.56v4.56l.32,4.56v4.66l-.32,4.56.64,4.56v4.67l.32,4.24-.32,4.45v4.67l.63,4.56.32,4.24,2,2.76h3.5l3.6-.43,2.76-2,.63-4.56-.31-4.56v-4.67l.31-4.45.32-4.56-.32-4.67,1-4.24-.64-4.56.64-4.66.32-4.56-.32-4.56.63-4.56-.63-4.56,4.88.32Z"/><path class="cls-3" d="M326.22,249.44l.53,4.56.53,4.14.53,4.66v4.67l-4.24,3.07-4,4.14-4.24-.53-4.56.53h-8.27l-4.67.53-4.24-.53-4,.53-4.14-.53-3.07-2.55L279.14,269l-3.08-2,.53-4.67V248.81l.53-4.14V240l.43-4.56.53-4.24v-4.66l-.53-4.56.53-4.25.53-4.55v-8.91l3.71-3,3.07-3.08,3.08-2.65h10.39l4.67.43,5.09-.43,5.19-.53,6.26,6.26,3.5,3v4.24l.64,4.67v4.55l.42,1.91h-3.39l-2.44.64-9-.53.43-4.56v-4.67l-3.18-2-6.15-.53-2.55,2.54-.53,5.2.53,4.67-.53,4.66v14.42l.53,7.32-1.06,4.56v5.2l3.08,2h7.21l2.65-2v-8l4-.53,5.41.53,3.71-.53,2.86,1.17Z"/><path class="cls-3" d="M354.74,261.53v5.09l-.74,5.83-2.22,2.76-4.78-.74-4.87.74-4.46-1.38-2.44-3.6v-7.85l3-3.61h14.11Z"/><path class="cls-3" d="M434.59,209.78l1.28,9.33v14.32l.74,4.67v4.34l.63,4.67v4.66l.64,4.46-.64,4.66v4.46l.64,5.41v3.92l-4.67.53-5.09-.53-4.66.53V261.64l-.64-4.67v-4.45H411.69V257l-.64,4.67v4.45l-.74,4.67.74,4.45-5.09-.53-5.41.53-4.45-.53-5.3.53V270l.63-4.66.75-4.46V242.44l.63-4.34.64-5.41-.64-4.46.64-4.66v-9.12l.64-4.67v-4.45l.74-4.67-.74-4.45,4.45-.64h4.67l4.66.64h4.45l4.67-.64h3.82l4.66.64,4.67-.64h4.45Zm-18.24,22.91,5.09.74v-9.86l-.63-4.46v-5.3l-.64-4.45-3.82-.64-4.66.64v9.75l-.64,4.46v4.66l-.74,5.2Z"/><path class="cls-3" d="M474.78,255.8l.85-2-.42-1.8.42-1.91-.42-1.91.84-3.61v-2l.75-1.49v-3.81l.42-3.61-.42-3.82.63-1.91V226l.85-10.93.74-1.8-.74-1.91.32-1.91L479,208v-1.8l.43-1.91v-2l.32-1.8v-1.8l-.32-2.23h2.22l1.81.21H485l2.33-.21,1.49.21h6v3.08l-.74,1.91-1.59,9v1.8l.43,1.91v2l-1.07,1.8.32,1.91-.32,1.8v1.91l-.84,1.48-.75,7.53L490,234.6v2l.31,1.8-.63,1.49v3.82l-1.17,5.62v1.9l.32,1.81-1.27,1.59.42,2.33-2.23,13-.74,1.91.32,1.81-.64,1.48H452.3l.43-2.65-.75-1.38v-1.8L449.65,257l.42-2.12v-1.8l-.63-1.49v-3.71l-.43-1.91-.84-1.8.31-2-.74-1.9v-1.81l-.42-1.38-.32-2v-1.8l-.32-1.81v-5.72l-2.23-16.44-1.16-1.59-.43-1.91.85-1.8-.85-2-.74-3.72v-1.8L444,196l1.91.63,1.38-.21,2.12.21h10.28l2.44-.21V200l.32,1.91v2l.74,7.42.43,1.91.42,1.38v2.12l.32,1.8v1.81l.64,1.9-.64,1.91.32,1.81.74,5.4.42,1.81-.42,1.8.85,2-.43,1.81.75,1.8.42,1.91v1.59l.21,1.8.43,1.91-.43,1.91.43,1.8.42,1.91v2.65Z"/><path class="cls-3" d="M520.7,261.53v5.09l-.75,5.83-2.22,2.76-4.77-.74-4.88.74-4.46-1.38-2.43-3.6v-7.85l3-3.61h14.11Z"/><path class="cls-4" d="M235.76,393.57v14.77l.54,7,.72,7,.9,7.56-5.59,5.4L226,439.13,220.4,444H206.31l-7.23,1.62-7.05-.72-7.22-.9H159.37l-8.6.9v-8.82l.91-7.93v-7.92l.47-7.92v-7.93l.79-7.92-.9-7.92.9-8.1.72-7.75v-16l1.08-7.92.72-7.75-.72-7.74,1.44-8.1V309.3h8.68l8.85.72,7.77-1.62,1.63.9h21l7-.9h7l5.76,4.51,4.68,4.86.72,8.1.72,8.64,1.44,8.28.9,7.57v8.1l1.08,7.74-8.28,7.2,8.28,5.77,1.44,6.66ZM183,334l.72,7.74v7.75l1.8,8.1v3.24l3.09,1.44,7.08,1.62h7.46l3.25-3.06-1.62-8.46v-8.82l-.72-9-2.54-3.24h-8.18l-7.08.72Zm23.4,88.41-.9-9.18-.72-8.1v-8.65l-1.63-7.92-2.55-3.42-7.27.72-7.08-1.44L183,387.63v7.92l1.8,7.92.18,8.11.54,10.08,2.36,3.42H195l7.27-.72Z"/><path class="cls-4" d="M326.69,309.3l8.46.54v7.75l1.08,7.74v7.2l-1.08,7.74,1.08,7.93-.54,7.2,1.08,7.74-.54,7.38v7.57l.54,7.74.54,7.38.54,7.74v7.21l.54,7.92v7.74l-.54,7-4.5,4.69-4.86,3.78-4.68,5-7-.54-7.21,1.08-7.38-.54h-36l-5.22-5-5.4-3.24-5-5.23v-7.56l.54-7.2,1.08-7.92-.54-7.75,1.63-7.2-1.09-7.92,1.09-7.2v-7.57l1.08-7.38.72-7.74v-7.74l-1.26-7.39.54-7.74,1.26-7.2-.54-7.74,1.08-6.67,6.66-1.08,14.4,1.08,7.38-1.08v7.75l.55,7.74v7.74l.54,7.74v7.93l-.54,7.74,1.08,7.74v7.92l.54,7.21-.54,7.56v7.92l1.08,7.74.54,7.21,3.42,4.68h5.94l6.12-.72,4.68-3.42,1.08-7.75-.54-7.74v-7.92l.54-7.56.54-7.75-.54-7.92,1.62-7.2-1.08-7.74,1.08-7.93.54-7.74-.54-7.74,1.08-7.74-1.08-7.75,8.29.54Z"/><path class="cls-4" d="M400,364.94l12.79-.9,13.68,5.76,7.92,7.39L433.1,388l1.26,8.46-.54,21.25,1.08,12.78-15.12,13.87-12.79-.9-7,1.26-22.33-3.6-12.06.9L355,424.9l-.36-23.59,2.52-6.12,10.44.72,9.72-1.26,5.23,3.6-.36,14.95,4.14,3.24h11.16l4.86-9.9.54-12.25-7.2-9-15.3-1.44-7.21-4.32-11.52-4.86-1.44-19.09,2-20.71-.54-12.42,15.12-13.33,16.39-.54a3,3,0,0,1,1.44-.09l3.06.27q1.8.19,3.69.27c1.26.07,2.37.09,3.33.09l12.61.36,6.12-.36a6,6,0,0,1,1.8,1.71l3,3.61q1.71,2.07,3.51,4.41t3.24,4v8.1l1.26,2.52v8.82l.9,5.23L427,350.72l-11-3.24-.72-6.49,1.08-4.86-5.94-5.22-7.57.36-9-.9-3.6,4.86,1.62,13.15.72,6.3-.36,6.66Z"/><path class="cls-4" d="M538.43,400.59l.91,7.75.9,7,.9,7.92v7.92l-7.21,5.23-6.84,7-7.2-.9-7.74.9h-14l-7.92.9-7.2-.9-6.85.9-7-.9-5.22-4.32-5.4-5.41-5.22-3.42.9-7.92V399.51l.9-7v-7.92l.72-7.74.9-7.21V361.7l-.9-7.74.9-7.2.9-7.75V323.89l6.3-5,5.22-5.22,5.22-4.51H492l7.92.72,8.65-.72,8.82-.9L528,318.85l5.94,5v7.2L535,339v7.75l.72,3.24H530l-4.14,1.08-15.3-.9.72-7.74v-7.93l-5.41-3.42-10.44-.9-4.32,4.32-.9,8.83.9,7.92-.9,7.92v24.49l.9,12.42-1.8,7.74v8.83l5.22,3.42h12.24l4.51-3.42V399.15l6.84-.9,9.18.9,6.3-.9,4.86,2Z"/><path class="cls-4" d="M645,444.35h-7.92l-7.93,1.08-6.84-1.08H606.5v-7.92l1.08-7.93v-16l1.26-7.93V392l-3.06-.36H594.61l-6.3.9v4.14l1.08,7.92v31.88l1.08,7.92h-7.92l-7.92,1.08-6.85-1.08H551.94v-7.92L553,428.5v-16l1.26-7.93V372.86l1.08-7.92V341.17l1.08-7.92v-8.1l1.26-7.74V309.3l7.74,1.27,9.19-1.27h9v15.85l2.34,8.1-1.08,7.92L586,349.1v4.14h.18L586,354.5V357l.18,1.08,7.38.9,8.11-2h8.28V341.17l1.08-7.92v-8.1l1.26-7.74V309.3l7.74,1.27,9.18-1.27h9v15.85l2.34,8.1-1.08,7.92,1.08,7.93V357l1.08,7.92-1.08,7.92,1.08,7.93,1.26,7.92v7.92l1.08,7.92v31.88Z"/><rect class="cls-5" width="57.97" height="925.59"/></g></g></svg>