<svg width="21" height="21" viewBox="0 0 21 21" fill="none" xmlns="http://www.w3.org/2000/svg">
<path d="M9.39 20.9502V16.3788C9.39 15.7235 9.29857 15.1331 9.11571 14.6073C8.93286 14.0816 8.55952 13.5369 7.99571 12.9731L9.52714 11.4416C9.66429 11.594 9.8281 11.7883 10.0186 12.0245C10.209 12.2607 10.3576 12.4702 10.4643 12.6531C10.6929 12.3178 10.9176 12.0131 11.1386 11.7388C11.3595 11.4645 11.5995 11.2283 11.8586 11.0302C12.9252 10.2835 13.6452 9.38829 14.0186 8.34448C14.3919 7.30067 14.5252 6.20734 14.4186 5.06448L12.3614 7.09877L10.8529 5.5902L15.5157 0.950195L20.1786 5.5902L18.67 7.09877L16.6129 5.06448C16.6433 6.69496 16.4529 8.074 16.0414 9.20162C15.63 10.3292 14.7081 11.495 13.2757 12.6988C12.4833 13.3845 11.9957 13.9978 11.8129 14.5388C11.63 15.0797 11.5386 15.6931 11.5386 16.3788V20.9502H9.39ZM4.49857 7.89877C4.43762 7.63972 4.38048 7.24734 4.32714 6.72162C4.27381 6.19591 4.26238 5.64353 4.29286 5.06448L2.28143 7.09877L0.75 5.5902L5.41286 0.950195L10.0529 5.5902L8.54429 7.09877L6.51 5.04162C6.46429 5.52924 6.44905 5.96734 6.46429 6.35591C6.47952 6.74448 6.52524 7.08353 6.60143 7.37305L4.49857 7.89877ZM6.78429 11.8759C6.46429 11.5864 6.13286 11.2169 5.79 10.7673C5.44714 10.3178 5.18429 9.88734 5.00143 9.47591L7.21857 8.90448C7.32524 9.14829 7.48143 9.41115 7.68714 9.69305C7.89286 9.97496 8.08714 10.1997 8.27 10.3673L6.78429 11.8759Z" fill="#303030"/>
</svg>
