<svg xmlns="http://www.w3.org/2000/svg" xmlns:xlink="http://www.w3.org/1999/xlink" viewBox="0 0 868.68 925.59"><defs><style>.cls-1{fill:url(#Degradado_sin_nombre_47);}.cls-2{fill:url(#Degradado_sin_nombre_120);}.cls-3{fill:url(#Degradado_sin_nombre_128);}.cls-4{font-size:87.1px;fill:#f7ac00;}.cls-4,.cls-6{font-family:Ruina;}.cls-5{letter-spacing:-0.04em;}.cls-6{font-size:124.58px;fill:#fff;}.cls-7{font-size:128.57px;}</style><linearGradient id="Degradado_sin_nombre_47" y1="462.79" x2="57.97" y2="462.79" gradientUnits="userSpaceOnUse"><stop offset="0" stop-color="#6a6a6b"/><stop offset="0.56" stop-color="#cbccca"/><stop offset="1" stop-color="#6a6a6b"/></linearGradient><linearGradient id="Degradado_sin_nombre_120" x1="56.91" y1="333.44" x2="868.68" y2="333.44" gradientUnits="userSpaceOnUse"><stop offset="0.07" stop-color="#391d57"/><stop offset="0.23" stop-color="#582f75"/><stop offset="0.43" stop-color="#54376c"/><stop offset="0.84" stop-color="#52346e"/></linearGradient><linearGradient id="Degradado_sin_nombre_128" x1="462.8" y1="660.67" x2="462.8" y2="6.2" gradientUnits="userSpaceOnUse"><stop offset="0.07" stop-color="#341853"/><stop offset="0.15" stop-color="#3a1e58" stop-opacity="0.81"/><stop offset="0.33" stop-color="#452861" stop-opacity="0.45"/><stop offset="0.5" stop-color="#4d3068" stop-opacity="0.2"/><stop offset="0.67" stop-color="#51346c" stop-opacity="0.05"/><stop offset="0.84" stop-color="#53366d" stop-opacity="0"/></linearGradient></defs><g id="Capa_2" data-name="Capa 2"><g id="_Layer_" data-name="&lt;Layer&gt;"><rect class="cls-1" width="57.97" height="925.59"/><path class="cls-2" d="M56.91,614.49c306.15-187.24,505.63,179,811.77-8.23C818.56,590.68,783.53,541.49,759,484.57a94.46,94.46,0,0,1-4.52-13.08c-24.21-90.81-24.62-125,28-213.06,18.69-31.26,41.12-71,78-127.51-126.66,17.37-155.83,4.47-218.21-9.27C462.07,82,382.38-5.41,231.16,6.75,153.46,13,92.84,42.62,56.91,63.81Z"/><path class="cls-3" d="M56.91,613.88c306.15-187.23,505.63,179,811.77-8.22-44.91-14-76.73-54-101.43-103.18a266.17,266.17,0,0,1-24-71.86c-9.81-54-8.61-94.14,33.49-163.23,19.91-32.69,43-74.6,83.75-137.07-16.24,2.34-40.9,5.38-71,7-51.6,2.74-111.66,8.31-244-44C511,79.68,491.34,68.1,429.38,45.18,391,31,358.89,20.75,337.19,14.17c-40.29-8-112.49-16.36-194.54,9.55A378.32,378.32,0,0,0,56.91,63.2Z"/><text class="cls-4" transform="translate(122.17 216.76)">suc. <tspan class="cls-5" x="170.37" y="0">a</tspan><tspan x="217.67" y="0">v.</tspan></text><text class="cls-6" transform="translate(112.56 338.83)">VIRGEn<tspan x="0" y="120.56">DE </tspan><tspan class="cls-7" x="168.68" y="120.56">COTOCA</tspan></text></g></g></svg>