<svg width="11" height="10" viewBox="0 0 11 10" fill="none" xmlns="http://www.w3.org/2000/svg">
<path d="M0.848844 9.74615C1.05258 9.14635 1.25631 8.54655 1.43802 8.01125C1.20872 7.54282 0.970377 7.14675 0.813052 6.7204C-0.18006 4.02701 1.26929 1.06104 4.03467 0.224074C6.84921 -0.628233 9.70622 1.02722 10.369 3.89446C11.0132 6.68147 9.19846 9.36621 6.47084 9.89954C5.20674 10.1465 4.01146 9.93888 2.90626 9.26749C2.78158 9.19198 2.67302 9.18057 2.53733 9.22619C2.07204 9.38195 1.604 9.52865 1.13596 9.67575C1.04314 9.70485 0.945992 9.7198 0.85081 9.74104L0.849237 9.74576L0.848844 9.74615ZM8.50387 6.29602C8.09758 6.10487 7.66494 5.89052 7.22167 5.70015C7.07693 5.63801 6.9263 5.69307 6.826 5.83742C6.73633 5.96643 6.64351 6.09347 6.54596 6.21618C6.38077 6.42385 6.28323 6.44941 6.03584 6.34479C5.24292 6.0089 4.64548 5.45001 4.19514 4.72356C4.109 4.58472 4.12513 4.46791 4.23172 4.35031C4.33712 4.23389 4.45669 4.12297 4.52985 3.98807C4.58334 3.88974 4.61756 3.73949 4.58137 3.64117C4.43231 3.23645 4.25925 2.84038 4.08069 2.44747C4.04489 2.3688 3.95483 2.28188 3.8742 2.26182C3.56741 2.18631 3.27086 2.22288 3.03605 2.45848C2.59436 2.90213 2.45985 3.4394 2.5861 4.0451C2.69584 4.57096 2.99082 5.00321 3.298 5.42995C4.14637 6.6091 5.23899 7.43033 6.66671 7.78431C7.23269 7.92473 7.72905 7.81381 8.17624 7.45668C8.48145 7.21283 8.63563 6.69327 8.50348 6.29563L8.50387 6.29602Z" fill="#00E676"/>
</svg>
